<svg xmlns="http://www.w3.org/2000/svg" width="41" height="41" viewBox="0 0 41 41">
  <defs>
    <radialGradient id="mci-a" cx="49.584%" cy="40.823%" r="62.78%" fx="49.584%" fy="40.823%" gradientTransform="scale(.99993 1)">
      <stop offset="0%" stop-color="#7CA7AD"/>
      <stop offset="11.98%" stop-color="#5F9396"/>
      <stop offset="28.74%" stop-color="#3D7C7C"/>
      <stop offset="45.85%" stop-color="#226967"/>
      <stop offset="63.24%" stop-color="#0F5C58"/>
      <stop offset="81.06%" stop-color="#04544F"/>
      <stop offset="100%" stop-color="#00524C"/>
    </radialGradient>
  </defs>
  <g fill="none">
    <path fill="#00524C" d="M1.90261438,39.3921569 L1.53281046,39.4698693 L0.0133986928,40.9866013 C4.86372549,39.9602614 11.8551634,39.3117647 19.6237255,39.3117647 C27.3976471,39.3117647 34.3864052,39.9575817 39.236732,40.9866013 L40.8633333,39.3573203 C35.8709804,38.314902 28.8152288,37.72 21.4593464,37.72 C14.0311111,37.7226797 6.9003268,38.3336601 1.90261438,39.3921569 Z"/>
    <path fill="#00524C" d="M1.53013072,39.472549 L1.60784314,39.1027451 C2.66901961,34.0996732 3.27464052,26.9688889 3.27464052,19.5379739 C3.27464052,12.1847712 2.67705882,5.12901961 1.64,0.133986928 L0.0133986928,1.76326797 C1.03973856,6.61359477 1.68555556,13.6050327 1.68555556,21.3762745 C1.68555556,29.1475163 1.03973856,36.1362745 0.0133986928,40.989281 L1.53013072,39.472549 L1.53013072,39.472549 Z"/>
    <path fill="url(#mci-a)" d="M2.16254902,38.8347712 C7.17633987,37.8137908 14.1811765,37.2322876 21.4593464,37.2322876 C28.7482353,37.2322876 35.7477124,37.8137908 40.7561438,38.8347712 C39.7378431,33.8290196 39.1536601,26.8268627 39.1536601,19.5379739 C39.1536601,12.2517647 39.7351634,5.25228758 40.7561438,0.243856209 C35.7450327,1.2648366 28.7455556,1.84633987 21.4593464,1.84633987 C14.1784967,1.84633987 7.17633987,1.2648366 2.16254902,0.243856209 C3.18620915,5.25764706 3.77039216,12.2571242 3.77039216,19.5379739 C3.77039216,26.824183 3.18352941,33.8236601 2.16254902,38.8347712 Z"/>
    <g fill="#FFF" transform="translate(7.771 4.288)">
      <g transform="translate(5.895)">
        <path d="M11.8337255,10.3437908 C11.8498039,10.0892157 11.5255556,9.72745098 11.4022876,9.60686275 L11.3031373,9.51843137 L11.418366,9.46215686 C11.4853595,9.43 11.5148366,9.39248366 11.5175163,9.35764706 C11.5255556,9.18614379 11.1182353,8.86189542 10.8288235,8.69039216 L10.7135948,8.62071895 L10.8207843,8.54300654 C10.8368627,8.53228758 10.8475817,8.52156863 10.8583007,8.51084967 C10.7939869,8.43313725 10.7243137,8.34202614 10.6519608,8.22411765 C10.5903268,8.27235294 10.4911765,8.32326797 10.3437908,8.32326797 C10.126732,8.32326797 9.86411765,8.21339869 9.56666667,7.99901961 L9.55326797,7.98562092 C9.54522876,7.97490196 8.77078431,7.10398693 8.16784314,6.63503268 C8.47065359,7.18437908 8.75202614,7.99098039 8.78686275,8.09816993 C9.18078431,8.75202614 9.47823529,8.65019608 9.47823529,8.65019608 L9.57202614,8.62071895 L9.58542484,8.72254902 C9.66849673,9.41928105 10.0061438,9.44071895 10.0195425,9.44071895 L10.0945752,9.44339869 L10.0972549,9.52647059 C10.1133333,10.1776471 10.5313725,10.3652288 10.547451,10.373268 L10.5930065,10.3947059 L10.6010458,10.4483007 C10.6251634,11.019085 10.8207843,11.4666013 10.8234641,11.4719608 L10.8368627,11.4960784 L10.8315033,11.5228758 C10.8127451,11.7211765 11.0887582,12.0802614 11.2843791,12.2839216 C11.3620915,12.2624837 11.418366,12.2222876 11.4612418,12.1606536 C11.5871895,11.9703922 11.5523529,11.5979085 11.5282353,11.4719608 L11.5175163,11.4156863 L11.5550327,11.3835294 C11.9489542,11.0512418 11.715817,10.6626797 11.705098,10.6439216 L11.664902,10.5688889 L11.7292157,10.5206536 C11.7908497,10.4777778 11.828366,10.4188235 11.8337255,10.3437908 Z"/>
        <path d="M14.0364706,9.93111111 L14.0445098,9.89359477 C14.2213725,9.1379085 13.765817,8.80830065 13.7416993,8.7975817 L13.6907843,8.76006536 L13.7095425,8.6930719 C13.755098,8.55372549 13.7443791,8.42777778 13.6827451,8.30183007 C13.4951634,7.91594771 12.8761438,7.72568627 12.8761438,7.72568627 L12.7769935,7.69620915 L12.8198693,7.59973856 C12.8734641,7.48718954 12.8788235,7.39607843 12.833268,7.32104575 C12.6912418,7.06647059 12.0615033,7.00751634 11.8310458,7.00751634 L11.7211765,7.00751634 L11.7560131,6.88960784 C11.7694118,6.84941176 11.7747712,6.80921569 11.7801307,6.76633987 C11.7613725,6.76633987 11.7506536,6.77437908 11.7506536,6.77437908 C11.5362745,6.77437908 11.3245752,6.69934641 11.0967974,6.55196078 C11.008366,6.66718954 10.7886275,6.86013072 10.2901961,6.86013072 C10.1910458,6.86013072 10.0838562,6.85477124 9.97130719,6.83869281 L9.9579085,6.83601307 C9.94718954,6.83065359 8.84849673,6.40457516 8.14640523,6.31614379 C8.10352941,6.30810458 8.06601307,6.3027451 8.02849673,6.3027451 C8.02849673,6.3027451 8.0124183,6.30542484 8.00973856,6.31078431 C8.05261438,6.34026144 8.10352941,6.37509804 8.15980392,6.40993464 C8.22947712,6.46620915 8.30986928,6.52784314 8.39294118,6.5948366 C8.9503268,7.06915033 9.58542484,7.77124183 9.66313725,7.8596732 C9.93111111,8.05261438 10.1615686,8.14908497 10.3464706,8.14908497 C10.5340523,8.14908497 10.598366,8.04457516 10.6037255,8.03921569 L10.6332026,7.99098039 L10.6680392,7.93202614 L10.7296732,8.03921569 C10.8234641,8.19464052 10.9118954,8.31522876 10.9896078,8.40366013 C11.0137255,8.43045752 11.0405229,8.4572549 11.059281,8.47601307 C11.2173856,8.62875817 11.3379739,8.65823529 11.4130065,8.65823529 C11.4960784,8.65823529 11.5362745,8.62875817 11.541634,8.62607843 L11.6139869,8.56980392 L11.6595425,8.65555556 C11.9757516,9.32281046 12.361634,9.3951634 12.5090196,9.3951634 C12.5331373,9.3951634 12.5518954,9.3951634 12.5572549,9.39248366 L12.6135294,9.38444444 L12.6430065,9.43803922 C12.9940523,10.1347712 13.4335294,10.5528105 13.4362092,10.5581699 L13.4549673,10.5742484 L13.4603268,10.5930065 C13.5701961,10.895817 14.0739869,11.1343137 14.3124837,11.2200654 C14.6233333,10.8073856 14.0659477,9.97934641 14.063268,9.97130719 L14.0364706,9.93111111 Z"/>
        <path d="M15.4031373,7.10666667 C15.3281046,6.77705882 14.8805882,6.51444444 14.8779085,6.51176471 L14.8323529,6.48764706 L14.8323529,6.43137255 C14.8537908,5.7748366 14.3473203,5.71320261 14.3258824,5.71052288 L14.2428105,5.69980392 L14.2535294,5.61405229 C14.2669281,5.51490196 14.2454902,5.43718954 14.1972549,5.37555556 C14.1034641,5.25764706 13.8864052,5.19333333 13.5862745,5.19333333 C13.3906536,5.19333333 13.232549,5.22013072 13.232549,5.22013072 L13.1066013,5.24156863 L13.1387582,5.11294118 C13.1628758,5.03254902 13.1575163,4.97091503 13.1360784,4.93607843 C13.1039216,4.89052288 13.0262092,4.86372549 12.9109804,4.86372549 C12.5706536,4.86372549 12.0400654,5.08346405 12.0373856,5.08614379 L11.9141176,5.13973856 L11.9275163,4.99771242 C11.9382353,4.91196078 11.9248366,4.85300654 11.89,4.81013072 C11.8417647,4.75117647 11.7426144,4.72169935 11.6059477,4.72169935 C11.295098,4.72169935 10.895817,4.87712418 10.885098,4.87712418 L10.8583007,4.89052288 C10.7377124,4.96287582 10.5715686,5.01379085 10.3330719,5.01647059 C10.311634,5.1772549 10.188366,5.48810458 9.62026144,5.76143791 L9.60686275,5.76679739 C9.60686275,5.76679739 9.30137255,5.83647059 8.94228758,5.93562092 C8.7279085,5.9972549 8.4920915,6.07228758 8.28575163,6.15535948 C8.28575163,6.15535948 8.27503268,6.16071895 8.27235294,6.16071895 C8.34202614,6.17143791 8.41437908,6.1848366 8.48941176,6.20091503 C9.14326797,6.34294118 9.89895425,6.63503268 9.99810458,6.66718954 C10.1026144,6.68326797 10.1964052,6.68862745 10.2875163,6.68862745 C10.8716993,6.68862745 10.9949673,6.40457516 10.9949673,6.40189542 L11.0324837,6.30810458 L11.1128758,6.36169935 C11.3379739,6.52248366 11.5469935,6.60287582 11.7265359,6.60287582 L11.7452941,6.60287582 C11.7747712,6.60019608 11.8015686,6.59751634 11.828366,6.59215686 C11.8578431,6.58411765 11.8846405,6.58143791 11.9060784,6.56803922 C12.002549,6.53320261 12.0507843,6.4769281 12.0507843,6.4769281 L12.1043791,6.40993464 L12.1633333,6.46352941 C12.3857516,6.65647059 12.6135294,6.75294118 12.8520261,6.75294118 C13.0744444,6.75294118 13.2191503,6.66718954 13.2191503,6.6645098 L13.2673856,6.63771242 L13.3075817,6.67522876 C13.7979739,7.07986928 14.3232026,7.22457516 14.3258824,7.2272549 L14.35,7.23529412 L14.3687582,7.25137255 C14.4545098,7.35588235 14.6796078,7.40679739 14.9904575,7.40679739 L14.9904575,7.40679739 C15.1485621,7.40679739 15.293268,7.39339869 15.3575817,7.38267974 C15.4111765,7.29424837 15.4245752,7.20313725 15.4031373,7.10666667 Z"/>
        <path d="M9.57202614,5.59797386 C10.1615686,5.31124183 10.1830065,5.0030719 10.1830065,4.95215686 C10.1830065,4.94679739 10.1830065,4.94411765 10.1830065,4.94411765 L10.1749673,4.86372549 L10.1749673,4.84228758 L10.2258824,4.84496732 L10.2714379,4.84496732 C10.3759477,4.8503268 10.4697386,4.83960784 10.547451,4.82620915 C10.5688889,4.82084967 10.5930065,4.8154902 10.6171242,4.81013072 C10.6921569,4.78869281 10.7537908,4.76189542 10.8020261,4.72973856 C10.8315033,4.71098039 10.8502614,4.69222222 10.8770588,4.67614379 C10.9708497,4.58503268 10.9869281,4.49392157 10.9869281,4.48856209 L11.0030065,4.40816993 L11.080719,4.41620915 C11.1343137,4.4269281 11.1905882,4.42960784 11.244183,4.42960784 C11.7238562,4.42960784 11.9221569,4.07588235 11.9221569,4.06784314 L11.940915,4.01960784 L11.9945098,4.02764706 C12.0775817,4.03568627 12.1740523,4.04372549 12.2651634,4.04372549 C12.6564052,4.04372549 12.9511765,3.9472549 12.9511765,3.94457516 L12.9752941,3.93921569 L12.996732,3.94457516 C13.0101307,3.94993464 13.0315686,3.95261438 13.0503268,3.95261438 L13.0503268,3.95261438 C13.2620261,3.95261438 13.6103922,3.70071895 13.7577778,3.58013072 C13.7524183,3.49705882 13.7283007,3.4327451 13.6827451,3.37915033 C13.5326797,3.20496732 13.2003922,3.19424837 13.1066013,3.19424837 C13.0798039,3.19424837 13.069085,3.19424837 13.069085,3.19424837 L13.0154902,3.1969281 L12.9913725,3.14869281 C12.884183,2.93431373 12.7341176,2.82444444 12.5518954,2.82444444 C12.4339869,2.82444444 12.350915,2.87 12.350915,2.87 L12.2732026,2.90751634 L12.2410458,2.82444444 C12.2008497,2.72261438 12.1311765,2.67437908 12.0293464,2.67437908 C11.7962092,2.67437908 11.4666013,2.93431373 11.356732,3.03346405 L11.2602614,3.11921569 L11.2254248,2.98522876 C11.1959477,2.86196078 11.1477124,2.86196078 11.1262745,2.86196078 C10.9520915,2.86196078 10.6064052,3.25320261 10.4322222,3.49705882 L10.3518301,3.61228758 L10.2982353,3.48098039 C10.2580392,3.37647059 10.2017647,3.36575163 10.1615686,3.36575163 C10.1615686,3.36575163 10.1454902,3.36575163 10.137451,3.36843137 C10.0543791,3.47294118 9.93111111,3.57745098 9.75424837,3.64980392 C9.75424837,3.78915033 9.70065359,4.06248366 9.29333333,4.27954248 C9.3254902,4.41620915 9.3254902,4.70830065 8.98784314,5.13437908 L8.97712418,5.14509804 C8.97176471,5.15045752 8.53228758,5.50418301 8.18928105,5.86058824 C8.11960784,5.93026144 8.06065359,6.00261438 8.00437908,6.07228758 C7.99901961,6.07764706 7.99901961,6.08568627 7.99633987,6.09104575 C7.99633987,6.09640523 7.99098039,6.09908497 7.98562092,6.10444444 C8.1169281,6.04281046 8.26163399,5.98117647 8.41705882,5.92490196 C8.91816993,5.74267974 9.48627451,5.61673203 9.57202614,5.59797386 Z"/>
        <path d="M8.27503268 5.53901961C8.55372549 5.27372549 8.82705882 5.04862745 8.87797386 5.01111111 9.25849673 4.52339869 9.12986928 4.28222222 9.12986928 4.27954248L9.08163399 4.2045098 9.07895425 4.19647059 9.09235294 4.18843137 9.16202614 4.15627451C9.29869281 4.08928105 9.38980392 4.02228758 9.45947712 3.95529412 9.57202614 3.83738562 9.59078431 3.73019608 9.59614379 3.66856209 9.59614379 3.63372549 9.59078431 3.61496732 9.59078431 3.61496732L9.58006536 3.56137255 9.57202614 3.53457516 9.62294118 3.51581699 9.64705882 3.50777778C9.85071895 3.43810458 9.97666667 3.32019608 10.0490196 3.20764706 10.1535294 3.0575817 10.1642484 2.92091503 10.1642484 2.91823529L10.1669281 2.86196078 10.2178431 2.84588235C10.6332026 2.69045752 10.9226144 2.40908497 10.9252941 2.40640523L10.9440523 2.3903268 10.9654902 2.38496732C11.1128758 2.3554902 11.3138562 2.03124183 11.418366 1.81418301 11.3728105 1.7230719 11.295098 1.68019608 11.1771895 1.68019608 10.9869281 1.68019608 10.7752288 1.80078431 10.7752288 1.80346405L10.7350327 1.83026144 10.6948366 1.79810458C10.598366 1.7230719 10.5045752 1.68555556 10.4134641 1.68555556 10.2339216 1.68555556 10.1186928 1.83294118 10.1186928 1.83294118L10.0677778 1.90261438 10.0007843 1.84366013C9.96326797 1.80614379 9.92575163 1.79006536 9.88823529 1.79006536 9.68993464 1.79006536 9.47287582 2.2027451 9.41124183 2.35013072L9.36300654 2.47339869 9.2772549 2.36888889C9.24777778 2.33137255 9.22366013 2.31261438 9.22366013 2.31261438 9.09503268 2.31261438 8.9369281 2.71189542 8.86189542 3.07098039L8.83509804 3.21300654 8.73326797 3.11921569C8.70111111 3.0924183 8.67163399 3.07366013 8.64751634 3.07366013 8.5054902 3.8775817 8.15712418 5.13169935 7.94810458 5.82039216 7.94006536 5.85522876 7.93202614 5.89006536 7.92130719 5.91954248 7.97490196 5.8579085 8.02849673 5.79895425 8.08745098 5.73732026 8.14640523 5.66496732 8.21339869 5.60065359 8.27503268 5.53901961zM6.04013072 7.98562092L6.02673203 7.99901961C5.72928105 8.21071895 5.46666667 8.32326797 5.24960784 8.32326797 5.09954248 8.32326797 5.0030719 8.27235294 4.93875817 8.22411765 4.86640523 8.33934641 4.79941176 8.43313725 4.72973856 8.51084967 4.73777778 8.52156863 4.75117647 8.53228758 4.76457516 8.54300654L4.87444444 8.62071895 4.75653595 8.69039216C4.47248366 8.86189542 4.06248366 9.18614379 4.07052288 9.35764706 4.07588235 9.3951634 4.10535948 9.43267974 4.16699346 9.46215686L4.2875817 9.51843137 4.19379085 9.60686275C4.06784314 9.72745098 3.74359477 10.0892157 3.7596732 10.3437908 3.76235294 10.4188235 3.79986928 10.4777778 3.86686275 10.5260131L3.93653595 10.5742484 3.89098039 10.649281C3.88294118 10.6653595 3.64712418 11.0539216 4.04104575 11.3888889L4.07856209 11.4210458 4.07052288 11.4773203C4.0651634 11.48 3.97673203 11.9328758 4.1348366 12.1660131 4.17503268 12.2276471 4.23398693 12.2678431 4.30633987 12.289281 4.50464052 12.0856209 4.78065359 11.7265359 4.76189542 11.5282353L4.76189542 11.5041176 4.7672549 11.48C4.76993464 11.4746405 4.97091503 11.0244444 4.99771242 10.4563399L5.00039216 10.4000654 5.04594771 10.3786275C5.06470588 10.3705882 5.4827451 10.1830065 5.49614379 9.53183007L5.49614379 9.44607843 5.57653595 9.44607843C5.58993464 9.44607843 5.93026144 9.42464052 6.01065359 8.7279085L6.02673203 8.62339869 6.1151634 8.65555556C6.1151634 8.65555556 6.42065359 8.74934641 6.80921569 8.10352941 6.84405229 7.99633987 7.12542484 7.18973856 7.42823529 6.64039216 6.82529412 7.10398693 6.05352941 7.97490196 6.04013072 7.98562092z"/>
        <path d="M7.44431373,6.31614379 C6.74222222,6.40457516 5.64888889,6.83065359 5.63281046,6.83601307 L5.61405229,6.83869281 C5.50150327,6.85477124 5.39431373,6.86013072 5.2951634,6.86013072 C4.78869281,6.86013072 4.57431373,6.66986928 4.48856209,6.55196078 C4.26078431,6.69934641 4.05176471,6.77437908 3.85614379,6.77437908 C3.83470588,6.77437908 3.82398693,6.76633987 3.8079085,6.76633987 C3.81058824,6.80921569 3.81594771,6.84941176 3.82666667,6.88960784 L3.86418301,7.00751634 L3.75431373,7.00751634 C3.52117647,7.00751634 2.89679739,7.06379085 2.7520915,7.32104575 C2.70921569,7.39607843 2.71189542,7.48718954 2.76281046,7.59973856 L2.80568627,7.69620915 L2.71457516,7.72568627 C2.71457516,7.72568627 2.09287582,7.91862745 1.90261438,8.30183007 C1.84633987,8.42777778 1.83294118,8.55372549 1.87849673,8.6930719 L1.8972549,8.76006536 L1.84901961,8.7975817 C1.82490196,8.80830065 1.36666667,9.1379085 1.54352941,9.89359477 L1.55424837,9.93111111 L1.53013072,9.96594771 C1.52745098,9.97398693 0.970065359,10.8020261 1.28091503,11.2147059 C1.51673203,11.1289542 2.02052288,10.8904575 2.13039216,10.5876471 L2.13843137,10.5688889 L2.15183007,10.5528105 C2.15718954,10.547451 2.59398693,10.1294118 2.9530719,9.43267974 L2.97718954,9.37908497 L3.03346405,9.38712418 C3.03614379,9.38980392 3.04954248,9.38980392 3.07901961,9.38980392 C3.22908497,9.38980392 3.61496732,9.31745098 3.92849673,8.65019608 L3.96869281,8.55908497 L4.04640523,8.62071895 C4.04908497,8.62339869 4.09196078,8.65287582 4.17235294,8.65287582 C4.24470588,8.65287582 4.36797386,8.62339869 4.52607843,8.47065359 C4.54751634,8.45189542 4.57431373,8.42509804 4.59575163,8.39830065 C4.67346405,8.30986928 4.76189542,8.18928105 4.85300654,8.03385621 L4.92,7.91862745 L4.95751634,7.98294118 L4.99503268,8.03921569 C4.99771242,8.04457516 5.06470588,8.14640523 5.24960784,8.14640523 C5.4345098,8.14640523 5.65960784,8.04993464 5.93294118,7.85699346 C6.01065359,7.76856209 6.63771242,7.06647059 7.20581699,6.59215686 C7.28620915,6.5251634 7.36392157,6.46352941 7.43895425,6.4072549 C7.48986928,6.3724183 7.54078431,6.33490196 7.58901961,6.30810458 C7.58098039,6.3027451 7.57026144,6.3027451 7.57026144,6.3027451 C7.52202614,6.30542484 7.4845098,6.30810458 7.44431373,6.31614379 Z"/>
        <path d="M1.23535948,7.23529412 L1.25679739,7.2272549 C1.25947712,7.22457516 1.79006536,7.07986928 2.27777778,6.67522876 L2.31797386,6.63771242 L2.36352941,6.6645098 C2.36352941,6.6645098 2.51091503,6.75294118 2.73065359,6.75294118 C2.96915033,6.75294118 3.20228758,6.65647059 3.41934641,6.46352941 L3.47830065,6.40993464 L3.53189542,6.47424837 C3.53457516,6.47424837 3.58281046,6.53320261 3.67928105,6.56803922 C3.70339869,6.57875817 3.73287582,6.58411765 3.7596732,6.59215686 C3.78647059,6.59751634 3.81326797,6.60019608 3.8427451,6.60287582 L3.86150327,6.60287582 C4.04372549,6.60287582 4.24738562,6.52248366 4.4751634,6.36169935 L4.55555556,6.30542484 L4.58503268,6.40457516 C4.59039216,6.4072549 4.70830065,6.69130719 5.2951634,6.69130719 C5.38627451,6.69130719 5.48006536,6.68594771 5.58457516,6.66986928 C5.68372549,6.63771242 6.4420915,6.34294118 7.09594771,6.20359477 C7.17098039,6.18751634 7.23797386,6.17411765 7.3103268,6.16339869 C7.30764706,6.16071895 7.30228758,6.15803922 7.2969281,6.15803922 C7.0879085,6.07496732 6.85477124,5.99993464 6.64039216,5.93830065 C6.28130719,5.83915033 5.98653595,5.76947712 5.98653595,5.76947712 L5.9624183,5.76411765 C5.3996732,5.49078431 5.27372549,5.17993464 5.24960784,5.01915033 C5.01379085,5.01647059 4.84496732,4.96555556 4.72973856,4.89320261 L4.69490196,4.87980392 C4.69222222,4.87980392 4.29026144,4.72437908 3.97941176,4.72437908 C3.8427451,4.72437908 3.74359477,4.75385621 3.69535948,4.81281046 C3.66052288,4.85568627 3.64980392,4.91732026 3.65784314,5.00039216 L3.67392157,5.1424183 L3.54797386,5.08882353 C3.54529412,5.08614379 3.01738562,4.86640523 2.67169935,4.86640523 C2.55915033,4.86640523 2.47875817,4.89320261 2.44928105,4.93875817 C2.42248366,4.97359477 2.42248366,5.03254902 2.44124183,5.11562092 L2.47607843,5.24424837 L2.35281046,5.22281046 C2.35281046,5.22281046 2.18934641,5.19601307 1.99640523,5.19601307 C1.69627451,5.19601307 1.48457516,5.2603268 1.38810458,5.37823529 C1.3345098,5.43986928 1.31843137,5.5175817 1.33183007,5.61673203 L1.33718954,5.70248366 L1.25947712,5.71320261 C1.24071895,5.71856209 0.731568627,5.78287582 0.755686275,6.43405229 L0.755686275,6.4903268 L0.710130719,6.51444444 C0.70745098,6.51712418 0.262614379,6.77973856 0.182222222,7.10934641 C0.160784314,7.20581699 0.174183007,7.2969281 0.219738562,7.38803922 C0.289411765,7.39607843 0.431437908,7.41215686 0.592222222,7.41215686 C0.905751634,7.41215686 1.1254902,7.36124183 1.21124183,7.25673203 L1.23535948,7.23529412 Z"/>
        <path d="M7.58901961,6.07228758 C7.5327451,6.00529412 7.46575163,5.93294118 7.40143791,5.86058824 C7.05843137,5.50418301 6.61895425,5.15045752 6.61091503,5.14509804 L6.60019608,5.13169935 C6.26522876,4.70294118 6.26522876,4.41352941 6.29470588,4.27686275 C5.88738562,4.05980392 5.83647059,3.78379085 5.83647059,3.64712418 C5.6569281,3.57477124 5.53633987,3.47026144 5.45058824,3.36575163 C5.44522876,3.36575163 5.4345098,3.3630719 5.4345098,3.3630719 C5.38627451,3.3630719 5.33267974,3.37647059 5.29248366,3.47830065 L5.23888889,3.60960784 L5.15849673,3.49437908 C4.98163399,3.24784314 4.63594771,2.85928105 4.46176471,2.85928105 C4.4403268,2.85928105 4.3920915,2.85928105 4.36529412,2.98254902 L4.33045752,3.11653595 L4.23398693,3.02810458 C4.22594771,3.0227451 3.83738562,2.66901961 3.55601307,2.66901961 C3.45686275,2.66901961 3.38718954,2.7172549 3.34699346,2.81908497 L3.31751634,2.90215686 L3.23980392,2.86464052 C3.23980392,2.86464052 3.15405229,2.81908497 3.04150327,2.81908497 C2.85392157,2.81908497 2.70921569,2.93163399 2.59666667,3.14333333 L2.57522876,3.19156863 L2.52163399,3.18888889 C2.52163399,3.18888889 2.50823529,3.18888889 2.48411765,3.18888889 C2.38764706,3.18888889 2.05535948,3.19960784 1.90529412,3.37379085 C1.85705882,3.42738562 1.83026144,3.49169935 1.83026144,3.57477124 C1.98300654,3.69803922 2.32333333,3.9472549 2.53503268,3.9472549 C2.55647059,3.9472549 2.57254902,3.94457516 2.59130719,3.93921569 L2.6127451,3.93385621 L2.63150327,3.93921569 C2.63686275,3.94189542 2.92895425,4.03836601 3.32287582,4.03836601 C3.41398693,4.03836601 3.50777778,4.0303268 3.59352941,4.02228758 L3.64712418,4.01960784 L3.67660131,4.06784314 C3.68464052,4.08392157 3.8775817,4.42960784 4.35189542,4.42960784 C4.4054902,4.42960784 4.46176471,4.4269281 4.51535948,4.41620915 L4.58771242,4.4054902 L4.60379085,4.48856209 C4.60915033,4.49392157 4.62522876,4.58503268 4.71901961,4.67614379 C4.73777778,4.69222222 4.76457516,4.71098039 4.79137255,4.72973856 C4.83960784,4.76189542 4.90392157,4.78869281 4.97627451,4.81013072 C5.00039216,4.8154902 5.0245098,4.82084967 5.04862745,4.82620915 C5.12633987,4.83960784 5.22013072,4.84764706 5.32196078,4.84496732 L5.36215686,4.84228758 L5.42111111,4.83960784 L5.41843137,4.86640523 L5.40235294,4.94411765 C5.40235294,4.94411765 5.40235294,4.94679739 5.40235294,4.95215686 C5.40235294,5.00039216 5.42379085,5.30856209 6.01869281,5.59797386 C6.10444444,5.61673203 6.67254902,5.74267974 7.17633987,5.92490196 C7.33176471,5.98117647 7.47915033,6.04013072 7.6024183,6.10444444 C7.6024183,6.09908497 7.59973856,6.09640523 7.59705882,6.09104575 C7.59705882,6.08300654 7.59437908,6.07764706 7.58901961,6.07228758 Z"/>
        <path d="M6.94588235 3.06294118C6.91640523 3.06294118 6.89228758 3.08169935 6.85477124 3.10849673L6.75562092 3.20228758 6.72882353 3.06026144C6.65111111 2.69313725 6.49836601 2.30189542 6.38849673 2.30189542 6.36169935 2.30189542 6.3375817 2.32333333 6.30810458 2.35816993L6.22771242 2.46267974 6.17143791 2.33941176C6.10980392 2.19202614 5.8927451 1.77934641 5.69980392 1.77934641 5.6569281 1.77934641 5.61941176 1.79542484 5.58457516 1.83294118L5.52026144 1.89189542 5.46934641 1.82222222C5.46934641 1.82222222 5.35143791 1.6748366 5.17189542 1.6748366 5.08346405 1.6748366 4.9896732 1.71503268 4.89856209 1.78738562L4.85568627 1.81954248 4.81281046 1.7927451C4.80745098 1.79006536 4.60111111 1.66947712 4.41084967 1.66947712 4.29294118 1.66947712 4.21522876 1.71503268 4.1696732 1.80346405 4.27418301 2.02052288 4.4751634 2.34477124 4.61986928 2.37424837L4.64130719 2.37960784 4.6627451 2.39568627C4.66810458 2.40104575 4.9548366 2.6824183 5.37019608 2.8351634L5.41843137 2.85124183 5.42647059 2.90751634C5.42647059 2.91823529 5.43986928 3.05490196 5.53633987 3.1969281 5.61137255 3.30679739 5.74 3.42470588 5.94633987 3.49705882L5.97045752 3.50509804 6.02137255 3.52385621 6.01333333 3.55065359 5.9972549 3.60424837C5.9972549 3.6069281 5.99457516 3.62568627 5.9972549 3.65784314 5.9972549 3.71947712 6.02137255 3.82934641 6.13392157 3.94457516 6.19823529 4.01156863 6.29202614 4.08124183 6.42869281 4.14555556L6.50104575 4.17771242 6.51980392 4.18575163 6.51712418 4.19647059 6.46620915 4.27418301C6.46620915 4.27686275 6.33490196 4.51535948 6.72078431 5.0030719 6.77169935 5.04326797 7.04235294 5.26568627 7.31836601 5.53098039 7.38803922 5.59261438 7.44699346 5.6569281 7.50862745 5.72124183 7.5675817 5.78287582 7.62117647 5.84183007 7.67477124 5.90346405 7.66137255 5.87398693 7.65601307 5.83915033 7.64529412 5.80163399 7.43895425 5.12098039 7.0879085 3.86686275 6.94588235 3.06294118zM8.48673203 3.06830065C8.49477124 3.0227451 8.50013072 2.97718954 8.50816993 2.93431373 8.54836601 2.70385621 8.56712418 2.54039216 8.55372549 2.47339869L8.48673203 2.47339869 8.49477124 2.3769281C8.55104575 1.77398693 8.51084967 1.27019608 8.39294118 1.12281046 8.36882353 1.09601307 8.34738562 1.09333333 8.33398693 1.09333333 8.31522876 1.09333333 8.29647059 1.10137255 8.27235294 1.1120915L8.18124183 1.16568627 8.15712418 1.05313725C8.06333333.578823529 7.89986928.305490196 7.79.174183007 7.68816993.308169935 7.51666667.578823529 7.42287582 1.05313725L7.40411765 1.16568627 7.30764706 1.1120915C7.28352941 1.10137255 7.26745098 1.09333333 7.24869281 1.09333333 7.24869281 1.09333333 7.21117647 1.09601307 7.18973856 1.12281046 7.06915033 1.27019608 7.02627451 1.77398693 7.08522876 2.3769281L7.09594771 2.47339869 7.03699346 2.47339869C7.01823529 2.54039216 7.0396732 2.70653595 7.07718954 2.93431373 7.07986928 2.97718954 7.09058824 3.0227451 7.10130719 3.06830065 7.11202614 3.13529412 7.13078431 3.21300654 7.14418301 3.29071895 7.26477124 3.86150327 7.46843137 4.65202614 7.69620915 5.45326797 7.70156863 5.47202614 7.7069281 5.48810458 7.71496732 5.50418301 7.73640523 5.58189542 7.75784314 5.6569281 7.78196078 5.73732026 7.78732026 5.74535948 7.78732026 5.75607843 7.78732026 5.76679739 7.79267974 5.75607843 7.79803922 5.74535948 7.79803922 5.73464052 7.81947712 5.65424837 7.84091503 5.57921569 7.86503268 5.50150327 7.87039216 5.4827451 7.87575163 5.46666667 7.88111111 5.4479085 8.10888889 4.64934641 8.31254902 3.85614379 8.43581699 3.28535948 8.4572549 3.21300654 8.47333333 3.13529412 8.48673203 3.06830065zM10.3491503 19.1226144L8.20803922 19.1226144 8.61803922 17.1208497 8.25895425 16.7644444 8.71986928 14.944902 8.36078431 14.7626797 8.83509804 12.7743137 8.40098039 12.4581046 8.78150327 10.7591503 8.34470588 10.5179739 8.61535948 9.00928105 8.25627451 8.77078431 8.30986928 7.14418301C8.30986928 7.14418301 8.16248366 6.63503268 7.79 6.32686275L7.79 6.32686275 7.79 6.32686275C7.4496732 6.61091503 7.29424837 7.07183007 7.27281046 7.13614379L7.27013072 7.14418301 7.32908497 8.77078431 6.96732026 9.00928105 7.23797386 10.5179739 6.80117647 10.7591503 7.18437908 12.4581046 6.75026144 12.7743137 7.22993464 14.7626797 6.86816993 14.944902 7.32908497 16.7644444 6.97 17.1208497 7.43359477 19.1360131 5.24424837 19.1360131C5.24424837 19.1360131 4.96287582 19.2566013 5.05666667 19.4683007 5.14777778 19.6826797 6.26522876 20.8028105 6.36169935 20.7465359 6.45013072 20.6983007 6.45013072 20.2695425 6.51712418 20.1891503 6.55732026 20.1355556 6.8869281 20.6286275 7.09862745 20.7492157 7.09862745 20.7492157 7.45503268 20.4919608 7.79 20.2802614 8.11960784 20.489281 8.34738562 20.7492157 8.34738562 20.7492157 8.56444444 20.6286275 9.03339869 20.1275163 9.08163399 20.1784314 9.1379085 20.2588235 9.1379085 20.684902 9.23169935 20.7384967 9.3254902 20.7894118 10.4456209 19.6719608 10.5394118 19.4575817 10.6278431 19.2432026 10.3491503 19.1226144 10.3491503 19.1226144z"/>
      </g>
      <path d="M7.6024183,20.1650327 C6.06424837,19.2994771 2.68777778,18.3213725 -3.55271368e-15,19.3262745 C-3.55271368e-15,19.3262745 3.58013072,19.0207843 8.32862745,22.1748366 C11.8739216,24.5330065 15.3039869,27.869281 15.9551634,28.5177778 L16.9171895,27.5745098 C13.1012418,23.4959477 9.12986928,21.0279085 7.6024183,20.1650327 Z"/>
      <path d="M21.5477778 28.1265359C21.5477778 28.1265359 21.0466667 27.5450327 20.4758824 28.1184967 19.9747712 28.6142484 19.6317647 28.7723529 19.1440523 28.7777124 18.4955556 28.7884314 17.6835948 28.4105882 17.4933333 27.992549 17.4933333 27.992549 17.4370588 27.8398039 17.5335294 27.6870588 17.6701961 27.7192157 17.8336601 27.6816993 17.9542484 27.5718301 18.1445098 27.4030065 18.1820261 27.1243137 18.0319608 26.9554902 17.8738562 26.7813072 17.6005229 26.7813072 17.404902 26.9501307 17.2494771 27.0867974 17.1985621 27.2931373 17.2628758 27.459281 17.2467974 27.5101961 17.2146405 27.5611111 17.1556863 27.6066667 17.1610458 27.5718301 17.1556863 27.5396732 17.1262092 27.5101961 17.0860131 27.47 17.0243791 27.47 16.984183 27.5101961L16.9145098 27.5771895 15.9524837 28.5204575 15.7943791 28.6732026C15.754183 28.710719 15.754183 28.7750327 15.7943791 28.8152288 15.8077778 28.8286275 15.8211765 28.8393464 15.8426144 28.8420261 15.8265359 28.8447059 15.8131373 28.8527451 15.7997386 28.8554248 15.6818301 28.8500654 15.5505229 28.8929412 15.4486928 28.9813725 15.2530719 29.1528758 15.220915 29.4288889 15.3736601 29.6030719 15.5210458 29.7745752 15.805098 29.7745752 15.9953595 29.6057516 16.1213072 29.4958824 16.1802614 29.3404575 16.1615033 29.1930719 16.1829412 29.1019608 16.2204575 29.0028105 16.276732 28.9760131 16.3866013 28.9197386 16.4723529 28.9786928 16.5902614 29.1153595 16.9145098 29.5012418 18.1793464 30.3614379 19.5781699 30.3319608 20.7224183 30.3105229 22.3383007 29.2707843 21.5477778 28.1265359zM19.7791503 20.1650327C21.3146405 19.2994771 24.6937908 18.3213725 27.3762092 19.3262745 27.3762092 19.3262745 23.7987582 19.0207843 19.0529412 22.1748366 15.5076471 24.5330065 12.0829412 27.869281 11.4264052 28.5177778L10.4670588 27.5745098C14.2830065 23.4959477 18.2490196 21.0279085 19.7791503 20.1650327z"/>
      <path d="M5.83647059,28.1265359 C5.83647059,28.1265359 6.3375817,27.5450327 6.91104575,28.1184967 C7.41215686,28.6142484 7.74980392,28.7723529 8.24287582,28.7777124 C8.88333333,28.7884314 9.69529412,28.4105882 9.88555556,27.992549 C9.88555556,27.992549 9.9445098,27.8398039 9.84535948,27.6870588 C9.70869281,27.7192157 9.55058824,27.6816993 9.42464052,27.5718301 C9.23169935,27.4030065 9.19954248,27.1243137 9.35228758,26.9554902 C9.50235294,26.7813072 9.78372549,26.7813072 9.97398693,26.9501307 C10.1320915,27.0867974 10.1830065,27.2931373 10.1133333,27.459281 C10.1347712,27.5101961 10.1669281,27.5611111 10.2205229,27.6066667 C10.2178431,27.5718301 10.2232026,27.5396732 10.2473203,27.5101961 C10.2901961,27.47 10.3518301,27.47 10.3920261,27.5101961 L10.4590196,27.5771895 L11.418366,28.5204575 L11.5791503,28.6758824 C11.6193464,28.7133987 11.6193464,28.7777124 11.5791503,28.8179085 C11.5657516,28.8313072 11.5496732,28.8420261 11.5362745,28.8447059 C11.5443137,28.8473856 11.5603922,28.8554248 11.5737908,28.8581046 C11.6943791,28.8527451 11.8230065,28.8956209 11.9248366,28.9840523 C12.1177778,29.1555556 12.1499346,29.4315686 11.9998693,29.6057516 C11.8471242,29.7772549 11.5684314,29.7772549 11.3754902,29.6084314 C11.2468627,29.4985621 11.1905882,29.3431373 11.2066667,29.1957516 C11.1905882,29.1046405 11.1477124,29.0054902 11.0887582,28.9786928 C10.9842484,28.9224183 10.8931373,28.9813725 10.7779085,29.1180392 C10.4563399,29.5039216 9.18882353,30.3641176 7.79803922,30.3346405 C6.65915033,30.3105229 5.0379085,29.2707843 5.83647059,28.1265359 Z"/>
    </g>
  </g>
</svg>
