<svg width="112" height="80" viewBox="0 0 112 80" fill="none" xmlns="http://www.w3.org/2000/svg">
<path d="M13.3786 49.4332C14.981 50.3731 16.7812 50.843 18.799 50.843C20.8169 50.843 21.4895 50.5774 22.6962 50.0257C23.903 49.474 24.8526 48.7385 25.5252 47.819V50.0053C25.5252 51.6604 25.0108 52.9681 24.0019 53.9488C22.993 54.9296 21.5884 55.42 19.8277 55.42C18.0671 55.42 17.3549 55.1544 16.5043 54.6436C15.7723 54.194 15.2382 53.581 14.8821 52.825H9.42203C9.69899 54.1736 10.2529 55.3587 11.0838 56.3395C11.9938 57.4224 13.1808 58.2806 14.6645 58.8527C16.1482 59.4453 17.8099 59.7313 19.6497 59.7313C21.4895 59.7313 23.8436 59.3227 25.545 58.5258C27.2463 57.7289 28.5717 56.5847 29.5213 55.0726C30.4709 53.5606 30.9456 51.783 30.9456 49.7192V28.4486H27.6024C26.455 28.4486 25.5252 29.409 25.5252 30.5941V30.9619C24.7932 30.0832 23.8239 29.409 22.6567 28.8777C21.4697 28.3669 20.1641 28.1013 18.7199 28.1013C17.2758 28.1013 14.9216 28.5712 13.339 29.5316C11.7564 30.4919 10.5299 31.82 9.65943 33.5568C8.7692 35.2732 8.33398 37.296 8.33398 39.5845C8.33398 41.873 8.7692 43.7937 9.65943 45.4692C10.5497 47.1447 11.796 48.4728 13.3786 49.3923V49.4332ZM14.5062 36.0905C15.0008 35.0893 15.7129 34.2924 16.6032 33.7407C17.4934 33.189 18.5221 32.903 19.6695 32.903C20.8169 32.903 21.7862 33.189 22.6765 33.7407C23.5667 34.2924 24.2789 35.0893 24.7734 36.0905C25.268 37.0917 25.5252 38.236 25.5252 39.5028C25.5252 40.7696 25.2878 41.8526 24.7932 42.8742C24.2986 43.8754 23.6063 44.6723 22.6962 45.224C21.7862 45.7757 20.7773 46.0617 19.6497 46.0617C18.5221 46.0617 17.4934 45.7961 16.5834 45.2444C15.6932 44.6927 14.981 43.9163 14.4864 42.8947C13.9918 41.873 13.7347 40.7288 13.7347 39.4619C13.7347 38.1951 13.9918 37.1122 14.4864 36.0905H14.5062ZM81.0355 26.6097C82.7962 26.6097 84.2205 25.1385 84.2205 23.32C84.2205 21.5014 82.7962 20.0303 81.0355 20.0303C79.2749 20.0303 77.8505 21.5014 77.8505 23.32C77.8505 25.1385 79.2749 26.6097 81.0355 26.6097ZM78.3055 32.0448V51.7625H83.726V28.469H81.7675C79.8485 28.469 78.3055 30.0628 78.3055 32.0448ZM69.8583 46.8791C69.2252 47.3694 68.3746 47.6146 67.2865 47.6146C66.1985 47.6146 65.0708 47.3082 64.3389 46.6952C63.6069 46.0822 63.1915 45.224 63.1321 44.1206H57.8699C57.9491 45.7144 58.4041 47.1243 59.2152 48.3094C60.0262 49.4945 61.1341 50.4344 62.5189 51.1087C63.9037 51.783 65.4863 52.1099 67.2865 52.1099C69.0867 52.1099 70.4715 51.8034 71.8168 51.1904C73.1422 50.5774 74.1709 49.7192 74.9226 48.6363C75.6546 47.5533 76.0305 46.2661 76.0305 44.7949C76.0305 43.3237 75.6348 41.6891 74.8633 40.7083C74.0918 39.7276 73.162 39.0124 72.0937 38.5833C71.0254 38.1542 69.6604 37.7251 67.9987 37.3369C66.97 37.1122 66.1589 36.8874 65.605 36.6831C65.0313 36.4787 64.5763 36.2131 64.2004 35.8862C63.8245 35.5593 63.6465 35.1302 63.6465 34.558C63.6465 33.9859 63.9234 33.3934 64.4576 32.9847C64.9917 32.5761 65.7237 32.3717 66.6139 32.3717C67.5041 32.3717 68.5526 32.6374 69.245 33.189C69.9374 33.7407 70.3528 34.4559 70.4913 35.3549H75.6348C75.5359 33.8633 75.1007 32.5965 74.3292 31.5135C73.5576 30.4306 72.5289 29.5929 71.1837 29.0003C69.8583 28.4077 68.2954 28.1217 66.4952 28.1217C64.695 28.1217 63.5476 28.4077 62.3211 28.9799C61.0747 29.552 60.1449 30.3489 59.4921 31.3705C58.8393 32.3922 58.5228 33.5364 58.5228 34.8032C58.5228 36.0701 58.8986 37.623 59.6306 38.5425C60.3626 39.4619 61.233 40.1362 62.2419 40.5449C63.2508 40.9535 64.5565 41.3418 66.1985 41.7504C67.2667 42.0569 68.0976 42.3225 68.7109 42.5269C69.3241 42.7312 69.8385 43.0377 70.2341 43.4055C70.6496 43.7937 70.8474 44.2841 70.8474 44.8971C70.8474 45.5101 70.5309 46.3682 69.9176 46.8586L69.8583 46.8791ZM51.1042 29.6746C49.3238 28.6529 47.2862 28.1421 45.0112 28.1421C42.7362 28.1421 40.6985 28.6529 38.9181 29.6746C37.1376 30.6962 35.7528 32.1265 34.7439 33.9451C33.735 35.7636 33.2404 37.8273 33.2404 40.1362C33.2404 42.4451 33.735 44.4884 34.7439 46.3274C35.7528 48.1459 37.1376 49.5762 38.9181 50.5978C40.6985 51.6195 42.7362 52.1303 45.0112 52.1303C47.2862 52.1303 49.3238 51.6195 51.1042 50.5978C52.8847 49.5762 54.2695 48.1459 55.2784 46.3274C56.2873 44.5088 56.7819 42.4451 56.7819 40.1362C56.7819 37.8273 56.2873 35.784 55.2784 33.9451C54.2695 32.1265 52.8847 30.6962 51.1042 29.6746ZM50.5108 43.8959C49.9766 44.9788 49.2249 45.8166 48.2951 46.4091C47.3653 47.0017 46.2377 47.3082 45.0112 47.3082C43.7846 47.3082 42.6768 47.0017 41.7272 46.4091C40.7974 45.8166 40.0457 44.9584 39.5116 43.8959C38.9774 42.8129 38.7005 41.5665 38.7005 40.1362C38.7005 38.7059 38.9774 37.4595 39.5116 36.3766C40.0457 35.2936 40.7974 34.4559 41.7272 33.8633C42.657 33.2708 43.7846 32.9643 45.0112 32.9643C46.2377 32.9643 47.3455 33.2708 48.2951 33.8633C49.2249 34.4559 49.9766 35.3141 50.5108 36.3766C51.0449 37.4595 51.3219 38.7059 51.3219 40.1362C51.3219 41.5665 51.0449 42.8129 50.5108 43.8959Z" fill="#00004E"/>
<path d="M103.886 40.1155L93.5993 50.7406C93.0454 51.3944 92.2541 51.7622 91.4232 51.7622H89.168C89.168 46.7357 93.9158 42.3631 97.9119 40.1155C93.9158 37.8679 89.168 33.4952 89.168 28.4688H91.4232C92.2541 28.4688 93.0454 28.8365 93.5993 29.4904L103.886 40.1155Z" fill="#00BF00"/>
</svg>
