<svg xmlns="http://www.w3.org/2000/svg" version="1.1" xmlns:xlink="http://www.w3.org/1999/xlink" width="79" height="73"><svg width="79" height="73" viewBox="0 0 79 73" fill="none" xmlns="http://www.w3.org/2000/svg">
<path d="M47.1163 51.6989C46.3354 50.5043 45.5717 49.3097 44.7678 48.1441C44.6759 48.0165 44.3199 47.9702 44.1304 48.0281C40.042 49.2575 36.0512 49.0024 32.2672 47.0191C27.3979 44.4618 24.5326 40.3734 23.8378 34.8644C22.8214 26.8328 27.8802 19.5144 35.701 17.5601C44.5094 15.3565 53.4785 21.3817 54.8337 30.4281C55.5514 35.2355 54.3226 39.5036 51.2563 43.2382C50.9635 43.5919 50.9405 43.8239 51.1989 44.195C51.9454 45.2794 52.6459 46.3986 53.4154 47.57C53.5934 47.4134 53.7427 47.2975 53.869 47.1699C55.2758 45.7433 56.4357 44.1312 57.3372 42.3393C58.055 40.9244 59.1575 40.1531 60.7366 40.1125C61.2706 40.0951 61.6209 39.8747 61.7759 39.3412C61.9367 38.7961 61.6553 38.4946 61.2534 38.2162C58.6407 36.3663 58.9393 32.7304 61.8218 31.3212C62.2697 31.1008 62.5798 30.8225 62.5109 30.2832C62.442 29.7207 62.063 29.5061 61.5519 29.4017C59.4733 28.9842 58.1354 27.0879 58.434 24.9945C58.7268 22.9358 60.5413 21.4977 62.6717 21.6427C64.6355 21.776 66.2433 23.5621 66.2031 25.615C66.1801 26.8966 65.6403 27.9346 64.6297 28.7174C63.7397 29.4017 63.912 30.8457 64.9398 31.3154C66.4902 32.0287 67.4032 33.548 67.2768 35.2123C67.1505 36.8708 66.0251 38.2278 64.3828 38.7033C63.2287 39.0339 62.8095 40.443 63.5732 41.3593C64.6469 42.6583 64.8594 44.1254 64.0842 45.61C59.9556 53.514 53.5704 58.5765 44.8941 60.3278C35.7239 62.1777 27.5185 59.8407 20.5763 53.4908C15.7529 49.0778 12.9278 43.5165 11.9516 37.0042C11.3717 33.1189 11.6186 29.2857 12.6464 25.5048C13.1115 23.7883 14.2772 22.8025 16.0285 22.5995C17.0104 22.4835 17.4985 21.3469 16.9185 20.5176C15.282 18.1748 16.3271 15.0724 19.0144 14.3591C19.8413 14.1387 20.6911 14.1561 21.4893 14.5157C22.0462 14.7708 22.4195 14.5215 22.8042 14.1735C23.1832 13.8314 23.4588 13.5182 23.321 12.9093C22.7468 10.3984 24.4522 8.09037 27.0017 8.03238C29.2296 7.98019 30.8317 9.60971 30.9408 11.6916C31.0613 14.0054 29.4421 15.8204 27.3118 15.8784C26.5021 15.9016 25.7557 15.7451 25.0666 15.3159C24.6245 15.0376 24.2225 15.0782 23.8378 15.4261C23.4645 15.7625 23.4416 16.1394 23.6138 16.6033C24.6704 19.468 22.8042 22.1066 19.7896 22.037C19.7494 22.037 19.7092 22.037 19.6747 22.037C19.2096 21.9906 18.756 21.9906 18.5206 22.5067C18.2852 23.0228 18.5952 23.3534 18.9225 23.6955C19.9159 24.7219 20.2432 25.9455 19.9217 27.3489C19.7436 28.1143 19.5484 28.8856 19.4336 29.6627C18.5263 35.5835 19.8987 40.936 23.5679 45.6216C27.0304 50.052 31.6126 52.5572 37.171 53.2125C40.4152 53.5952 43.5734 53.2009 46.6282 52.0063C46.7545 51.9541 46.8809 51.9077 47.0072 51.8497C47.0416 51.8323 47.0589 51.7917 47.145 51.6931L47.1163 51.6989ZM31.1819 32.9101C31.1705 37.4334 34.8626 41.1853 39.353 41.2085C43.8261 41.2259 47.5527 37.4855 47.5642 32.9507C47.5757 28.4159 43.8835 24.6697 39.3931 24.6639C34.8971 24.6581 31.1992 28.3695 31.1819 32.9159V32.9101Z" fill="#3F5397"></path>
<path d="M39.968 72.6449C28.8685 72.4071 19.6295 68.8582 12.0039 61.3832C5.84265 55.3465 2.0184 48.0107 0.669002 39.4456C-1.00769 28.8218 1.19728 19.0505 7.20352 10.149C7.92703 9.07618 8.77687 8.21793 10.1148 8.06715C10.5741 8.01496 11.0565 8.03816 11.5101 8.12514C12.8652 8.3861 13.6749 7.47565 13.2442 6.13608C12.4403 3.64251 14.2319 1.06775 16.8216 0.998163C18.4121 0.951771 19.8534 1.87381 20.5195 3.36416C21.1396 4.75592 20.8468 6.48402 19.8017 7.61483C18.7107 8.79203 17.0398 9.20956 15.5468 8.60066C14.9783 8.3687 14.5477 8.3745 14.1285 8.85002C13.8069 9.21536 13.7151 9.57489 13.939 10.033C14.651 11.5002 14.4845 12.8745 13.5371 14.2083C10.3445 18.6967 8.3864 23.6955 7.81219 29.1813C6.79583 38.9527 9.52334 47.5642 16.1268 54.8072C21.2602 60.4438 27.6799 63.7028 35.1963 64.7235C51.5556 66.9445 66.9789 56.0423 70.3897 39.8051C70.8376 37.6769 70.9696 35.4733 71.1764 33.2928C71.406 30.9268 72.9564 29.4771 75.2533 29.5873C77.24 29.6801 78.7272 31.4314 78.6583 33.664C78.5607 36.9694 78.1358 40.2342 77.2515 43.4295C73.2378 57.985 61.6961 68.8292 47.0078 71.8562C46.2039 72.0244 45.3886 72.1636 44.5732 72.2448C42.862 72.4187 41.1451 72.5463 39.9508 72.6449H39.968Z" fill="#516FDB"></path>
<mask id="SvgjsMask1005" style="mask-type:alpha" maskUnits="userSpaceOnUse" x="21" y="11" width="37" height="41">
<path d="M45.936 51.8473C50.9931 51.3826 53.3509 48.1228 53.8976 46.551L57.1985 31.1548L55.7073 12.0328H41.7606L27.8139 18.6992L21.5859 29.3127V37.2071L25.7963 44.3121L33.1644 48.961C35.3145 50.1167 40.8788 52.3121 45.936 51.8473Z" fill="#D9D9D9" stroke="black" stroke-width="0.13171"></path>
</mask>
<g mask="url(#mask0_2271_23579)">
<path d="M47.1163 51.6954C46.3354 50.5008 45.5717 49.3062 44.7678 48.1406C44.6759 48.0131 44.3199 47.9667 44.1304 48.0247C40.042 49.2541 36.0512 48.9989 32.2672 47.0156C27.3979 44.4583 24.5326 40.37 23.8378 34.8609C22.8214 26.8293 27.8802 19.5109 35.701 17.5567C44.5094 15.353 53.4785 21.3782 54.8337 30.4247C55.5514 35.232 54.3226 39.5001 51.2563 43.2347C50.9635 43.5884 50.9405 43.8204 51.1989 44.1915C51.9454 45.2759 52.6459 46.3951 53.4154 47.5665C53.5934 47.41 53.7427 47.294 53.869 47.1664C55.2758 45.7399 56.4357 44.1277 57.3372 42.3358C58.055 40.9209 59.1575 40.1496 60.7366 40.109C61.2706 40.0916 61.6209 39.8713 61.7759 39.3377C61.9367 38.7926 61.6553 38.4911 61.2534 38.2127C58.6407 36.3629 58.9393 32.7269 61.8218 31.3177C62.2697 31.0974 62.5798 30.819 62.5109 30.2797C62.442 29.7172 62.063 29.5026 61.5519 29.3982C59.4733 28.9807 58.1354 27.0844 58.434 24.991C58.7268 22.9324 60.5413 21.4942 62.6717 21.6392C64.6355 21.7725 66.2433 23.5586 66.2031 25.6115C66.1801 26.8931 65.6403 27.9311 64.6297 28.714C63.7397 29.3982 63.912 30.8422 64.9398 31.3119C66.4902 32.0252 67.4032 33.5445 67.2768 35.2089C67.1505 36.8674 66.0251 38.2243 64.3828 38.6999C63.2287 39.0304 62.8095 40.4396 63.5732 41.3558C64.6469 42.6548 64.8594 44.1219 64.0842 45.6065C59.9556 53.5105 53.5704 58.5731 44.8941 60.3244C35.7239 62.1742 27.5185 59.8372 20.5763 53.4873C15.7529 49.0743 12.9278 43.513 11.9516 37.0007C11.3717 33.1154 11.6186 29.2823 12.6464 25.5013C13.1115 23.7848 14.2772 22.799 16.0285 22.596C17.0104 22.48 17.4985 21.3434 16.9185 20.5142C15.282 18.1714 16.3271 15.0689 19.0144 14.3556C19.8413 14.1353 20.6911 14.1527 21.4893 14.5122C22.0462 14.7673 22.4195 14.518 22.8042 14.17C23.1832 13.8279 23.4588 13.5148 23.321 12.9059C22.7468 10.3949 24.4522 8.08689 27.0017 8.0289C29.2296 7.97671 30.8317 9.60623 30.9408 11.6881C31.0613 14.0019 29.4421 15.817 27.3118 15.875C26.5021 15.8982 25.7557 15.7416 25.0666 15.3125C24.6245 15.0341 24.2225 15.0747 23.8378 15.4226C23.4645 15.759 23.4416 16.1359 23.6138 16.5998C24.6704 19.4645 22.8042 22.1031 19.7896 22.0335C19.7494 22.0335 19.7092 22.0335 19.6747 22.0335C19.2096 21.9871 18.756 21.9871 18.5206 22.5032C18.2852 23.0193 18.5952 23.3499 18.9225 23.692C19.9159 24.7184 20.2432 25.942 19.9217 27.3454C19.7436 28.1109 19.5484 28.8821 19.4336 29.6592C18.5263 35.58 19.8987 40.9325 23.5679 45.6181C27.0304 50.0485 31.6126 52.5537 37.171 53.209C40.4152 53.5917 43.5734 53.1974 46.6282 52.0028C46.7545 51.9506 46.8809 51.9042 47.0072 51.8462C47.0416 51.8288 47.0589 51.7882 47.145 51.6896L47.1163 51.6954ZM31.1819 32.9066C31.1705 37.4299 34.8626 41.1818 39.353 41.205C43.8261 41.2224 47.5527 37.4821 47.5642 32.9472C47.5757 28.4124 43.8835 24.6663 39.3931 24.6605C34.8971 24.6547 31.1992 28.366 31.1819 32.9124V32.9066Z" fill="#F69421"></path>
</g>
</svg><style>@media (prefers-color-scheme: light) { :root { filter: none; } }
@media (prefers-color-scheme: dark) { :root { filter: none; } }
</style></svg>