<svg width="300" height="217" viewBox="0 0 300 217" fill="none" xmlns="http://www.w3.org/2000/svg">
    <path d="M158.179 84.6989C157.398 83.5043 156.634 82.3097 155.83 81.1441C155.738 81.0165 155.382 80.9701 155.193 81.0281C151.105 82.2575 147.114 82.0023 143.33 80.0191C138.46 77.4617 135.595 73.3734 134.9 67.8644C133.884 59.8327 138.943 52.5144 146.763 50.5601C155.572 48.3565 164.541 54.3817 165.896 63.4281C166.614 68.2355 165.385 72.5036 162.319 76.2381C162.026 76.5919 162.003 76.8238 162.261 77.195C163.008 78.2794 163.708 79.3986 164.478 80.57C164.656 80.4134 164.805 80.2974 164.932 80.1699C166.338 78.7433 167.498 77.1312 168.4 75.3393C169.118 73.9243 170.22 73.1531 171.799 73.1125C172.333 73.0951 172.683 72.8747 172.838 72.3412C172.999 71.7961 172.718 71.4945 172.316 71.2162C169.703 69.3663 170.002 65.7303 172.884 64.3212C173.332 64.1008 173.642 63.8225 173.573 63.2831C173.504 62.7206 173.125 62.5061 172.614 62.4017C170.536 61.9842 169.198 60.0879 169.496 57.9944C169.789 55.9358 171.604 54.4976 173.734 54.6426C175.698 54.776 177.306 56.5621 177.266 58.6149C177.243 59.8965 176.703 60.9345 175.692 61.7174C174.802 62.4017 174.974 63.8456 176.002 64.3154C177.553 65.0286 178.466 66.548 178.339 68.2123C178.213 69.8708 177.088 71.2278 175.445 71.7033C174.291 72.0338 173.872 73.443 174.636 74.3592C175.709 75.6582 175.922 77.1254 175.147 78.6099C171.018 86.514 164.633 91.5765 155.957 93.3278C146.786 95.1777 138.581 92.8407 131.639 86.4908C126.815 82.0777 123.99 76.5165 123.014 70.0042C122.434 66.1189 122.681 62.2857 123.709 58.5048C124.174 56.7883 125.34 55.8024 127.091 55.5995C128.073 55.4835 128.561 54.3469 127.981 53.5176C126.345 51.1748 127.39 48.0723 130.077 47.3591C130.904 47.1387 131.754 47.1561 132.552 47.5156C133.109 47.7708 133.482 47.5214 133.867 47.1735C134.246 46.8314 134.521 46.5182 134.383 45.9093C133.809 43.3983 135.515 41.0903 138.064 41.0323C140.292 40.9802 141.894 42.6097 142.003 44.6915C142.124 47.0053 140.505 48.8204 138.374 48.8784C137.565 48.9016 136.818 48.745 136.129 48.3159C135.687 48.0375 135.285 48.0781 134.9 48.4261C134.527 48.7624 134.504 49.1394 134.676 49.6033C135.733 52.468 133.867 55.1065 130.852 55.037C130.812 55.037 130.772 55.037 130.737 55.037C130.272 54.9906 129.819 54.9906 129.583 55.5067C129.348 56.0228 129.658 56.3533 129.985 56.6955C130.978 57.7219 131.306 58.9455 130.984 60.3488C130.806 61.1143 130.611 61.8856 130.496 62.6626C129.589 68.5834 130.961 73.9359 134.63 78.6215C138.093 83.052 142.675 85.5571 148.233 86.2124C151.478 86.5952 154.636 86.2008 157.691 85.0062C157.817 84.954 157.943 84.9076 158.07 84.8497C158.104 84.8323 158.121 84.7917 158.207 84.6931L158.179 84.6989ZM142.244 65.9101C142.233 70.4333 145.925 74.1853 150.415 74.2085C154.889 74.2259 158.615 70.4855 158.627 65.9507C158.638 61.4159 154.946 57.6697 150.456 57.6639C145.96 57.6581 142.262 61.3695 142.244 65.9159V65.9101Z" fill="#3F5397"/>
    <path d="M151.03 105.645C139.931 105.407 130.692 101.858 123.066 94.3832C116.905 88.3464 113.081 81.0107 111.732 72.4456C110.055 61.8218 112.26 52.0504 118.266 43.149C118.99 42.0761 119.839 41.2179 121.177 41.0671C121.637 41.0149 122.119 41.0381 122.573 41.1251C123.928 41.3861 124.737 40.4756 124.307 39.1361C123.503 36.6425 125.294 34.0677 127.884 33.9981C129.475 33.9517 130.916 34.8738 131.582 36.3641C132.202 37.7559 131.909 39.484 130.864 40.6148C129.773 41.792 128.102 42.2095 126.609 41.6006C126.041 41.3687 125.61 41.3745 125.191 41.85C124.869 42.2153 124.778 42.5749 125.002 43.033C125.714 44.5001 125.547 45.8745 124.6 47.2083C121.407 51.6967 119.449 56.6955 118.875 62.1813C117.858 71.9526 120.586 80.5642 127.189 87.8071C132.323 93.4438 138.742 96.7028 146.259 97.7234C162.618 99.9445 178.041 89.0423 181.452 72.8051C181.9 70.6769 182.032 68.4732 182.239 66.2928C182.469 63.9268 184.019 62.4771 186.316 62.5872C188.303 62.68 189.79 64.4313 189.721 66.6639C189.623 69.9694 189.198 73.2342 188.314 76.4295C184.3 90.985 172.759 101.829 158.07 104.856C157.266 105.024 156.451 105.164 155.636 105.245C153.925 105.419 152.208 105.546 151.013 105.645H151.03Z" fill="#516FDB"/>
    <mask id="mask0_7293_77155" style="mask-type:alpha" maskUnits="userSpaceOnUse" x="132" y="44" width="37" height="41">
        <path d="M156.998 84.8473C162.056 84.3826 164.413 81.1228 164.96 79.5509L168.261 64.1547L166.77 45.0328H152.823L138.876 51.6991L132.648 62.3127V70.2071L136.859 77.312L144.227 81.9609C146.377 83.1167 151.941 85.312 156.998 84.8473Z" fill="#D9D9D9" stroke="black" stroke-width="0.13171"/>
    </mask>
    <g mask="url(#mask0_7293_77155)">
        <path d="M158.179 84.6954C157.398 83.5008 156.634 82.3062 155.83 81.1406C155.738 81.013 155.382 80.9666 155.193 81.0246C151.105 82.254 147.114 81.9989 143.33 80.0156C138.46 77.4582 135.595 73.3699 134.9 67.8609C133.884 59.8293 138.943 52.5109 146.763 50.5566C155.572 48.353 164.541 54.3782 165.896 63.4246C166.614 68.232 165.385 72.5001 162.319 76.2346C162.026 76.5884 162.003 76.8204 162.261 77.1915C163.008 78.2759 163.708 79.3951 164.478 80.5665C164.656 80.4099 164.805 80.294 164.932 80.1664C166.338 78.7398 167.498 77.1277 168.4 75.3358C169.118 73.9208 170.22 73.1496 171.799 73.109C172.333 73.0916 172.683 72.8712 172.838 72.3377C172.999 71.7926 172.718 71.4911 172.316 71.2127C169.703 69.3628 170.002 65.7268 172.884 64.3177C173.332 64.0973 173.642 63.819 173.573 63.2797C173.504 62.7172 173.125 62.5026 172.614 62.3982C170.536 61.9807 169.198 60.0844 169.496 57.991C169.789 55.9323 171.604 54.4942 173.734 54.6391C175.698 54.7725 177.306 56.5586 177.266 58.6115C177.243 59.893 176.703 60.9311 175.692 61.7139C174.802 62.3982 174.974 63.8422 176.002 64.3119C177.553 65.0252 178.466 66.5445 178.339 68.2088C178.213 69.8673 177.088 71.2243 175.445 71.6998C174.291 72.0304 173.872 73.4395 174.636 74.3558C175.709 75.6548 175.922 77.1219 175.147 78.6064C171.018 86.5105 164.633 91.573 155.957 93.3243C146.786 95.1742 138.581 92.8372 131.639 86.4873C126.815 82.0743 123.99 76.513 123.014 70.0007C122.434 66.1154 122.681 62.2822 123.709 58.5013C124.174 56.7848 125.34 55.7989 127.091 55.596C128.073 55.48 128.561 54.3434 127.981 53.5141C126.345 51.1713 127.39 48.0689 130.077 47.3556C130.904 47.1352 131.754 47.1526 132.552 47.5122C133.109 47.7673 133.482 47.518 133.867 47.17C134.246 46.8279 134.521 46.5147 134.383 45.9058C133.809 43.3949 135.515 41.0869 138.064 41.0289C140.292 40.9767 141.894 42.6062 142.003 44.688C142.124 47.0018 140.505 48.8169 138.374 48.8749C137.565 48.8981 136.818 48.7415 136.129 48.3124C135.687 48.0341 135.285 48.0747 134.9 48.4226C134.527 48.7589 134.504 49.1359 134.676 49.5998C135.733 52.4645 133.867 55.1031 130.852 55.0335C130.812 55.0335 130.772 55.0335 130.737 55.0335C130.272 54.9871 129.819 54.9871 129.583 55.5032C129.348 56.0193 129.658 56.3498 129.985 56.692C130.978 57.7184 131.306 58.942 130.984 60.3454C130.806 61.1108 130.611 61.8821 130.496 62.6592C129.589 68.58 130.961 73.9324 134.63 78.618C138.093 83.0485 142.675 85.5537 148.233 86.2089C151.478 86.5917 154.636 86.1973 157.691 85.0028C157.817 84.9506 157.943 84.9042 158.07 84.8462C158.104 84.8288 158.121 84.7882 158.207 84.6896L158.179 84.6954ZM142.244 65.9066C142.233 70.4298 145.925 74.1818 150.415 74.205C154.889 74.2224 158.615 70.482 158.627 65.9472C158.638 61.4124 154.946 57.6662 150.456 57.6604C145.96 57.6546 142.262 61.366 142.244 65.9124V65.9066Z" fill="#F69421"/>
    </g>
    <path d="M83.5963 128.918C82.8912 128.918 82.2682 128.816 81.7274 128.613C81.1865 128.41 80.7615 128.116 80.4524 127.73C80.153 127.343 80.0033 126.88 80.0033 126.339C80.0033 125.836 80.1337 125.382 80.3944 124.977C80.6649 124.571 81.0368 124.204 81.51 123.876C81.993 123.538 82.558 123.224 83.2051 122.934C83.8619 122.635 84.5719 122.345 85.3349 122.065L85.6826 124.354C85.0355 124.508 84.4946 124.673 84.0599 124.846C83.635 125.011 83.2969 125.18 83.0458 125.353C82.7946 125.518 82.6111 125.677 82.4952 125.832C82.389 125.976 82.3359 126.102 82.3359 126.208C82.3359 126.334 82.418 126.44 82.5822 126.527C82.7464 126.604 83.0554 126.643 83.5094 126.643C83.606 126.643 83.746 126.638 83.9295 126.628C84.1131 126.619 84.3256 126.599 84.567 126.57C84.8085 126.532 85.0644 126.479 85.3349 126.411L85.8709 128.324C85.4846 128.507 85.1176 128.652 84.7699 128.758C84.4318 128.864 84.0406 128.918 83.5963 128.918ZM87.1314 129.135C86.5133 129.135 86.0158 129.053 85.6391 128.889C85.2721 128.715 84.992 128.497 84.7988 128.237C84.6153 127.966 84.4898 127.676 84.4221 127.367C84.3642 127.058 84.3352 126.768 84.3352 126.498V121.398H86.6678V125.846C86.6678 126.223 86.7644 126.488 86.9576 126.643C87.1604 126.788 87.484 126.86 87.9283 126.86H88.4064V129.135H87.1314ZM82.5097 120.587L80.9885 119.051L82.4228 117.501L83.944 119.051L82.5097 120.587ZM85.0596 120.587L83.5384 119.051L84.9872 117.501L86.5084 119.051L85.0596 120.587ZM88.401 129.135V126.86H90.4149C90.4535 126.696 90.4873 126.474 90.5163 126.194C90.5453 125.914 90.5694 125.634 90.5887 125.353C90.6081 125.064 90.6129 124.822 90.6032 124.629L93.327 123.673C93.1531 124.378 92.9793 125.04 92.8054 125.658C92.6412 126.266 92.4432 126.855 92.2114 127.425C91.9893 127.985 91.6995 128.555 91.3421 129.135H88.401ZM94.3412 129.135C93.6747 129.135 93.1097 129.072 92.6461 128.947C92.1921 128.811 91.8106 128.657 91.5015 128.483C91.1924 128.299 90.9268 128.13 90.7047 127.976L91.9361 126.542C92.0714 126.609 92.2307 126.667 92.4142 126.715C92.5978 126.764 92.8006 126.802 93.0227 126.831C93.2449 126.851 93.4767 126.86 93.7182 126.86H94.3412V129.135ZM88.401 126.86H88.5459V129.135H88.401C88.1113 129.135 87.9664 128.758 87.9664 128.005C87.9664 127.242 88.1113 126.86 88.401 126.86ZM90.0672 133.032L88.5459 131.482L89.9802 129.946L91.5015 131.482L90.0672 133.032ZM92.6171 133.032L91.0958 131.482L92.5446 129.946L94.0659 131.482L92.6171 133.032ZM104.833 129.135C104.186 129.135 103.654 129.077 103.239 128.961C102.833 128.845 102.491 128.657 102.21 128.396C101.94 128.126 101.689 127.773 101.457 127.338L103.007 126.614C103.114 126.672 103.229 126.72 103.355 126.759C103.49 126.788 103.664 126.812 103.877 126.831C104.099 126.851 104.379 126.86 104.717 126.86H105.267V129.135H104.833ZM94.3434 126.86H94.4883V129.135H94.3434C94.0537 129.135 93.9088 128.758 93.9088 128.005C93.9088 127.242 94.0537 126.86 94.3434 126.86ZM94.3434 129.135V126.86H94.6767C95.5556 126.86 96.2945 126.841 96.8933 126.802C97.4922 126.764 97.9993 126.706 98.4146 126.628C98.8299 126.542 99.1921 126.435 99.5012 126.31C99.8103 126.184 100.115 126.034 100.414 125.861C100.482 125.822 100.54 125.788 100.588 125.759C100.636 125.73 100.68 125.706 100.718 125.687C100.766 125.658 100.805 125.638 100.834 125.629C100.477 125.445 100.153 125.291 99.8634 125.165C99.5736 125.03 99.2984 124.924 99.0376 124.846C98.7864 124.759 98.545 124.697 98.3132 124.658C98.091 124.619 97.864 124.6 97.6322 124.6C97.3328 124.6 97.0575 124.682 96.8064 124.846C96.5553 125.011 96.2897 125.296 96.0096 125.701L94.5173 124.933C94.8457 124.248 95.1982 123.716 95.5749 123.34C95.9516 122.963 96.3428 122.702 96.7485 122.557C97.1541 122.403 97.555 122.325 97.951 122.325C98.4725 122.325 98.9506 122.403 99.3853 122.557C99.8296 122.712 100.245 122.905 100.631 123.137C101.018 123.369 101.394 123.6 101.761 123.832C102.128 124.054 102.495 124.243 102.862 124.397C103.229 124.552 103.621 124.624 104.036 124.615L103.993 126.585C103.741 126.653 103.432 126.754 103.065 126.889C102.698 127.015 102.273 127.203 101.79 127.454C101.404 127.657 100.998 127.86 100.573 128.063C100.148 128.256 99.6606 128.435 99.11 128.599C98.5595 128.763 97.9123 128.893 97.1686 128.99C96.4249 129.087 95.5459 129.135 94.5318 129.135H94.3434ZM94.3434 126.86H94.4883V129.135H94.3434C94.0537 129.135 93.9088 128.758 93.9088 128.005C93.9088 127.242 94.0537 126.86 94.3434 126.86ZM98.8927 133.032L97.357 131.482L98.8203 129.946L100.342 131.482L98.8927 133.032ZM105.266 129.135V126.86H107.28C107.319 126.696 107.352 126.474 107.381 126.194C107.41 125.914 107.434 125.634 107.454 125.353C107.473 125.064 107.478 124.822 107.468 124.629L110.192 123.673C110.018 124.378 109.844 125.04 109.67 125.658C109.506 126.266 109.308 126.855 109.076 127.425C108.854 127.985 108.565 128.555 108.207 129.135H105.266ZM111.206 129.135C110.54 129.135 109.975 129.072 109.511 128.947C109.057 128.811 108.676 128.657 108.367 128.483C108.057 128.299 107.792 128.13 107.57 127.976L108.801 126.542C108.936 126.609 109.096 126.667 109.279 126.715C109.463 126.764 109.666 126.802 109.888 126.831C110.11 126.851 110.342 126.86 110.583 126.86H111.206V129.135ZM105.266 126.86H105.411V129.135H105.266C104.976 129.135 104.831 128.758 104.831 128.005C104.831 127.242 104.976 126.86 105.266 126.86ZM106.932 133.032L105.411 131.482L106.845 129.946L108.367 131.482L106.932 133.032ZM109.482 133.032L107.961 131.482L109.41 129.946L110.931 131.482L109.482 133.032ZM114.512 126.86H116.25V129.135H114.512V126.86ZM111.208 129.135V126.86H112.614V118.414H114.946V129.135H111.208ZM111.208 126.86H111.353V129.135H111.208C110.919 129.135 110.774 128.758 110.774 128.005C110.774 127.242 110.919 126.86 111.208 126.86ZM116.245 126.86H117.404V129.135H116.245V126.86ZM116.245 126.86H116.39V129.135H116.245C115.956 129.135 115.811 128.758 115.811 128.005C115.811 127.242 115.956 126.86 116.245 126.86ZM127.895 129.135C127.248 129.135 126.717 129.077 126.301 128.961C125.896 128.845 125.553 128.657 125.273 128.396C125.002 128.126 124.751 127.773 124.519 127.338L126.069 126.614C126.176 126.672 126.292 126.72 126.417 126.759C126.552 126.788 126.726 126.812 126.939 126.831C127.161 126.851 127.441 126.86 127.779 126.86H128.33V129.135H127.895ZM117.406 126.86H117.55V129.135H117.406C117.116 129.135 116.971 128.758 116.971 128.005C116.971 127.242 117.116 126.86 117.406 126.86ZM117.406 129.135V126.86H117.739C118.618 126.86 119.357 126.841 119.955 126.802C120.554 126.764 121.061 126.706 121.477 126.628C121.892 126.542 122.254 126.435 122.563 126.31C122.872 126.184 123.177 126.034 123.476 125.861C123.544 125.822 123.602 125.788 123.65 125.759C123.698 125.73 123.742 125.706 123.78 125.687C123.829 125.658 123.867 125.638 123.896 125.629C123.539 125.445 123.215 125.291 122.926 125.165C122.636 125.03 122.36 124.924 122.1 124.846C121.849 124.759 121.607 124.697 121.375 124.658C121.153 124.619 120.926 124.6 120.694 124.6C120.395 124.6 120.12 124.682 119.869 124.846C119.617 125.011 119.352 125.296 119.072 125.701L117.579 124.933C117.908 124.248 118.26 123.716 118.637 123.34C119.014 122.963 119.405 122.702 119.811 122.557C120.216 122.403 120.617 122.325 121.013 122.325C121.535 122.325 122.013 122.403 122.447 122.557C122.892 122.712 123.307 122.905 123.693 123.137C124.08 123.369 124.456 123.6 124.823 123.832C125.19 124.054 125.558 124.243 125.925 124.397C126.292 124.552 126.683 124.624 127.098 124.615L127.055 126.585C126.803 126.653 126.494 126.754 126.127 126.889C125.76 127.015 125.335 127.203 124.852 127.454C124.466 127.657 124.06 127.86 123.635 128.063C123.21 128.256 122.723 128.435 122.172 128.599C121.622 128.763 120.974 128.893 120.231 128.99C119.487 129.087 118.608 129.135 117.594 129.135H117.406ZM117.406 126.86H117.55V129.135H117.406C117.116 129.135 116.971 128.758 116.971 128.005C116.971 127.242 117.116 126.86 117.406 126.86ZM121.057 121.108L119.521 119.573L120.984 118.023L122.505 119.573L121.057 121.108ZM128.328 129.135V126.86H129.734V118.414H132.066V129.135H128.328ZM128.328 126.86H128.473V129.135H128.328C128.038 129.135 127.894 128.758 127.894 128.005C127.894 127.242 128.038 126.86 128.328 126.86ZM134.068 118.414H136.4V129.135H134.068V118.414ZM146.82 132.844C145.97 132.844 145.255 132.728 144.675 132.496C144.096 132.274 143.632 131.97 143.284 131.583C142.937 131.207 142.686 130.782 142.531 130.308C142.377 129.845 142.299 129.367 142.299 128.874C142.299 128.488 142.357 128.043 142.473 127.541C142.599 127.029 142.768 126.488 142.98 125.919L144.907 126.527C144.782 126.923 144.685 127.285 144.617 127.614C144.559 127.932 144.53 128.217 144.53 128.468C144.53 128.816 144.588 129.12 144.704 129.381C144.83 129.652 145.004 129.874 145.226 130.048C145.458 130.221 145.738 130.352 146.066 130.439C146.395 130.526 146.762 130.569 147.167 130.569C147.438 130.569 147.718 130.531 148.008 130.453C148.297 130.386 148.563 130.275 148.804 130.12C149.056 129.966 149.258 129.768 149.413 129.526C149.567 129.294 149.645 129.014 149.645 128.686C149.645 128.483 149.63 128.256 149.601 128.005C149.582 127.754 149.476 127.449 149.283 127.092L150.804 126.107C150.9 126.213 151.021 126.382 151.166 126.614C151.311 126.846 151.441 127.107 151.557 127.396C151.673 127.676 151.731 127.952 151.731 128.222C151.731 129.178 151.533 129.999 151.137 130.685C150.741 131.381 150.176 131.912 149.442 132.279C148.717 132.655 147.843 132.844 146.82 132.844ZM152.876 129.135C152.431 129.135 152.016 129.067 151.63 128.932C151.253 128.797 150.91 128.628 150.601 128.425C150.302 128.222 150.046 128.01 149.833 127.787C149.621 127.556 149.461 127.353 149.355 127.179L148.515 125.817L150.34 123.615L151.296 125.745C151.432 126.044 151.547 126.276 151.644 126.44C151.741 126.595 151.871 126.706 152.035 126.773C152.199 126.831 152.431 126.86 152.731 126.86H153.02V129.135H152.876ZM146.935 124.252L145.4 122.717L146.863 121.166L148.384 122.717L146.935 124.252ZM153.017 126.86H154.176V129.135H153.017V126.86ZM153.017 126.86H153.162V129.135H153.017C152.728 129.135 152.583 128.758 152.583 128.005C152.583 127.242 152.728 126.86 153.017 126.86ZM154.178 129.135V126.86H156.264C156.235 126.87 156.196 126.884 156.148 126.904C156.109 126.923 156.061 126.942 156.003 126.962C155.955 126.971 155.906 126.981 155.858 126.991C155.646 126.711 155.501 126.426 155.424 126.136C155.346 125.846 155.308 125.551 155.308 125.252C155.308 124.856 155.38 124.475 155.525 124.108C155.67 123.74 155.887 123.407 156.177 123.108C156.467 122.808 156.824 122.572 157.249 122.398C157.684 122.224 158.181 122.137 158.741 122.137C159.311 122.137 159.809 122.224 160.234 122.398C160.668 122.572 161.03 122.808 161.32 123.108C161.61 123.407 161.827 123.74 161.972 124.108C162.127 124.475 162.204 124.856 162.204 125.252C162.204 125.561 162.161 125.861 162.074 126.15C161.996 126.43 161.851 126.711 161.639 126.991C161.552 126.971 161.504 126.952 161.494 126.933C161.484 126.913 161.436 126.889 161.349 126.86H163.044V129.135H162.682C161.996 129.135 161.426 129.13 160.972 129.12C160.519 129.101 160.127 129.067 159.799 129.019C159.48 128.971 159.166 128.889 158.857 128.773C158.712 128.821 158.572 128.869 158.437 128.918C158.302 128.956 158.138 128.995 157.944 129.033C157.761 129.062 157.515 129.087 157.206 129.106C156.906 129.125 156.51 129.135 156.018 129.135H154.178ZM158.741 126.976C158.973 126.87 159.166 126.74 159.321 126.585C159.475 126.43 159.591 126.257 159.669 126.063C159.746 125.87 159.784 125.667 159.784 125.455C159.784 125.262 159.741 125.088 159.654 124.933C159.577 124.779 159.461 124.653 159.306 124.557C159.152 124.46 158.963 124.412 158.741 124.412C158.529 124.412 158.345 124.46 158.191 124.557C158.036 124.653 157.916 124.784 157.829 124.948C157.751 125.102 157.713 125.271 157.713 125.455C157.713 125.667 157.751 125.87 157.829 126.063C157.906 126.247 158.022 126.416 158.176 126.57C158.331 126.725 158.519 126.86 158.741 126.976ZM154.178 126.86H154.322V129.135H154.178C153.888 129.135 153.743 128.758 153.743 128.005C153.743 127.242 153.888 126.86 154.178 126.86ZM157.51 120.92L155.989 119.384L157.423 117.834L158.944 119.384L157.51 120.92ZM160.06 120.92L158.538 119.384L159.987 117.834L161.509 119.384L160.06 120.92ZM163.049 126.86H164.208V129.135H163.049V126.86ZM163.049 126.86H163.194V129.135H163.049C162.759 129.135 162.614 128.758 162.614 128.005C162.614 127.242 162.759 126.86 163.049 126.86ZM164.209 126.86H165.368V129.135H164.209V126.86ZM164.209 126.86H164.354V129.135H164.209C163.919 129.135 163.774 128.758 163.774 128.005C163.774 127.242 163.919 126.86 164.209 126.86ZM165.369 129.135V126.86H168.209C168.131 126.522 167.982 126.146 167.76 125.73C167.537 125.315 167.257 124.895 166.919 124.47L169.006 122.34C169.295 122.891 169.546 123.494 169.759 124.151C169.971 124.808 170.078 125.547 170.078 126.368C170.078 127.179 169.899 128.101 169.542 129.135H165.369ZM165.369 126.86H165.514V129.135H165.369C165.079 129.135 164.934 128.758 164.934 128.005C164.934 127.242 165.079 126.86 165.369 126.86ZM166.774 121.543L165.253 120.007L166.687 118.457L168.209 120.007L166.774 121.543ZM169.324 121.543L167.803 120.007L169.252 118.457L170.773 120.007L169.324 121.543ZM171.915 118.414H174.248V129.135H171.915V118.414ZM183.74 128.918C183.035 128.918 182.412 128.816 181.871 128.613C181.33 128.41 180.905 128.116 180.596 127.73C180.296 127.343 180.147 126.88 180.147 126.339C180.147 125.836 180.277 125.382 180.538 124.977C180.808 124.571 181.18 124.204 181.653 123.876C182.136 123.538 182.701 123.224 183.348 122.934C184.005 122.635 184.715 122.345 185.478 122.065L185.826 124.354C185.179 124.508 184.638 124.673 184.203 124.846C183.778 125.011 183.44 125.18 183.189 125.353C182.938 125.518 182.754 125.677 182.639 125.832C182.532 125.976 182.479 126.102 182.479 126.208C182.479 126.334 182.561 126.44 182.725 126.527C182.89 126.604 183.199 126.643 183.653 126.643C183.749 126.643 183.889 126.638 184.073 126.628C184.256 126.619 184.469 126.599 184.71 126.57C184.952 126.532 185.208 126.479 185.478 126.411L186.014 128.324C185.628 128.507 185.261 128.652 184.913 128.758C184.575 128.864 184.184 128.918 183.74 128.918ZM187.275 129.135C186.657 129.135 186.159 129.053 185.782 128.889C185.415 128.715 185.135 128.497 184.942 128.237C184.759 127.966 184.633 127.676 184.565 127.367C184.507 127.058 184.479 126.768 184.479 126.498V121.398H186.811V125.846C186.811 126.223 186.908 126.488 187.101 126.643C187.304 126.788 187.627 126.86 188.072 126.86H188.55V129.135H187.275ZM182.653 120.587L181.132 119.051L182.566 117.501L184.087 119.051L182.653 120.587ZM185.203 120.587L183.682 119.051L185.13 117.501L186.652 119.051L185.203 120.587ZM188.544 126.86H189.703V129.135H188.544V126.86ZM188.544 126.86H188.689V129.135H188.544C188.255 129.135 188.11 128.758 188.11 128.005C188.11 127.242 188.255 126.86 188.544 126.86ZM189.705 126.86H190.864V129.135H189.705V126.86ZM189.705 126.86H189.849V129.135H189.705C189.415 129.135 189.27 128.758 189.27 128.005C189.27 127.242 189.415 126.86 189.705 126.86ZM191.792 121.355L195.849 117.979L197.384 119.805L193.415 123.093L193.777 122.239C194.878 122.548 195.728 123.026 196.327 123.673C196.935 124.32 197.322 125.107 197.486 126.034C197.66 126.952 197.64 127.985 197.428 129.135H190.865V126.86H195.428C195.313 126.416 195.1 125.996 194.791 125.6C194.482 125.204 194.076 124.866 193.574 124.586C193.081 124.296 192.487 124.098 191.792 123.992V121.355ZM190.865 126.86H191.01V129.135H190.865C190.575 129.135 190.43 128.758 190.43 128.005C190.43 127.242 190.575 126.86 190.865 126.86ZM199.588 132.844C199.154 132.844 198.671 132.747 198.139 132.554C197.618 132.361 197.145 132.086 196.72 131.728L197.444 130.265C197.83 130.381 198.154 130.458 198.415 130.497C198.676 130.545 198.922 130.569 199.154 130.569C199.675 130.569 200.134 130.468 200.53 130.265C200.936 130.072 201.25 129.806 201.472 129.468C201.704 129.13 201.819 128.763 201.819 128.367C201.819 128.039 201.766 127.763 201.66 127.541C201.563 127.309 201.433 127.092 201.269 126.889C201.114 126.677 200.945 126.435 200.762 126.165L203.877 127.672C203.877 127.787 203.877 127.903 203.877 128.019C203.877 128.135 203.877 128.251 203.877 128.367C203.877 128.657 203.828 128.995 203.732 129.381C203.645 129.768 203.5 130.159 203.297 130.555C203.094 130.96 202.824 131.337 202.486 131.685C202.157 132.033 201.752 132.313 201.269 132.525C200.796 132.738 200.235 132.844 199.588 132.844ZM205.021 129.135C204.674 129.135 204.345 129.106 204.036 129.048C203.737 128.98 203.452 128.879 203.181 128.744C202.921 128.608 202.669 128.435 202.428 128.222C202.196 128.01 201.964 127.754 201.732 127.454L199.849 125.035L201.704 122.76L203.529 125.948C203.664 126.179 203.79 126.363 203.906 126.498C204.022 126.633 204.162 126.73 204.326 126.788C204.5 126.836 204.732 126.86 205.021 126.86H205.166V129.135H205.021ZM205.169 126.86H206.328V129.135H205.169V126.86ZM205.169 126.86H205.314V129.135H205.169C204.879 129.135 204.734 128.758 204.734 128.005C204.734 127.242 204.879 126.86 205.169 126.86ZM206.329 126.86H207.488V129.135H206.329V126.86ZM206.329 126.86H206.474V129.135H206.329C206.039 129.135 205.894 128.758 205.894 128.005C205.894 127.242 206.039 126.86 206.329 126.86ZM217.254 129.135C216.588 129.135 216.023 129.072 215.559 128.947C215.105 128.811 214.724 128.657 214.415 128.483C214.105 128.299 213.84 128.13 213.618 127.976L214.907 126.585C215.081 126.662 215.318 126.73 215.617 126.788C215.926 126.836 216.264 126.86 216.631 126.86H218.413C218.297 126.426 218.128 126.005 217.906 125.6C217.694 125.184 217.447 124.798 217.167 124.441L219.254 122.325C219.476 122.731 219.679 123.171 219.862 123.644C220.046 124.108 220.176 124.615 220.253 125.165C220.34 125.706 220.35 126.305 220.282 126.962C220.215 127.618 220.041 128.343 219.761 129.135H217.254ZM207.489 129.135V126.86H208.88C208.909 126.657 208.928 126.45 208.938 126.237C208.957 126.025 208.967 125.798 208.967 125.556C208.967 125.315 208.953 125.054 208.924 124.774L211.662 123.832C211.527 124.508 211.396 125.083 211.271 125.556C211.145 126.03 211.005 126.45 210.85 126.817C210.706 127.184 210.527 127.546 210.314 127.903C210.112 128.261 209.856 128.671 209.547 129.135H207.489ZM211.981 129.135C211.256 129.135 210.643 129.072 210.141 128.947C209.638 128.811 209.237 128.662 208.938 128.497C208.648 128.324 208.445 128.184 208.33 128.077L209.184 126.382C209.426 126.537 209.725 126.657 210.083 126.744C210.44 126.822 210.831 126.86 211.256 126.86H213.009C213.038 126.715 213.058 126.537 213.067 126.324C213.086 126.102 213.096 125.861 213.096 125.6C213.096 125.329 213.082 125.054 213.053 124.774L215.82 123.832C215.675 124.508 215.54 125.083 215.414 125.556C215.289 126.03 215.149 126.45 214.994 126.817C214.84 127.184 214.656 127.546 214.444 127.903C214.241 128.261 213.99 128.671 213.69 129.135H211.981ZM207.489 126.86H207.634V129.135H207.489C207.199 129.135 207.055 128.758 207.055 128.005C207.055 127.242 207.199 126.86 207.489 126.86ZM214.588 120.949L213.038 119.413L214.501 117.863L216.023 119.413L214.588 120.949ZM213.342 123.369L211.821 121.818L213.256 120.283L214.777 121.818L213.342 123.369ZM215.892 123.369L214.371 121.818L215.82 120.283L217.341 121.818L215.892 123.369ZM82.5423 146.918C81.8372 146.918 81.2142 146.816 80.6733 146.613C80.1324 146.41 79.7074 146.116 79.3983 145.73C79.0989 145.343 78.9492 144.88 78.9492 144.339C78.9492 143.836 79.0796 143.382 79.3404 142.977C79.6108 142.571 79.9827 142.204 80.456 141.876C80.9389 141.538 81.5039 141.224 82.1511 140.934C82.8079 140.635 83.5178 140.345 84.2808 140.065L84.6285 142.354C83.9814 142.508 83.4405 142.673 83.0059 142.846C82.5809 143.011 82.2428 143.18 81.9917 143.353C81.7406 143.518 81.5571 143.677 81.4412 143.832C81.3349 143.976 81.2818 144.102 81.2818 144.208C81.2818 144.334 81.3639 144.44 81.5281 144.527C81.6923 144.604 82.0014 144.643 82.4553 144.643C82.5519 144.643 82.692 144.638 82.8755 144.628C83.059 144.619 83.2715 144.599 83.513 144.57C83.7544 144.532 84.0104 144.479 84.2808 144.411L84.8169 146.324C84.4305 146.507 84.0635 146.652 83.7158 146.758C83.3777 146.864 82.9866 146.918 82.5423 146.918ZM86.0774 147.135C85.4592 147.135 84.9618 147.053 84.5851 146.889C84.218 146.715 83.9379 146.497 83.7448 146.237C83.5613 145.966 83.4357 145.676 83.3681 145.367C83.3101 145.058 83.2812 144.768 83.2812 144.498V139.398H85.6137V143.846C85.6137 144.223 85.7103 144.488 85.9035 144.643C86.1063 144.788 86.4299 144.86 86.8742 144.86H87.3523V147.135H86.0774ZM81.4556 138.587L79.9344 137.051L81.3687 135.501L82.89 137.051L81.4556 138.587ZM84.0056 138.587L82.4843 137.051L83.9331 135.501L85.4544 137.051L84.0056 138.587ZM87.347 147.135V144.86H89.3608C89.3995 144.696 89.4333 144.474 89.4622 144.194C89.4912 143.914 89.5154 143.634 89.5347 143.353C89.554 143.064 89.5588 142.822 89.5492 142.629L92.2729 141.673C92.0991 142.378 91.9252 143.04 91.7514 143.658C91.5872 144.266 91.3892 144.855 91.1574 145.425C90.9352 145.985 90.6454 146.555 90.2881 147.135H87.347ZM93.2871 147.135C92.6207 147.135 92.0556 147.072 91.592 146.947C91.138 146.811 90.7565 146.657 90.4474 146.483C90.1384 146.299 89.8727 146.13 89.6506 145.976L90.8821 144.542C91.0173 144.609 91.1767 144.667 91.3602 144.715C91.5437 144.764 91.7465 144.802 91.9687 144.831C92.1908 144.851 92.4226 144.86 92.6641 144.86H93.2871V147.135ZM87.347 144.86H87.4919V147.135H87.347C87.0572 147.135 86.9123 146.758 86.9123 146.005C86.9123 145.242 87.0572 144.86 87.347 144.86ZM89.0131 151.032L87.4919 149.482L88.9262 147.946L90.4474 149.482L89.0131 151.032ZM91.563 151.032L90.0418 149.482L91.4906 147.946L93.0118 149.482L91.563 151.032ZM93.2894 147.135V144.86H94.6947V136.414H97.0273V147.135H93.2894ZM93.2894 144.86H93.4342V147.135H93.2894C92.9996 147.135 92.8547 146.758 92.8547 146.005C92.8547 145.242 92.9996 144.86 93.2894 144.86ZM101.811 147.135C101.328 147.135 100.912 147.087 100.565 146.99C100.217 146.893 99.9271 146.744 99.6953 146.541C99.4731 146.328 99.3041 146.058 99.1882 145.73C99.0819 145.401 99.0288 145.005 99.0288 144.542V136.414H101.361V143.701C101.361 143.914 101.376 144.097 101.405 144.252C101.434 144.397 101.487 144.517 101.564 144.614C101.641 144.701 101.748 144.764 101.883 144.802C102.028 144.841 102.216 144.86 102.448 144.86H103.013V147.135H101.811ZM103.009 147.135V144.86H103.053C103.169 144.86 103.275 144.836 103.372 144.788C103.478 144.74 103.589 144.657 103.705 144.542C103.821 144.426 103.946 144.266 104.082 144.063C104.226 143.851 104.395 143.585 104.589 143.267C104.869 142.803 105.139 142.412 105.4 142.093C105.661 141.765 105.917 141.504 106.168 141.311C106.429 141.117 106.689 140.977 106.95 140.891C107.211 140.804 107.477 140.76 107.747 140.76C108.191 140.76 108.592 140.857 108.95 141.05C109.307 141.243 109.64 141.552 109.949 141.977C110.258 142.392 110.563 142.953 110.862 143.658C111.026 144.015 111.181 144.281 111.326 144.455C111.48 144.628 111.649 144.74 111.833 144.788C112.016 144.836 112.233 144.86 112.485 144.86H112.644V147.135H111.92C111.504 147.135 111.137 147.067 110.818 146.932C110.509 146.797 110.239 146.618 110.007 146.396C109.775 146.164 109.573 145.918 109.399 145.657C109.234 145.396 109.094 145.14 108.979 144.889C108.795 144.503 108.631 144.17 108.486 143.89C108.341 143.609 108.201 143.397 108.066 143.252C107.931 143.098 107.786 143.02 107.631 143.02C107.544 143.02 107.428 143.073 107.283 143.18C107.139 143.276 106.969 143.44 106.776 143.672C106.593 143.904 106.375 144.223 106.124 144.628C105.873 145.044 105.651 145.396 105.458 145.686C105.265 145.976 105.081 146.217 104.907 146.41C104.733 146.594 104.56 146.739 104.386 146.845C104.212 146.951 104.024 147.029 103.821 147.077C103.618 147.116 103.381 147.135 103.111 147.135H103.009ZM110.703 146.483C110.365 146.869 109.973 147.135 109.529 147.28C109.094 147.425 108.64 147.483 108.167 147.454C107.704 147.425 107.25 147.333 106.805 147.178C106.371 147.024 105.975 146.831 105.617 146.599C105.27 146.367 104.994 146.126 104.791 145.874L105.965 144.498C106.091 144.604 106.284 144.725 106.545 144.86C106.815 144.995 107.129 145.121 107.486 145.237C107.853 145.343 108.244 145.416 108.66 145.454C109.075 145.483 109.495 145.449 109.92 145.353L110.703 146.483ZM103.009 144.86H103.154V147.135H103.009C102.72 147.135 102.575 146.758 102.575 146.005C102.575 145.242 102.72 144.86 103.009 144.86ZM112.645 147.135V144.86H114.05V136.414H116.382V147.135H112.645ZM112.645 144.86H112.789V147.135H112.645C112.355 147.135 112.21 146.758 112.21 146.005C112.21 145.242 112.355 144.86 112.645 144.86ZM118.384 136.414H120.717V147.135H118.384V136.414ZM130.209 146.918C129.504 146.918 128.881 146.816 128.34 146.613C127.799 146.41 127.374 146.116 127.065 145.73C126.765 145.343 126.616 144.88 126.616 144.339C126.616 143.836 126.746 143.382 127.007 142.977C127.277 142.571 127.649 142.204 128.122 141.876C128.605 141.538 129.17 141.224 129.817 140.934C130.474 140.635 131.184 140.345 131.947 140.065L132.295 142.354C131.648 142.508 131.107 142.673 130.672 142.846C130.247 143.011 129.909 143.18 129.658 143.353C129.407 143.518 129.223 143.677 129.108 143.832C129.001 143.976 128.948 144.102 128.948 144.208C128.948 144.334 129.03 144.44 129.194 144.527C129.359 144.604 129.668 144.643 130.122 144.643C130.218 144.643 130.358 144.638 130.542 144.628C130.725 144.619 130.938 144.599 131.179 144.57C131.421 144.532 131.677 144.479 131.947 144.411L132.483 146.324C132.097 146.507 131.73 146.652 131.382 146.758C131.044 146.864 130.653 146.918 130.209 146.918ZM133.744 147.135C133.126 147.135 132.628 147.053 132.251 146.889C131.884 146.715 131.604 146.497 131.411 146.237C131.228 145.966 131.102 145.676 131.034 145.367C130.977 145.058 130.948 144.768 130.948 144.498V139.398H133.28V143.846C133.28 144.223 133.377 144.488 133.57 144.643C133.773 144.788 134.096 144.86 134.541 144.86H135.019V147.135H133.744ZM129.122 138.587L127.601 137.051L129.035 135.501L130.556 137.051L129.122 138.587ZM131.672 138.587L130.151 137.051L131.6 135.501L133.121 137.051L131.672 138.587ZM135.013 147.135V144.86H137.027C137.066 144.696 137.1 144.474 137.129 144.194C137.158 143.914 137.182 143.634 137.201 143.353C137.22 143.064 137.225 142.822 137.216 142.629L139.939 141.673C139.765 142.378 139.592 143.04 139.418 143.658C139.254 144.266 139.056 144.855 138.824 145.425C138.602 145.985 138.312 146.555 137.954 147.135H135.013ZM140.954 147.135C140.287 147.135 139.722 147.072 139.258 146.947C138.804 146.811 138.423 146.657 138.114 146.483C137.805 146.299 137.539 146.13 137.317 145.976L138.548 144.542C138.684 144.609 138.843 144.667 139.027 144.715C139.21 144.764 139.413 144.802 139.635 144.831C139.857 144.851 140.089 144.86 140.331 144.86H140.954V147.135ZM135.013 144.86H135.158V147.135H135.013C134.724 147.135 134.579 146.758 134.579 146.005C134.579 145.242 134.724 144.86 135.013 144.86ZM136.68 151.032L135.158 149.482L136.593 147.946L138.114 149.482L136.68 151.032ZM139.229 151.032L137.708 149.482L139.157 147.946L140.678 149.482L139.229 151.032ZM140.956 147.135V144.86H142.97C143.008 144.696 143.042 144.474 143.071 144.194C143.1 143.914 143.124 143.634 143.143 143.353C143.163 143.064 143.168 142.822 143.158 142.629L145.882 141.673C145.708 142.378 145.534 143.04 145.36 143.658C145.196 144.266 144.998 144.855 144.766 145.425C144.544 145.985 144.254 146.555 143.897 147.135H140.956ZM146.896 147.135C146.229 147.135 145.664 147.072 145.201 146.947C144.747 146.811 144.365 146.657 144.056 146.483C143.747 146.299 143.482 146.13 143.259 145.976L144.491 144.542C144.626 144.609 144.785 144.667 144.969 144.715C145.152 144.764 145.355 144.802 145.577 144.831C145.8 144.851 146.031 144.86 146.273 144.86H146.896V147.135ZM140.956 144.86H141.101V147.135H140.956C140.666 147.135 140.521 146.758 140.521 146.005C140.521 145.242 140.666 144.86 140.956 144.86ZM144.578 140.833L143.042 139.297L144.505 137.747L146.027 139.297L144.578 140.833ZM146.898 147.135V144.86H148.984C148.955 144.87 148.917 144.884 148.869 144.904C148.83 144.923 148.782 144.942 148.724 144.962C148.675 144.971 148.627 144.981 148.579 144.991C148.366 144.711 148.221 144.426 148.144 144.136C148.067 143.846 148.028 143.551 148.028 143.252C148.028 142.856 148.101 142.475 148.246 142.108C148.39 141.74 148.608 141.407 148.898 141.108C149.187 140.808 149.545 140.572 149.97 140.398C150.404 140.224 150.902 140.137 151.462 140.137C152.032 140.137 152.529 140.224 152.954 140.398C153.389 140.572 153.751 140.808 154.041 141.108C154.331 141.407 154.548 141.74 154.693 142.108C154.847 142.475 154.925 142.856 154.925 143.252C154.925 143.561 154.881 143.861 154.794 144.15C154.717 144.43 154.572 144.711 154.36 144.991C154.273 144.971 154.224 144.952 154.215 144.933C154.205 144.913 154.157 144.889 154.07 144.86H155.765V147.135H155.403C154.717 147.135 154.147 147.13 153.693 147.12C153.239 147.101 152.848 147.067 152.52 147.019C152.201 146.971 151.887 146.889 151.578 146.773C151.433 146.821 151.293 146.869 151.158 146.918C151.022 146.956 150.858 146.995 150.665 147.033C150.482 147.062 150.235 147.087 149.926 147.106C149.627 147.125 149.231 147.135 148.738 147.135H146.898ZM151.462 144.976C151.694 144.87 151.887 144.74 152.041 144.585C152.196 144.43 152.312 144.257 152.389 144.063C152.466 143.87 152.505 143.667 152.505 143.455C152.505 143.262 152.462 143.088 152.375 142.933C152.297 142.779 152.181 142.653 152.027 142.557C151.872 142.46 151.684 142.412 151.462 142.412C151.249 142.412 151.066 142.46 150.911 142.557C150.757 142.653 150.636 142.784 150.549 142.948C150.472 143.102 150.433 143.271 150.433 143.455C150.433 143.667 150.472 143.87 150.549 144.063C150.626 144.247 150.742 144.416 150.897 144.57C151.051 144.725 151.24 144.86 151.462 144.976ZM146.898 144.86H147.043V147.135H146.898C146.608 147.135 146.464 146.758 146.464 146.005C146.464 145.242 146.608 144.86 146.898 144.86ZM150.23 138.92L148.709 137.384L150.143 135.834L151.665 137.384L150.23 138.92ZM152.78 138.92L151.259 137.384L152.708 135.834L154.229 137.384L152.78 138.92ZM155.769 147.135V144.86H158.116C158.155 144.696 158.189 144.474 158.218 144.194C158.247 143.914 158.271 143.634 158.29 143.353C158.31 143.064 158.314 142.822 158.305 142.629L161.028 141.673C160.855 142.378 160.681 143.04 160.507 143.658C160.343 144.266 160.145 144.855 159.913 145.425C159.691 145.985 159.401 146.555 159.044 147.135H155.769ZM161.854 147.135C161.188 147.135 160.623 147.072 160.159 146.947C159.696 146.811 159.309 146.657 159 146.483C158.701 146.299 158.44 146.13 158.218 145.976L159.42 144.542C159.565 144.609 159.729 144.667 159.913 144.715C160.096 144.764 160.299 144.802 160.521 144.831C160.744 144.851 160.98 144.86 161.231 144.86H162.173V147.135H161.854ZM155.769 144.86H155.914V147.135H155.769C155.48 147.135 155.335 146.758 155.335 146.005C155.335 145.242 155.48 144.86 155.769 144.86ZM158.435 140.833L156.914 139.297L158.348 137.747L159.869 139.297L158.435 140.833ZM160.985 140.833L159.464 139.297L160.913 137.747L162.434 139.297L160.985 140.833ZM165.482 144.86H167.22V147.135H165.482V144.86ZM162.179 147.135V144.86H163.584V136.414H165.917V147.135H162.179ZM162.179 144.86H162.323V147.135H162.179C161.889 147.135 161.744 146.758 161.744 146.005C161.744 145.242 161.889 144.86 162.179 144.86ZM167.215 147.135V144.86H168.621V136.414H170.953V147.135H167.215ZM167.215 144.86H167.36V147.135H167.215C166.926 147.135 166.781 146.758 166.781 146.005C166.781 145.242 166.926 144.86 167.215 144.86ZM180.45 146.918C179.745 146.918 179.122 146.816 178.581 146.613C178.04 146.41 177.615 146.116 177.306 145.73C177.007 145.343 176.857 144.88 176.857 144.339C176.857 143.836 176.987 143.382 177.248 142.977C177.519 142.571 177.891 142.204 178.364 141.876C178.847 141.538 179.412 141.224 180.059 140.934C180.716 140.635 181.426 140.345 182.189 140.065L182.536 142.354C181.889 142.508 181.348 142.673 180.914 142.846C180.489 143.011 180.151 143.18 179.9 143.353C179.648 143.518 179.465 143.677 179.349 143.832C179.243 143.976 179.19 144.102 179.19 144.208C179.19 144.334 179.272 144.44 179.436 144.527C179.6 144.604 179.909 144.643 180.363 144.643C180.46 144.643 180.6 144.638 180.783 144.628C180.967 144.619 181.179 144.599 181.421 144.57C181.662 144.532 181.918 144.479 182.189 144.411L182.725 146.324C182.338 146.507 181.971 146.652 181.624 146.758C181.286 146.864 180.894 146.918 180.45 146.918ZM183.985 147.135C183.367 147.135 182.87 147.053 182.493 146.889C182.126 146.715 181.846 146.497 181.653 146.237C181.469 145.966 181.344 145.676 181.276 145.367C181.218 145.058 181.189 144.768 181.189 144.498V139.398H183.522V143.846C183.522 144.223 183.618 144.488 183.811 144.643C184.014 144.788 184.338 144.86 184.782 144.86H185.26V147.135H183.985ZM179.363 138.587L177.842 137.051L179.277 135.501L180.798 137.051L179.363 138.587ZM181.913 138.587L180.392 137.051L181.841 135.501L183.362 137.051L181.913 138.587ZM185.255 147.135V144.86H187.602C187.641 144.696 187.674 144.474 187.703 144.194C187.732 143.914 187.756 143.634 187.776 143.353C187.795 143.064 187.8 142.822 187.79 142.629L190.514 141.673C190.34 142.378 190.166 143.04 189.992 143.658C189.828 144.266 189.63 144.855 189.398 145.425C189.176 145.985 188.887 146.555 188.529 147.135H185.255ZM191.34 147.135C190.673 147.135 190.108 147.072 189.645 146.947C189.181 146.811 188.795 146.657 188.486 146.483C188.186 146.299 187.925 146.13 187.703 145.976L188.906 144.542C189.051 144.609 189.215 144.667 189.398 144.715C189.582 144.764 189.785 144.802 190.007 144.831C190.229 144.851 190.466 144.86 190.717 144.86H191.659V147.135H191.34ZM185.255 144.86H185.4V147.135H185.255C184.965 147.135 184.82 146.758 184.82 146.005C184.82 145.242 184.965 144.86 185.255 144.86ZM187.24 151.032L185.718 149.482L187.153 147.946L188.674 149.482L187.24 151.032ZM189.79 151.032L188.268 149.482L189.717 147.946L191.238 149.482L189.79 151.032ZM191.664 147.135V144.86H194.214C194.137 144.522 193.987 144.146 193.765 143.73C193.543 143.315 193.263 142.895 192.925 142.47L195.011 140.34C195.301 140.891 195.552 141.494 195.764 142.151C195.977 142.808 196.083 143.547 196.083 144.368C196.093 145.179 195.919 146.101 195.561 147.135H191.664ZM191.664 144.86H191.809V147.135H191.664C191.374 147.135 191.229 146.758 191.229 146.005C191.229 145.242 191.374 144.86 191.664 144.86ZM194.127 151.032L192.591 149.482L194.055 147.946L195.576 149.482L194.127 151.032ZM198.492 150.844C198.057 150.844 197.574 150.747 197.043 150.554C196.521 150.361 196.048 150.086 195.623 149.728L196.348 148.265C196.734 148.381 197.057 148.458 197.318 148.497C197.579 148.545 197.825 148.569 198.057 148.569C198.579 148.569 199.037 148.468 199.433 148.265C199.839 148.072 200.153 147.806 200.375 147.468C200.607 147.13 200.723 146.763 200.723 146.367C200.723 146.039 200.67 145.763 200.564 145.541C200.467 145.309 200.337 145.092 200.172 144.889C200.018 144.677 199.849 144.435 199.665 144.165L202.78 145.672C202.78 145.787 202.78 145.903 202.78 146.019C202.78 146.135 202.78 146.251 202.78 146.367C202.78 146.657 202.732 146.995 202.635 147.381C202.548 147.768 202.404 148.159 202.201 148.555C201.998 148.96 201.727 149.337 201.389 149.685C201.061 150.033 200.655 150.313 200.172 150.525C199.699 150.738 199.139 150.844 198.492 150.844ZM203.925 147.135C203.577 147.135 203.249 147.106 202.94 147.048C202.64 146.98 202.355 146.879 202.085 146.744C201.824 146.608 201.573 146.435 201.331 146.222C201.1 146.01 200.868 145.754 200.636 145.454L198.753 143.035L200.607 140.76L202.433 143.948C202.568 144.179 202.693 144.363 202.809 144.498C202.925 144.633 203.065 144.73 203.229 144.788C203.403 144.836 203.635 144.86 203.925 144.86H204.07V147.135H203.925ZM212.809 147.135C212.268 147.135 211.78 147.135 211.345 147.135C210.911 147.125 210.505 147.096 210.128 147.048C209.761 147 209.409 146.922 209.071 146.816C208.733 146.7 208.39 146.536 208.042 146.324C207.704 146.111 207.342 145.831 206.956 145.483L205.217 143.904V141.079C205.545 140.934 205.927 140.808 206.362 140.702C206.806 140.586 207.255 140.495 207.709 140.427C208.163 140.359 208.569 140.325 208.926 140.325C209.554 140.325 210.124 140.408 210.635 140.572C211.147 140.736 211.553 140.987 211.852 141.325C212.162 141.663 212.316 142.098 212.316 142.629C212.316 142.909 212.277 143.184 212.2 143.455C212.123 143.716 212.017 143.972 211.881 144.223C211.756 144.464 211.611 144.691 211.447 144.904C211.505 144.884 211.563 144.875 211.621 144.875C211.679 144.865 211.732 144.86 211.78 144.86H213.171V147.135H212.809ZM204.072 147.135V144.86H205.927C206.217 144.86 206.453 144.855 206.637 144.846C206.83 144.826 207.018 144.802 207.202 144.773C207.395 144.735 207.636 144.691 207.926 144.643L208.998 146.671C208.506 146.816 207.941 146.932 207.303 147.019C206.675 147.096 206.033 147.135 205.376 147.135H204.072ZM208.926 144.759C209.129 144.585 209.307 144.411 209.462 144.237C209.626 144.063 209.752 143.89 209.839 143.716C209.935 143.542 209.984 143.378 209.984 143.223C209.984 143.136 209.95 143.044 209.882 142.948C209.815 142.842 209.703 142.755 209.549 142.687C209.394 142.619 209.187 142.586 208.926 142.586C208.684 142.586 208.385 142.605 208.028 142.644C207.67 142.673 207.352 142.726 207.071 142.803L208.404 144.208C208.511 144.305 208.602 144.401 208.68 144.498C208.767 144.595 208.849 144.682 208.926 144.759ZM204.072 144.86H204.217V147.135H204.072C203.783 147.135 203.638 146.758 203.638 146.005C203.638 145.242 203.783 144.86 204.072 144.86ZM213.17 147.135V144.86H214.575V136.414H216.908V147.135H213.17ZM213.17 144.86H213.315V147.135H213.17C212.88 147.135 212.735 146.758 212.735 146.005C212.735 145.242 212.88 144.86 213.17 144.86ZM218.909 136.414H221.242V147.135H218.909V136.414Z" fill="#EBF1F8"/>
    <path d="M79.1201 168.839L81.9042 161.648H83.0342L85.7978 168.839H84.6163L82.9726 164.504C82.952 164.456 82.911 164.339 82.8493 164.154C82.7945 163.969 82.7295 163.764 82.6541 163.538C82.5788 163.312 82.5103 163.106 82.4487 162.921C82.387 162.73 82.3459 162.606 82.3254 162.552L82.5617 162.541C82.5206 162.658 82.4692 162.805 82.4076 162.983C82.3528 163.161 82.2911 163.349 82.2226 163.548C82.161 163.747 82.0994 163.935 82.0377 164.113C81.9761 164.284 81.9247 164.428 81.8836 164.545L80.2501 168.839H79.1201ZM80.3529 167.051L80.7638 165.983H84.0308L84.5033 167.051H80.3529ZM87.4139 168.839V162.069H88.4721V168.839H87.4139ZM86.2941 164.473V163.445H89.7254V164.473H86.2941ZM94.5735 171.099V167.555H94.779C94.779 167.719 94.7242 167.883 94.6146 168.048C94.505 168.205 94.3577 168.353 94.1728 168.49C93.9879 168.627 93.7824 168.736 93.5564 168.818C93.3304 168.901 93.0975 168.942 92.8578 168.942C92.3716 168.942 91.9367 168.822 91.5531 168.582C91.1696 168.335 90.8648 168.003 90.6388 167.586C90.4196 167.161 90.31 166.678 90.31 166.137C90.31 165.596 90.4196 165.116 90.6388 164.699C90.8579 164.274 91.1559 163.942 91.5326 163.702C91.9161 163.456 92.3476 163.332 92.827 163.332C93.0941 163.332 93.3475 163.377 93.5872 163.466C93.8338 163.555 94.053 163.671 94.2447 163.815C94.4434 163.959 94.5975 164.12 94.707 164.298C94.8235 164.469 94.8817 164.644 94.8817 164.822L94.5735 164.843V163.435H95.6316V171.099H94.5735ZM92.9708 167.966C93.2927 167.966 93.577 167.887 93.8235 167.729C94.0701 167.572 94.2619 167.356 94.3988 167.082C94.5427 166.808 94.6146 166.493 94.6146 166.137C94.6146 165.781 94.5427 165.466 94.3988 165.192C94.2619 164.911 94.0701 164.692 93.8235 164.534C93.577 164.377 93.2927 164.298 92.9708 164.298C92.6489 164.298 92.3647 164.38 92.1181 164.545C91.8716 164.702 91.6764 164.921 91.5326 165.202C91.3956 165.476 91.3271 165.788 91.3271 166.137C91.3271 166.486 91.3956 166.801 91.5326 167.082C91.6764 167.356 91.8716 167.572 92.1181 167.729C92.3647 167.887 92.6489 167.966 92.9708 167.966ZM100.305 168.839V165.325C100.305 165.024 100.195 164.781 99.9761 164.596C99.7638 164.404 99.4932 164.308 99.1645 164.308C98.8631 164.308 98.5892 164.37 98.3426 164.493C98.1029 164.617 97.8837 164.805 97.6851 165.058L96.9968 164.37C97.3187 164.021 97.6646 163.76 98.0344 163.589C98.4111 163.418 98.8152 163.332 99.2467 163.332C99.6576 163.332 100.014 163.401 100.315 163.538C100.616 163.675 100.849 163.877 101.014 164.144C101.178 164.404 101.26 164.723 101.26 165.099V168.839H100.305ZM98.6919 168.942C98.3426 168.942 98.031 168.873 97.757 168.736C97.4831 168.599 97.2639 168.411 97.0995 168.171C96.942 167.925 96.8632 167.637 96.8632 167.308C96.8632 167.02 96.9146 166.767 97.0173 166.548C97.1201 166.329 97.2708 166.147 97.4694 166.003C97.6748 165.86 97.9283 165.75 98.2296 165.675C98.5378 165.599 98.8905 165.562 99.2878 165.562H100.788L100.695 166.404H99.1542C98.9487 166.404 98.7638 166.425 98.5994 166.466C98.4419 166.5 98.3049 166.558 98.1885 166.64C98.0789 166.716 97.9967 166.808 97.942 166.918C97.8872 167.02 97.8598 167.144 97.8598 167.288C97.8598 167.438 97.8974 167.572 97.9728 167.688C98.0481 167.798 98.1508 167.883 98.281 167.945C98.4111 168.007 98.5618 168.038 98.733 168.038C98.9796 168.038 99.2124 167.996 99.4316 167.914C99.6576 167.825 99.8562 167.705 100.027 167.555C100.206 167.404 100.342 167.236 100.438 167.051L100.685 167.74C100.541 167.979 100.363 168.188 100.151 168.366C99.9384 168.544 99.709 168.685 99.4624 168.788C99.2159 168.89 98.959 168.942 98.6919 168.942ZM102.598 168.839V163.445H103.656V164.555L103.471 164.678C103.539 164.438 103.673 164.219 103.872 164.021C104.07 163.815 104.306 163.651 104.58 163.528C104.854 163.397 105.135 163.332 105.423 163.332C105.834 163.332 106.176 163.415 106.45 163.579C106.724 163.736 106.93 163.98 107.067 164.308C107.204 164.637 107.272 165.051 107.272 165.551V168.839H106.214V165.623C106.214 165.315 106.173 165.062 106.091 164.863C106.008 164.658 105.882 164.51 105.71 164.421C105.539 164.325 105.327 164.284 105.074 164.298C104.868 164.298 104.68 164.332 104.508 164.401C104.337 164.462 104.187 164.551 104.056 164.668C103.933 164.784 103.834 164.921 103.759 165.079C103.69 165.229 103.656 165.394 103.656 165.572V168.839H103.132C103.043 168.839 102.954 168.839 102.865 168.839C102.776 168.839 102.687 168.839 102.598 168.839ZM115.07 168.942C114.549 168.942 114.063 168.849 113.611 168.664C113.159 168.472 112.761 168.209 112.419 167.873C112.077 167.538 111.809 167.147 111.618 166.702C111.433 166.25 111.34 165.764 111.34 165.243C111.34 164.73 111.433 164.25 111.618 163.805C111.809 163.36 112.073 162.973 112.409 162.644C112.751 162.308 113.148 162.048 113.6 161.863C114.052 161.678 114.539 161.586 115.059 161.586C115.422 161.586 115.775 161.637 116.117 161.74C116.467 161.843 116.782 161.987 117.063 162.171C117.343 162.356 117.573 162.569 117.751 162.808L117.032 163.558C116.724 163.264 116.402 163.041 116.066 162.891C115.737 162.74 115.402 162.665 115.059 162.665C114.689 162.665 114.347 162.73 114.032 162.86C113.724 162.99 113.45 163.171 113.21 163.404C112.977 163.637 112.796 163.911 112.666 164.226C112.535 164.534 112.47 164.873 112.47 165.243C112.47 165.599 112.539 165.938 112.676 166.26C112.813 166.575 113.001 166.853 113.241 167.092C113.487 167.332 113.768 167.52 114.083 167.657C114.405 167.794 114.744 167.863 115.1 167.863C115.367 167.863 115.621 167.825 115.861 167.75C116.1 167.668 116.313 167.555 116.498 167.411C116.682 167.267 116.826 167.103 116.929 166.918C117.032 166.726 117.083 166.524 117.083 166.312V166.106L117.237 166.25H115.039V165.151H118.223C118.237 165.226 118.247 165.301 118.254 165.377C118.261 165.445 118.265 165.514 118.265 165.582C118.271 165.644 118.275 165.705 118.275 165.767C118.275 166.24 118.193 166.671 118.028 167.062C117.864 167.445 117.634 167.777 117.34 168.058C117.052 168.339 116.713 168.558 116.323 168.716C115.939 168.866 115.522 168.942 115.07 168.942ZM121.343 168.942C120.959 168.942 120.624 168.853 120.336 168.674C120.055 168.496 119.836 168.246 119.678 167.925C119.528 167.603 119.452 167.219 119.452 166.774V163.445H120.511V166.486C120.511 166.959 120.62 167.332 120.839 167.606C121.065 167.88 121.377 168.017 121.774 168.017C121.973 168.017 122.154 167.986 122.319 167.925C122.483 167.856 122.623 167.764 122.74 167.647C122.863 167.531 122.959 167.39 123.028 167.226C123.096 167.062 123.13 166.884 123.13 166.692V163.445H124.188V168.839H123.13V167.709L123.315 167.586C123.233 167.839 123.093 168.068 122.894 168.274C122.702 168.479 122.473 168.644 122.206 168.767C121.939 168.883 121.651 168.942 121.343 168.942ZM125.693 168.839V161.237H126.751V168.839H125.693ZM128.837 168.839V162.839C128.837 162.531 128.905 162.257 129.042 162.017C129.179 161.778 129.367 161.589 129.607 161.452C129.847 161.315 130.124 161.247 130.439 161.247C130.658 161.247 130.864 161.288 131.056 161.37C131.247 161.452 131.401 161.562 131.518 161.699L131.158 162.51C131.069 162.428 130.97 162.363 130.86 162.315C130.758 162.26 130.658 162.233 130.563 162.233C130.419 162.233 130.295 162.257 130.193 162.305C130.097 162.346 130.025 162.415 129.977 162.51C129.929 162.6 129.905 162.709 129.905 162.839V168.839H129.371C129.282 168.839 129.193 168.839 129.104 168.839C129.015 168.839 128.926 168.839 128.837 168.839ZM127.974 164.514V163.538H131.179V164.514H127.974ZM134.681 168.839L137.465 161.648H138.595L141.358 168.839H140.177L138.533 164.504C138.513 164.456 138.471 164.339 138.41 164.154C138.355 163.969 138.29 163.764 138.215 163.538C138.139 163.312 138.071 163.106 138.009 162.921C137.948 162.73 137.906 162.606 137.886 162.552L138.122 162.541C138.081 162.658 138.03 162.805 137.968 162.983C137.913 163.161 137.852 163.349 137.783 163.548C137.722 163.747 137.66 163.935 137.598 164.113C137.537 164.284 137.485 164.428 137.444 164.545L135.811 168.839H134.681ZM135.913 167.051L136.324 165.983H139.591L140.064 167.051H135.913ZM142.357 168.839V163.445H143.425V165.14L143.323 164.73C143.398 164.469 143.525 164.233 143.703 164.021C143.888 163.808 144.096 163.641 144.329 163.517C144.569 163.394 144.816 163.332 145.069 163.332C145.185 163.332 145.295 163.343 145.398 163.363C145.507 163.384 145.593 163.408 145.655 163.435L145.377 164.586C145.295 164.551 145.203 164.524 145.1 164.504C145.004 164.476 144.908 164.462 144.812 164.462C144.627 164.462 144.449 164.5 144.278 164.575C144.114 164.644 143.966 164.743 143.836 164.873C143.713 164.997 143.614 165.144 143.538 165.315C143.463 165.479 143.425 165.661 143.425 165.86V168.839H142.357ZM149.465 168.839V165.325C149.465 165.024 149.355 164.781 149.136 164.596C148.923 164.404 148.653 164.308 148.324 164.308C148.023 164.308 147.749 164.37 147.502 164.493C147.263 164.617 147.043 164.805 146.845 165.058L146.157 164.37C146.478 164.021 146.824 163.76 147.194 163.589C147.571 163.418 147.975 163.332 148.406 163.332C148.817 163.332 149.173 163.401 149.475 163.538C149.776 163.675 150.009 163.877 150.173 164.144C150.338 164.404 150.42 164.723 150.42 165.099V168.839H149.465ZM147.852 168.942C147.502 168.942 147.191 168.873 146.917 168.736C146.643 168.599 146.424 168.411 146.259 168.171C146.102 167.925 146.023 167.637 146.023 167.308C146.023 167.02 146.074 166.767 146.177 166.548C146.28 166.329 146.43 166.147 146.629 166.003C146.835 165.86 147.088 165.75 147.389 165.675C147.698 165.599 148.05 165.562 148.447 165.562H149.947L149.855 166.404H148.314C148.108 166.404 147.924 166.425 147.759 166.466C147.602 166.5 147.465 166.558 147.348 166.64C147.239 166.716 147.156 166.808 147.102 166.918C147.047 167.02 147.019 167.144 147.019 167.288C147.019 167.438 147.057 167.572 147.133 167.688C147.208 167.798 147.311 167.883 147.441 167.945C147.571 168.007 147.722 168.038 147.893 168.038C148.139 168.038 148.372 167.996 148.591 167.914C148.817 167.825 149.016 167.705 149.187 167.555C149.365 167.404 149.502 167.236 149.598 167.051L149.845 167.74C149.701 167.979 149.523 168.188 149.31 168.366C149.098 168.544 148.869 168.685 148.622 168.788C148.376 168.89 148.119 168.942 147.852 168.942ZM154.593 168.942C154.36 168.942 154.127 168.904 153.894 168.829C153.668 168.753 153.459 168.654 153.268 168.531C153.083 168.401 152.925 168.26 152.795 168.109C152.672 167.952 152.59 167.794 152.548 167.637L152.816 167.493V168.808H151.757V161.237H152.816V164.678L152.651 164.586C152.685 164.428 152.761 164.277 152.877 164.134C152.994 163.983 153.141 163.849 153.319 163.733C153.504 163.61 153.702 163.514 153.915 163.445C154.127 163.37 154.343 163.332 154.562 163.332C155.048 163.332 155.48 163.452 155.856 163.692C156.233 163.932 156.531 164.264 156.75 164.688C156.969 165.106 157.079 165.586 157.079 166.127C157.079 166.668 156.969 167.151 156.75 167.575C156.538 168 156.243 168.335 155.867 168.582C155.49 168.822 155.065 168.942 154.593 168.942ZM154.418 167.976C154.733 167.976 155.014 167.897 155.261 167.74C155.507 167.575 155.702 167.356 155.846 167.082C155.99 166.801 156.062 166.483 156.062 166.127C156.062 165.777 155.99 165.466 155.846 165.192C155.709 164.911 155.517 164.692 155.271 164.534C155.024 164.377 154.74 164.298 154.418 164.298C154.096 164.298 153.812 164.377 153.565 164.534C153.319 164.692 153.124 164.911 152.98 165.192C152.836 165.466 152.764 165.777 152.764 166.127C152.764 166.483 152.836 166.801 152.98 167.082C153.124 167.356 153.319 167.575 153.565 167.74C153.812 167.897 154.096 167.976 154.418 167.976ZM164.292 168.942C163.793 168.942 163.334 168.853 162.916 168.674C162.498 168.496 162.135 168.243 161.827 167.914C161.519 167.579 161.279 167.185 161.108 166.733C160.943 166.281 160.861 165.784 160.861 165.243C160.861 164.73 160.95 164.254 161.128 163.815C161.313 163.37 161.567 162.98 161.889 162.644C162.21 162.308 162.584 162.048 163.008 161.863C163.433 161.678 163.892 161.586 164.385 161.586C164.734 161.586 165.073 161.641 165.402 161.75C165.738 161.853 166.039 162 166.306 162.192C166.58 162.377 166.803 162.589 166.974 162.829L166.234 163.599C165.94 163.298 165.638 163.072 165.33 162.921C165.022 162.771 164.707 162.695 164.385 162.695C164.049 162.695 163.734 162.76 163.44 162.891C163.152 163.014 162.899 163.189 162.68 163.415C162.467 163.641 162.299 163.911 162.176 164.226C162.053 164.534 161.991 164.873 161.991 165.243C161.991 165.634 162.049 165.99 162.166 166.312C162.289 166.627 162.46 166.897 162.68 167.123C162.899 167.349 163.159 167.524 163.46 167.647C163.769 167.764 164.108 167.822 164.477 167.822C164.703 167.822 164.926 167.791 165.145 167.729C165.364 167.668 165.57 167.579 165.762 167.462C165.953 167.346 166.128 167.209 166.286 167.051L166.84 167.955C166.683 168.14 166.467 168.308 166.193 168.459C165.926 168.609 165.625 168.729 165.289 168.818C164.96 168.901 164.628 168.942 164.292 168.942ZM170.505 168.942C169.978 168.942 169.505 168.822 169.087 168.582C168.676 168.335 168.351 168.003 168.111 167.586C167.872 167.161 167.752 166.678 167.752 166.137C167.752 165.596 167.872 165.116 168.111 164.699C168.351 164.274 168.676 163.942 169.087 163.702C169.505 163.456 169.978 163.332 170.505 163.332C171.025 163.332 171.491 163.456 171.902 163.702C172.32 163.942 172.649 164.274 172.888 164.699C173.128 165.116 173.248 165.596 173.248 166.137C173.248 166.678 173.128 167.161 172.888 167.586C172.649 168.003 172.32 168.335 171.902 168.582C171.491 168.822 171.025 168.942 170.505 168.942ZM170.505 167.976C170.827 167.976 171.114 167.897 171.368 167.74C171.621 167.575 171.82 167.356 171.964 167.082C172.108 166.801 172.176 166.486 172.169 166.137C172.176 165.781 172.108 165.466 171.964 165.192C171.82 164.911 171.621 164.692 171.368 164.534C171.114 164.377 170.827 164.298 170.505 164.298C170.183 164.298 169.892 164.38 169.632 164.545C169.378 164.702 169.18 164.921 169.036 165.202C168.892 165.476 168.824 165.788 168.83 166.137C168.824 166.486 168.892 166.801 169.036 167.082C169.18 167.356 169.378 167.575 169.632 167.74C169.892 167.897 170.183 167.976 170.505 167.976ZM174.832 168.952C174.606 168.952 174.432 168.887 174.308 168.757C174.185 168.62 174.124 168.428 174.124 168.181C174.124 167.955 174.189 167.77 174.319 167.627C174.449 167.483 174.62 167.411 174.832 167.411C175.058 167.411 175.233 167.479 175.356 167.616C175.48 167.746 175.541 167.935 175.541 168.181C175.541 168.407 175.476 168.592 175.346 168.736C175.216 168.88 175.045 168.952 174.832 168.952ZM179.885 168.839V161.648H180.995V168.839H179.885ZM180.378 165.777V164.709H184.087V165.777H180.378ZM180.378 162.716V161.648H184.549V162.716H180.378ZM185.973 168.839V163.445H187.031V168.839H185.973ZM186.486 162.254C186.26 162.254 186.086 162.195 185.962 162.079C185.839 161.963 185.777 161.798 185.777 161.586C185.777 161.387 185.839 161.226 185.962 161.103C186.092 160.98 186.267 160.918 186.486 160.918C186.712 160.918 186.887 160.976 187.01 161.093C187.134 161.209 187.195 161.374 187.195 161.586C187.195 161.784 187.13 161.945 187 162.069C186.877 162.192 186.705 162.254 186.486 162.254ZM188.657 168.839V163.445H189.715V164.555L189.53 164.678C189.599 164.438 189.733 164.219 189.931 164.021C190.13 163.815 190.366 163.651 190.64 163.528C190.914 163.397 191.195 163.332 191.482 163.332C191.893 163.332 192.236 163.415 192.51 163.579C192.784 163.736 192.989 163.98 193.126 164.308C193.263 164.637 193.332 165.051 193.332 165.551V168.839H192.273V165.623C192.273 165.315 192.232 165.062 192.15 164.863C192.068 164.658 191.941 164.51 191.77 164.421C191.599 164.325 191.387 164.284 191.133 164.298C190.928 164.298 190.739 164.332 190.568 164.401C190.397 164.462 190.246 164.551 190.116 164.668C189.993 164.784 189.893 164.921 189.818 165.079C189.75 165.229 189.715 165.394 189.715 165.572V168.839H189.191C189.102 168.839 189.013 168.839 188.924 168.839C188.835 168.839 188.746 168.839 188.657 168.839ZM197.962 168.839V165.325C197.962 165.024 197.853 164.781 197.633 164.596C197.421 164.404 197.151 164.308 196.822 164.308C196.52 164.308 196.246 164.37 196 164.493C195.76 164.617 195.541 164.805 195.342 165.058L194.654 164.37C194.976 164.021 195.322 163.76 195.692 163.589C196.068 163.418 196.472 163.332 196.904 163.332C197.315 163.332 197.671 163.401 197.972 163.538C198.274 163.675 198.507 163.877 198.671 164.144C198.835 164.404 198.918 164.723 198.918 165.099V168.839H197.962ZM196.349 168.942C196 168.942 195.688 168.873 195.414 168.736C195.14 168.599 194.921 168.411 194.757 168.171C194.599 167.925 194.521 167.637 194.521 167.308C194.521 167.02 194.572 166.767 194.675 166.548C194.777 166.329 194.928 166.147 195.127 166.003C195.332 165.86 195.586 165.75 195.887 165.675C196.195 165.599 196.548 165.562 196.945 165.562H198.445L198.353 166.404H196.812C196.606 166.404 196.421 166.425 196.257 166.466C196.099 166.5 195.962 166.558 195.846 166.64C195.736 166.716 195.654 166.808 195.599 166.918C195.544 167.02 195.517 167.144 195.517 167.288C195.517 167.438 195.555 167.572 195.63 167.688C195.705 167.798 195.808 167.883 195.938 167.945C196.068 168.007 196.219 168.038 196.39 168.038C196.637 168.038 196.87 167.996 197.089 167.914C197.315 167.825 197.514 167.705 197.685 167.555C197.863 167.404 198 167.236 198.096 167.051L198.342 167.74C198.198 167.979 198.02 168.188 197.808 168.366C197.596 168.544 197.366 168.685 197.12 168.788C196.873 168.89 196.616 168.942 196.349 168.942ZM200.255 168.839V163.445H201.313V164.555L201.128 164.678C201.197 164.438 201.33 164.219 201.529 164.021C201.727 163.815 201.964 163.651 202.238 163.528C202.512 163.397 202.792 163.332 203.08 163.332C203.491 163.332 203.833 163.415 204.107 163.579C204.381 163.736 204.587 163.98 204.724 164.308C204.861 164.637 204.929 165.051 204.929 165.551V168.839H203.871V165.623C203.871 165.315 203.83 165.062 203.748 164.863C203.666 164.658 203.539 164.51 203.368 164.421C203.197 164.325 202.984 164.284 202.731 164.298C202.525 164.298 202.337 164.332 202.166 164.401C201.995 164.462 201.844 164.551 201.714 164.668C201.59 164.784 201.491 164.921 201.416 165.079C201.347 165.229 201.313 165.394 201.313 165.572V168.839H200.789C200.7 168.839 200.611 168.839 200.522 168.839C200.433 168.839 200.344 168.839 200.255 168.839ZM208.656 168.942C208.156 168.942 207.707 168.818 207.31 168.572C206.92 168.325 206.608 167.99 206.375 167.565C206.149 167.14 206.036 166.664 206.036 166.137C206.036 165.61 206.149 165.134 206.375 164.709C206.608 164.284 206.92 163.949 207.31 163.702C207.707 163.456 208.156 163.332 208.656 163.332C209.135 163.332 209.57 163.432 209.96 163.63C210.358 163.822 210.659 164.086 210.865 164.421L210.279 165.14C210.169 164.983 210.029 164.839 209.858 164.709C209.687 164.579 209.505 164.476 209.313 164.401C209.121 164.325 208.937 164.288 208.758 164.288C208.43 164.288 208.135 164.37 207.875 164.534C207.622 164.692 207.42 164.911 207.269 165.192C207.118 165.473 207.043 165.788 207.043 166.137C207.043 166.486 207.122 166.801 207.279 167.082C207.437 167.356 207.646 167.575 207.906 167.74C208.166 167.904 208.454 167.986 208.769 167.986C208.954 167.986 209.132 167.955 209.303 167.894C209.481 167.832 209.652 167.74 209.817 167.616C209.981 167.493 210.135 167.342 210.279 167.164L210.865 167.883C210.645 168.192 210.33 168.445 209.919 168.644C209.515 168.842 209.094 168.942 208.656 168.942ZM212.037 168.839V163.445H213.095V168.839H212.037ZM212.551 162.254C212.325 162.254 212.15 162.195 212.027 162.079C211.904 161.963 211.842 161.798 211.842 161.586C211.842 161.387 211.904 161.226 212.027 161.103C212.157 160.98 212.332 160.918 212.551 160.918C212.777 160.918 212.952 160.976 213.075 161.093C213.198 161.209 213.26 161.374 213.26 161.586C213.26 161.784 213.195 161.945 213.065 162.069C212.941 162.192 212.77 162.254 212.551 162.254ZM217.917 168.839V165.325C217.917 165.024 217.807 164.781 217.588 164.596C217.376 164.404 217.105 164.308 216.777 164.308C216.475 164.308 216.201 164.37 215.955 164.493C215.715 164.617 215.496 164.805 215.297 165.058L214.609 164.37C214.931 164.021 215.277 163.76 215.647 163.589C216.023 163.418 216.427 163.332 216.859 163.332C217.27 163.332 217.626 163.401 217.927 163.538C218.229 163.675 218.461 163.877 218.626 164.144C218.79 164.404 218.872 164.723 218.872 165.099V168.839H217.917ZM216.304 168.942C215.955 168.942 215.643 168.873 215.369 168.736C215.095 168.599 214.876 168.411 214.712 168.171C214.554 167.925 214.475 167.637 214.475 167.308C214.475 167.02 214.527 166.767 214.629 166.548C214.732 166.329 214.883 166.147 215.082 166.003C215.287 165.86 215.54 165.75 215.842 165.675C216.15 165.599 216.503 165.562 216.9 165.562H218.4L218.307 166.404H216.766C216.561 166.404 216.376 166.425 216.212 166.466C216.054 166.5 215.917 166.558 215.801 166.64C215.691 166.716 215.609 166.808 215.554 166.918C215.499 167.02 215.472 167.144 215.472 167.288C215.472 167.438 215.51 167.572 215.585 167.688C215.66 167.798 215.763 167.883 215.893 167.945C216.023 168.007 216.174 168.038 216.345 168.038C216.592 168.038 216.825 167.996 217.044 167.914C217.27 167.825 217.468 167.705 217.64 167.555C217.818 167.404 217.955 167.236 218.051 167.051L218.297 167.74C218.153 167.979 217.975 168.188 217.763 168.366C217.551 168.544 217.321 168.685 217.075 168.788C216.828 168.89 216.571 168.942 216.304 168.942ZM220.23 168.839V161.237H221.288V168.839H220.23ZM99.8168 181.839V175.716H97.8032V174.648H103.002V175.716H100.926V181.839H99.8168ZM105.596 181.942C105.041 181.942 104.548 181.825 104.117 181.592C103.692 181.353 103.357 181.027 103.11 180.616C102.87 180.205 102.75 179.733 102.75 179.199C102.75 178.774 102.819 178.387 102.956 178.038C103.093 177.688 103.281 177.387 103.521 177.134C103.768 176.873 104.059 176.675 104.394 176.538C104.737 176.394 105.106 176.322 105.504 176.322C105.853 176.322 106.178 176.391 106.48 176.528C106.781 176.658 107.041 176.839 107.26 177.072C107.486 177.305 107.658 177.582 107.774 177.904C107.897 178.219 107.956 178.565 107.949 178.942L107.939 179.394H103.531L103.295 178.551H107.024L106.87 178.726V178.479C106.85 178.253 106.774 178.051 106.644 177.873C106.514 177.695 106.35 177.555 106.151 177.452C105.952 177.349 105.737 177.298 105.504 177.298C105.134 177.298 104.822 177.37 104.569 177.514C104.315 177.651 104.124 177.856 103.994 178.13C103.863 178.397 103.798 178.729 103.798 179.127C103.798 179.503 103.877 179.832 104.035 180.113C104.192 180.387 104.415 180.599 104.702 180.75C104.99 180.901 105.322 180.976 105.699 180.976C105.966 180.976 106.213 180.931 106.439 180.842C106.671 180.753 106.921 180.592 107.189 180.36L107.723 181.109C107.558 181.274 107.356 181.418 107.117 181.541C106.884 181.664 106.634 181.764 106.367 181.839C106.106 181.907 105.85 181.942 105.596 181.942ZM111.39 181.942C110.89 181.942 110.441 181.818 110.044 181.572C109.654 181.325 109.342 180.99 109.109 180.565C108.883 180.14 108.77 179.664 108.77 179.137C108.77 178.61 108.883 178.134 109.109 177.709C109.342 177.284 109.654 176.949 110.044 176.702C110.441 176.456 110.89 176.332 111.39 176.332C111.869 176.332 112.304 176.432 112.694 176.63C113.092 176.822 113.393 177.086 113.599 177.421L113.013 178.14C112.903 177.983 112.763 177.839 112.592 177.709C112.42 177.579 112.239 177.476 112.047 177.401C111.855 177.325 111.671 177.288 111.492 177.288C111.164 177.288 110.869 177.37 110.609 177.534C110.356 177.692 110.153 177.911 110.003 178.192C109.852 178.473 109.777 178.788 109.777 179.137C109.777 179.486 109.856 179.801 110.013 180.082C110.171 180.356 110.38 180.575 110.64 180.74C110.9 180.904 111.188 180.986 111.503 180.986C111.688 180.986 111.866 180.955 112.037 180.894C112.215 180.832 112.386 180.74 112.551 180.616C112.715 180.493 112.869 180.342 113.013 180.164L113.599 180.883C113.379 181.192 113.064 181.445 112.653 181.644C112.249 181.842 111.828 181.942 111.39 181.942ZM114.597 181.839V174.237H115.655V177.555L115.47 177.678C115.538 177.438 115.672 177.219 115.871 177.021C116.069 176.815 116.305 176.651 116.579 176.528C116.853 176.397 117.134 176.332 117.422 176.332C117.833 176.332 118.175 176.415 118.449 176.579C118.723 176.736 118.929 176.98 119.066 177.308C119.203 177.637 119.271 178.051 119.271 178.551V181.839H118.213V178.623C118.213 178.315 118.172 178.062 118.09 177.863C118.007 177.658 117.881 177.51 117.709 177.421C117.538 177.325 117.326 177.284 117.073 177.298C116.867 177.298 116.679 177.332 116.507 177.401C116.336 177.462 116.186 177.551 116.055 177.668C115.932 177.784 115.833 177.921 115.758 178.079C115.689 178.229 115.655 178.394 115.655 178.572V181.839H115.131C115.042 181.839 114.953 181.839 114.864 181.839C114.775 181.839 114.686 181.839 114.597 181.839ZM120.706 181.839V176.445H121.765V177.555L121.58 177.678C121.648 177.438 121.782 177.219 121.98 177.021C122.179 176.815 122.415 176.651 122.689 176.528C122.963 176.397 123.244 176.332 123.532 176.332C123.943 176.332 124.285 176.415 124.559 176.579C124.833 176.736 125.038 176.98 125.175 177.308C125.312 177.637 125.381 178.051 125.381 178.551V181.839H124.323V178.623C124.323 178.315 124.282 178.062 124.199 177.863C124.117 177.658 123.991 177.51 123.819 177.421C123.648 177.325 123.436 177.284 123.182 177.298C122.977 177.298 122.789 177.332 122.617 177.401C122.446 177.462 122.295 177.551 122.165 177.668C122.042 177.784 121.943 177.921 121.867 178.079C121.799 178.229 121.765 178.394 121.765 178.572V181.839H121.241C121.152 181.839 121.063 181.839 120.974 181.839C120.885 181.839 120.796 181.839 120.706 181.839ZM129.241 181.942C128.713 181.942 128.241 181.822 127.823 181.582C127.412 181.335 127.087 181.003 126.847 180.586C126.607 180.161 126.488 179.678 126.488 179.137C126.488 178.596 126.607 178.116 126.847 177.699C127.087 177.274 127.412 176.942 127.823 176.702C128.241 176.456 128.713 176.332 129.241 176.332C129.761 176.332 130.227 176.456 130.638 176.702C131.056 176.942 131.385 177.274 131.624 177.699C131.864 178.116 131.984 178.596 131.984 179.137C131.984 179.678 131.864 180.161 131.624 180.586C131.385 181.003 131.056 181.335 130.638 181.582C130.227 181.822 129.761 181.942 129.241 181.942ZM129.241 180.976C129.563 180.976 129.85 180.897 130.104 180.74C130.357 180.575 130.556 180.356 130.7 180.082C130.843 179.801 130.912 179.486 130.905 179.137C130.912 178.781 130.843 178.466 130.7 178.192C130.556 177.911 130.357 177.692 130.104 177.534C129.85 177.377 129.563 177.298 129.241 177.298C128.919 177.298 128.628 177.38 128.368 177.545C128.114 177.702 127.916 177.921 127.772 178.202C127.628 178.476 127.559 178.788 127.566 179.137C127.559 179.486 127.628 179.801 127.772 180.082C127.916 180.356 128.114 180.575 128.368 180.74C128.628 180.897 128.919 180.976 129.241 180.976ZM133.157 181.839V174.237H134.216V181.839H133.157ZM138.039 181.942C137.512 181.942 137.039 181.822 136.622 181.582C136.211 181.335 135.885 181.003 135.646 180.586C135.406 180.161 135.286 179.678 135.286 179.137C135.286 178.596 135.406 178.116 135.646 177.699C135.885 177.274 136.211 176.942 136.622 176.702C137.039 176.456 137.512 176.332 138.039 176.332C138.56 176.332 139.026 176.456 139.437 176.702C139.854 176.942 140.183 177.274 140.423 177.699C140.663 178.116 140.782 178.596 140.782 179.137C140.782 179.678 140.663 180.161 140.423 180.586C140.183 181.003 139.854 181.335 139.437 181.582C139.026 181.822 138.56 181.942 138.039 181.942ZM138.039 180.976C138.361 180.976 138.649 180.897 138.902 180.74C139.156 180.575 139.354 180.356 139.498 180.082C139.642 179.801 139.711 179.486 139.704 179.137C139.711 178.781 139.642 178.466 139.498 178.192C139.354 177.911 139.156 177.692 138.902 177.534C138.649 177.377 138.361 177.298 138.039 177.298C137.718 177.298 137.426 177.38 137.166 177.545C136.913 177.702 136.714 177.921 136.57 178.202C136.427 178.476 136.358 178.788 136.365 179.137C136.358 179.486 136.427 179.801 136.57 180.082C136.714 180.356 136.913 180.575 137.166 180.74C137.426 180.897 137.718 180.976 138.039 180.976ZM144.35 184.202C143.966 184.202 143.583 184.14 143.199 184.017C142.822 183.9 142.518 183.746 142.285 183.555L142.675 182.733C142.881 182.89 143.134 183.017 143.435 183.113C143.744 183.209 144.048 183.257 144.35 183.257C144.726 183.257 145.041 183.195 145.295 183.072C145.548 182.948 145.74 182.767 145.87 182.527C146 182.287 146.065 181.99 146.065 181.633V180.596L146.178 180.668C146.144 180.88 146.031 181.085 145.839 181.284C145.654 181.476 145.422 181.633 145.141 181.757C144.86 181.88 144.572 181.942 144.278 181.942C143.764 181.942 143.305 181.822 142.901 181.582C142.504 181.335 142.189 181.003 141.956 180.586C141.723 180.161 141.607 179.678 141.607 179.137C141.607 178.596 141.72 178.116 141.946 177.699C142.179 177.274 142.494 176.942 142.891 176.702C143.295 176.456 143.747 176.332 144.247 176.332C144.452 176.332 144.651 176.36 144.843 176.415C145.035 176.462 145.213 176.534 145.377 176.63C145.541 176.719 145.689 176.819 145.819 176.928C145.949 177.038 146.055 177.154 146.137 177.277C146.219 177.401 146.271 177.517 146.291 177.627L146.065 177.709V176.445H147.124V181.51C147.124 181.942 147.058 182.322 146.928 182.65C146.805 182.986 146.624 183.267 146.384 183.493C146.144 183.726 145.853 183.9 145.511 184.017C145.168 184.14 144.781 184.202 144.35 184.202ZM144.391 180.966C144.726 180.966 145.024 180.887 145.285 180.729C145.545 180.572 145.747 180.356 145.891 180.082C146.035 179.808 146.106 179.493 146.106 179.137C146.106 178.781 146.031 178.466 145.88 178.192C145.737 177.911 145.535 177.692 145.274 177.534C145.021 177.377 144.726 177.298 144.391 177.298C144.062 177.298 143.768 177.38 143.507 177.545C143.254 177.702 143.052 177.921 142.901 178.202C142.757 178.476 142.685 178.788 142.685 179.137C142.685 179.486 142.757 179.801 142.901 180.082C143.052 180.356 143.254 180.572 143.507 180.729C143.768 180.887 144.062 180.966 144.391 180.966ZM149.511 184.202L150.6 181.685L150.61 182.527L147.919 176.445H149.152L150.836 180.411C150.871 180.479 150.912 180.586 150.96 180.729C151.008 180.866 151.049 181.003 151.083 181.14L150.816 181.202C150.871 181.058 150.922 180.914 150.97 180.77C151.025 180.627 151.076 180.483 151.124 180.339L152.532 176.445H153.785L151.566 181.839L150.652 184.202H149.511ZM160.641 181.942C160.141 181.942 159.682 181.853 159.264 181.674C158.846 181.496 158.483 181.243 158.175 180.914C157.867 180.579 157.627 180.185 157.456 179.733C157.292 179.281 157.209 178.784 157.209 178.243C157.209 177.73 157.298 177.254 157.476 176.815C157.661 176.37 157.915 175.98 158.237 175.644C158.559 175.308 158.932 175.048 159.356 174.863C159.781 174.678 160.24 174.586 160.733 174.586C161.082 174.586 161.421 174.641 161.75 174.75C162.086 174.853 162.387 175 162.654 175.192C162.928 175.377 163.151 175.589 163.322 175.829L162.582 176.599C162.288 176.298 161.986 176.072 161.678 175.921C161.37 175.771 161.055 175.695 160.733 175.695C160.397 175.695 160.082 175.76 159.788 175.891C159.5 176.014 159.247 176.189 159.028 176.415C158.815 176.641 158.648 176.911 158.524 177.226C158.401 177.534 158.339 177.873 158.339 178.243C158.339 178.634 158.398 178.99 158.514 179.312C158.637 179.627 158.809 179.897 159.028 180.123C159.247 180.349 159.507 180.524 159.808 180.647C160.117 180.764 160.456 180.822 160.826 180.822C161.052 180.822 161.274 180.791 161.493 180.729C161.712 180.668 161.918 180.579 162.11 180.462C162.301 180.346 162.476 180.209 162.634 180.051L163.188 180.955C163.031 181.14 162.815 181.308 162.541 181.459C162.274 181.609 161.973 181.729 161.637 181.818C161.308 181.901 160.976 181.942 160.641 181.942ZM166.853 181.942C166.326 181.942 165.853 181.822 165.435 181.582C165.024 181.335 164.699 181.003 164.459 180.586C164.22 180.161 164.1 179.678 164.1 179.137C164.1 178.596 164.22 178.116 164.459 177.699C164.699 177.274 165.024 176.942 165.435 176.702C165.853 176.456 166.326 176.332 166.853 176.332C167.374 176.332 167.839 176.456 168.25 176.702C168.668 176.942 168.997 177.274 169.236 177.699C169.476 178.116 169.596 178.596 169.596 179.137C169.596 179.678 169.476 180.161 169.236 180.586C168.997 181.003 168.668 181.335 168.25 181.582C167.839 181.822 167.374 181.942 166.853 181.942ZM166.853 180.976C167.175 180.976 167.463 180.897 167.716 180.74C167.969 180.575 168.168 180.356 168.312 180.082C168.456 179.801 168.524 179.486 168.517 179.137C168.524 178.781 168.456 178.466 168.312 178.192C168.168 177.911 167.969 177.692 167.716 177.534C167.463 177.377 167.175 177.298 166.853 177.298C166.531 177.298 166.24 177.38 165.98 177.545C165.726 177.702 165.528 177.921 165.384 178.202C165.24 178.476 165.172 178.788 165.178 179.137C165.172 179.486 165.24 179.801 165.384 180.082C165.528 180.356 165.726 180.575 165.98 180.74C166.24 180.897 166.531 180.976 166.853 180.976ZM170.729 181.839V176.445H171.797V177.596L171.602 177.719C171.657 177.541 171.742 177.37 171.859 177.206C171.982 177.041 172.129 176.897 172.3 176.774C172.478 176.644 172.667 176.541 172.865 176.466C173.071 176.391 173.28 176.353 173.492 176.353C173.8 176.353 174.071 176.404 174.304 176.507C174.537 176.61 174.728 176.764 174.879 176.969C175.03 177.175 175.139 177.432 175.208 177.74L175.043 177.699L175.115 177.524C175.191 177.367 175.293 177.219 175.423 177.082C175.56 176.938 175.715 176.812 175.886 176.702C176.057 176.593 176.238 176.507 176.43 176.445C176.622 176.384 176.81 176.353 176.995 176.353C177.399 176.353 177.732 176.435 177.992 176.599C178.259 176.764 178.458 177.014 178.588 177.349C178.725 177.685 178.793 178.103 178.793 178.603V181.839H177.725V178.664C177.725 178.206 177.636 177.87 177.458 177.658C177.286 177.438 177.016 177.329 176.646 177.329C176.454 177.329 176.273 177.363 176.101 177.432C175.937 177.493 175.793 177.582 175.67 177.699C175.547 177.815 175.451 177.952 175.382 178.11C175.314 178.26 175.28 178.428 175.28 178.613V181.839H174.211V178.644C174.211 178.219 174.119 177.894 173.934 177.668C173.756 177.442 173.495 177.329 173.153 177.329C172.961 177.329 172.783 177.363 172.619 177.432C172.454 177.493 172.311 177.582 172.187 177.699C172.064 177.808 171.968 177.942 171.9 178.099C171.831 178.25 171.797 178.414 171.797 178.592V181.839H170.729ZM180.21 184.099V176.445H181.278V177.678L181.114 177.586C181.155 177.38 181.271 177.185 181.463 177C181.655 176.808 181.888 176.654 182.162 176.538C182.443 176.415 182.73 176.353 183.025 176.353C183.511 176.353 183.942 176.473 184.319 176.712C184.696 176.952 184.994 177.281 185.213 177.699C185.432 178.116 185.542 178.596 185.542 179.137C185.542 179.671 185.432 180.151 185.213 180.575C185.001 180.993 184.706 181.325 184.329 181.572C183.953 181.811 183.528 181.931 183.056 181.931C182.74 181.931 182.436 181.87 182.141 181.746C181.847 181.616 181.597 181.452 181.391 181.253C181.186 181.055 181.059 180.849 181.011 180.637L181.278 180.493V184.099H180.21ZM182.881 180.955C183.196 180.955 183.477 180.877 183.723 180.719C183.97 180.562 184.165 180.346 184.309 180.072C184.453 179.798 184.525 179.486 184.525 179.137C184.525 178.788 184.453 178.479 184.309 178.212C184.172 177.938 183.98 177.723 183.734 177.565C183.487 177.408 183.203 177.329 182.881 177.329C182.559 177.329 182.275 177.408 182.028 177.565C181.782 177.716 181.586 177.928 181.443 178.202C181.299 178.476 181.227 178.788 181.227 179.137C181.227 179.486 181.299 179.798 181.443 180.072C181.586 180.346 181.782 180.562 182.028 180.719C182.275 180.877 182.559 180.955 182.881 180.955ZM189.886 181.839V178.325C189.886 178.024 189.776 177.781 189.557 177.596C189.345 177.404 189.074 177.308 188.746 177.308C188.444 177.308 188.17 177.37 187.924 177.493C187.684 177.617 187.465 177.805 187.266 178.058L186.578 177.37C186.9 177.021 187.246 176.76 187.615 176.589C187.992 176.418 188.396 176.332 188.828 176.332C189.239 176.332 189.595 176.401 189.896 176.538C190.198 176.675 190.43 176.877 190.595 177.144C190.759 177.404 190.841 177.723 190.841 178.099V181.839H189.886ZM188.273 181.942C187.924 181.942 187.612 181.873 187.338 181.736C187.064 181.599 186.845 181.411 186.681 181.171C186.523 180.925 186.444 180.637 186.444 180.308C186.444 180.02 186.496 179.767 186.598 179.548C186.701 179.329 186.852 179.147 187.05 179.003C187.256 178.86 187.509 178.75 187.811 178.675C188.119 178.599 188.472 178.562 188.869 178.562H190.369L190.276 179.404H188.735C188.53 179.404 188.345 179.425 188.181 179.466C188.023 179.5 187.886 179.558 187.77 179.64C187.66 179.716 187.578 179.808 187.523 179.918C187.468 180.02 187.441 180.144 187.441 180.288C187.441 180.438 187.478 180.572 187.554 180.688C187.629 180.798 187.732 180.883 187.862 180.945C187.992 181.007 188.143 181.038 188.314 181.038C188.561 181.038 188.793 180.996 189.013 180.914C189.239 180.825 189.437 180.705 189.609 180.555C189.787 180.404 189.924 180.236 190.019 180.051L190.266 180.74C190.122 180.979 189.944 181.188 189.732 181.366C189.519 181.544 189.29 181.685 189.043 181.788C188.797 181.89 188.54 181.942 188.273 181.942ZM192.179 181.839V176.445H193.237V177.555L193.052 177.678C193.12 177.438 193.254 177.219 193.453 177.021C193.651 176.815 193.887 176.651 194.161 176.528C194.435 176.397 194.716 176.332 195.004 176.332C195.415 176.332 195.757 176.415 196.031 176.579C196.305 176.736 196.511 176.98 196.648 177.308C196.785 177.637 196.853 178.051 196.853 178.551V181.839H195.795V178.623C195.795 178.315 195.754 178.062 195.672 177.863C195.589 177.658 195.463 177.51 195.292 177.421C195.12 177.325 194.908 177.284 194.655 177.298C194.449 177.298 194.261 177.332 194.09 177.401C193.918 177.462 193.768 177.551 193.638 177.668C193.514 177.784 193.415 177.921 193.34 178.079C193.271 178.229 193.237 178.394 193.237 178.572V181.839H192.713C192.624 181.839 192.535 181.839 192.446 181.839C192.357 181.839 192.268 181.839 192.179 181.839ZM199.142 184.202L200.231 181.685L200.242 182.527L197.55 176.445H198.783L200.468 180.411C200.502 180.479 200.543 180.586 200.591 180.729C200.639 180.866 200.68 181.003 200.714 181.14L200.447 181.202C200.502 181.058 200.553 180.914 200.601 180.77C200.656 180.627 200.707 180.483 200.755 180.339L202.163 176.445H203.416L201.197 181.839L200.283 184.202H199.142Z" fill="#BDC9D5"/>
</svg>