<svg width="236" height="72" viewBox="0 0 236 72" fill="none" xmlns="http://www.w3.org/2000/svg">
<path d="M204.456 50.7024C203.675 49.5078 202.912 48.3132 202.108 47.1476C202.016 47.0201 201.66 46.9737 201.47 47.0317C197.382 48.261 193.391 48.0059 189.607 46.0226C184.738 43.4653 181.872 39.377 181.178 33.8679C180.161 25.8363 185.22 18.5179 193.041 16.5637C201.849 14.36 210.818 20.3852 212.174 29.4317C212.891 34.239 211.662 38.5071 208.596 42.2417C208.303 42.5954 208.28 42.8274 208.539 43.1985C209.285 44.2829 209.986 45.4021 210.755 46.5735C210.933 46.417 211.083 46.301 211.209 46.1734C212.616 44.7468 213.776 43.1347 214.677 41.3428C215.395 39.9279 216.497 39.1566 218.076 39.116C218.61 39.0986 218.961 38.8782 219.116 38.3447C219.277 37.7996 218.995 37.4981 218.593 37.2197C215.981 35.3698 216.279 31.7339 219.162 30.3247C219.61 30.1043 219.92 29.826 219.851 29.2867C219.782 28.7242 219.403 28.5096 218.892 28.4052C216.813 27.9877 215.475 26.0914 215.774 23.998C216.067 21.9393 217.881 20.5012 220.012 20.6462C221.975 20.7795 223.583 22.5656 223.543 24.6185C223.52 25.9001 222.98 26.9381 221.97 27.7209C221.08 28.4052 221.252 29.8492 222.28 30.3189C223.83 31.0322 224.743 32.5515 224.617 34.2158C224.49 35.8744 223.365 37.2313 221.723 37.7068C220.568 38.0374 220.149 39.4465 220.913 40.3628C221.987 41.6618 222.199 43.1289 221.424 44.6135C217.295 52.5175 210.91 57.58 202.234 59.3313C193.064 61.1812 184.858 58.8442 177.916 52.4943C173.093 48.0813 170.268 42.52 169.291 36.0077C168.712 32.1224 168.958 28.2893 169.986 24.5083C170.451 22.7918 171.617 21.806 173.368 21.603C174.35 21.487 174.838 20.3504 174.258 19.5212C172.622 17.1784 173.667 14.0759 176.354 13.3626C177.181 13.1422 178.031 13.1596 178.829 13.5192C179.386 13.7743 179.759 13.525 180.144 13.177C180.523 12.8349 180.799 12.5217 180.661 11.9129C180.087 9.40188 181.792 7.09388 184.342 7.03589C186.569 6.9837 188.172 8.61322 188.281 10.6951C188.401 13.0089 186.782 14.824 184.652 14.8819C183.842 14.9051 183.095 14.7486 182.406 14.3194C181.964 14.0411 181.562 14.0817 181.178 14.4296C180.804 14.766 180.781 15.1429 180.954 15.6068C182.01 18.4715 180.144 21.1101 177.129 21.0405C177.089 21.0405 177.049 21.0405 177.015 21.0405C176.549 20.9941 176.096 20.9941 175.86 21.5102C175.625 22.0263 175.935 22.3569 176.262 22.699C177.256 23.7254 177.583 24.949 177.261 26.3524C177.083 27.1179 176.888 27.8891 176.773 28.6662C175.866 34.587 177.239 39.9395 180.908 44.6251C184.37 49.0555 188.952 51.5607 194.511 52.216C197.755 52.5987 200.913 52.2044 203.968 51.0098C204.094 50.9576 204.221 50.9112 204.347 50.8532C204.381 50.8358 204.399 50.7952 204.485 50.6966L204.456 50.7024ZM188.522 31.9136C188.51 36.4369 192.202 40.1888 196.693 40.212C201.166 40.2294 204.893 36.4891 204.904 31.9542C204.916 27.4194 201.223 23.6732 196.733 23.6674C192.237 23.6616 188.539 27.373 188.522 31.9194V31.9136Z" fill="#3F5397"/>
<path d="M197.307 71.6484C186.207 71.4107 176.968 67.8617 169.343 60.3867C163.182 54.35 159.357 47.0142 158.008 38.4491C156.331 27.8253 158.536 18.054 164.542 9.15251C165.266 8.07969 166.116 7.22144 167.454 7.07066C167.913 7.01847 168.395 7.04167 168.849 7.12865C170.204 7.38961 171.014 6.47916 170.583 5.13959C169.779 2.64602 171.571 0.0712604 174.16 0.00167232C175.751 -0.0447197 177.192 0.877323 177.858 2.36767C178.478 3.75943 178.186 5.48753 177.141 6.61834C176.05 7.79554 174.379 8.21307 172.886 7.60417C172.317 7.37221 171.887 7.37801 171.467 7.85353C171.146 8.21887 171.054 8.5784 171.278 9.03653C171.99 10.5037 171.823 11.878 170.876 13.2118C167.683 17.7002 165.725 22.699 165.151 28.1849C164.135 37.9562 166.862 46.5677 173.466 53.8107C178.599 59.4473 185.019 62.7063 192.535 63.727C208.894 65.948 224.318 55.0459 227.729 38.8086C228.176 36.6804 228.309 34.4768 228.515 32.2963C228.745 29.9304 230.295 28.4806 232.592 28.5908C234.579 28.6836 236.066 30.4349 235.997 32.6675C235.9 35.9729 235.475 39.2378 234.59 42.433C230.577 56.9885 219.035 67.8327 204.347 70.8597C203.543 71.0279 202.727 71.1671 201.912 71.2483C200.201 71.4223 198.484 71.5498 197.29 71.6484H197.307Z" fill="#516FDB"/>
<mask id="mask0_3482_73704" style="mask-type:alpha" maskUnits="userSpaceOnUse" x="178" y="10" width="37" height="41">
<path d="M203.276 50.8509C208.333 50.3862 210.691 47.1264 211.237 45.5545L214.538 30.1583L213.047 11.0364H199.1L185.154 17.7027L178.926 28.3163V36.2107L183.136 43.3156L190.504 47.9645C192.654 49.1203 198.219 51.3156 203.276 50.8509Z" fill="#D9D9D9" stroke="black" stroke-width="0.13171"/>
</mask>
<g mask="url(#mask0_3482_73704)">
<path d="M204.456 50.699C203.675 49.5044 202.912 48.3098 202.108 47.1442C202.016 47.0166 201.66 46.9702 201.47 47.0282C197.382 48.2576 193.391 48.0025 189.607 46.0192C184.738 43.4618 181.872 39.3735 181.178 33.8645C180.161 25.8329 185.22 18.5145 193.041 16.5602C201.849 14.3566 210.818 20.3818 212.174 29.4282C212.891 34.2356 211.662 38.5037 208.596 42.2383C208.303 42.592 208.28 42.824 208.539 43.1951C209.285 44.2795 209.986 45.3987 210.755 46.5701C210.933 46.4135 211.083 46.2976 211.209 46.17C212.616 44.7434 213.776 43.1313 214.677 41.3394C215.395 39.9244 216.497 39.1532 218.076 39.1126C218.61 39.0952 218.961 38.8748 219.116 38.3413C219.277 37.7962 218.995 37.4947 218.593 37.2163C215.981 35.3664 216.279 31.7304 219.162 30.3213C219.61 30.1009 219.92 29.8226 219.851 29.2833C219.782 28.7208 219.403 28.5062 218.892 28.4018C216.813 27.9843 215.475 26.088 215.774 23.9946C216.067 21.9359 217.881 20.4978 220.012 20.6427C221.975 20.7761 223.583 22.5622 223.543 24.6151C223.52 25.8966 222.98 26.9347 221.97 27.7175C221.08 28.4018 221.252 29.8458 222.28 30.3155C223.83 31.0288 224.743 32.5481 224.617 34.2124C224.49 35.8709 223.365 37.2279 221.723 37.7034C220.568 38.034 220.149 39.4431 220.913 40.3594C221.987 41.6584 222.199 43.1255 221.424 44.6101C217.295 52.5141 210.91 57.5766 202.234 59.3279C193.064 61.1778 184.858 58.8408 177.916 52.4909C173.093 48.0779 170.268 42.5166 169.291 36.0043C168.712 32.119 168.958 28.2858 169.986 24.5049C170.451 22.7884 171.617 21.8025 173.368 21.5996C174.35 21.4836 174.838 20.347 174.258 19.5177C172.622 17.1749 173.667 14.0725 176.354 13.3592C177.181 13.1388 178.031 13.1562 178.829 13.5158C179.386 13.7709 179.759 13.5216 180.144 13.1736C180.523 12.8315 180.799 12.5183 180.661 11.9094C180.087 9.39846 181.792 7.09046 184.342 7.03247C186.569 6.98028 188.172 8.6098 188.281 10.6916C188.401 13.0054 186.782 14.8205 184.652 14.8785C183.842 14.9017 183.095 14.7452 182.406 14.316C181.964 14.0377 181.562 14.0783 181.178 14.4262C180.804 14.7625 180.781 15.1395 180.954 15.6034C182.01 18.4681 180.144 21.1067 177.129 21.0371C177.089 21.0371 177.049 21.0371 177.015 21.0371C176.549 20.9907 176.096 20.9907 175.86 21.5068C175.625 22.0229 175.935 22.3534 176.262 22.6956C177.256 23.722 177.583 24.9456 177.261 26.349C177.083 27.1144 176.888 27.8857 176.773 28.6628C175.866 34.5836 177.239 39.936 180.908 44.6216C184.37 49.0521 188.952 51.5573 194.511 52.2125C197.755 52.5953 200.913 52.201 203.968 51.0064C204.094 50.9542 204.221 50.9078 204.347 50.8498C204.381 50.8324 204.399 50.7918 204.485 50.6932L204.456 50.699ZM188.522 31.9102C188.51 36.4334 192.202 40.1854 196.693 40.2086C201.166 40.226 204.893 36.4856 204.904 31.9508C204.916 27.416 201.223 23.6698 196.733 23.664C192.237 23.6582 188.539 27.3696 188.522 31.916V31.9102Z" fill="#F69421"/>
</g>
<path d="M8.87171 15.7827C8.16662 15.7827 7.54363 15.6813 7.00274 15.4784C6.46186 15.2756 6.03687 14.981 5.72779 14.5947C5.42837 14.2083 5.27866 13.7447 5.27866 13.2038C5.27866 12.7015 5.40905 12.2476 5.66984 11.8419C5.94028 11.4362 6.31215 11.0692 6.78542 10.7408C7.26836 10.4028 7.8334 10.0889 8.48053 9.79909C9.13732 9.49967 9.84724 9.20991 10.6103 8.92981L10.958 11.2189C10.3109 11.3735 9.76997 11.5377 9.33533 11.7115C8.91034 11.8757 8.57229 12.0447 8.32116 12.2186C8.07003 12.3828 7.88652 12.5422 7.77061 12.6967C7.66437 12.8416 7.61124 12.9672 7.61124 13.0734C7.61124 13.199 7.69334 13.3052 7.85754 13.3921C8.02174 13.4694 8.33082 13.508 8.78478 13.508C8.88137 13.508 9.02142 13.5032 9.20494 13.4936C9.38845 13.4839 9.60094 13.4646 9.84241 13.4356C10.0839 13.397 10.3398 13.3438 10.6103 13.2762L11.1463 15.1887C10.76 15.3722 10.393 15.5171 10.0452 15.6233C9.70719 15.7296 9.31601 15.7827 8.87171 15.7827ZM12.4068 16C11.7886 16 11.2912 15.9179 10.9145 15.7537C10.5475 15.5798 10.2674 15.3625 10.0742 15.1017C9.89071 14.8313 9.76514 14.5415 9.69753 14.2325C9.63958 13.9234 9.6106 13.6336 9.6106 13.3632V8.26336H11.9432V12.7112C11.9432 13.0879 12.0398 13.3535 12.2329 13.508C12.4358 13.6529 12.7593 13.7254 13.2037 13.7254H13.6818V16H12.4068ZM7.7851 7.45202L6.26385 5.91628L7.69817 4.36606L9.21942 5.91628L7.7851 7.45202ZM10.335 7.45202L8.81376 5.91628L10.2626 4.36606L11.7838 5.91628L10.335 7.45202ZM13.6764 16V13.7254H15.6903C15.7289 13.5612 15.7627 13.339 15.7917 13.0589C15.8207 12.7788 15.8448 12.4987 15.8641 12.2186C15.8835 11.9288 15.8883 11.6874 15.8786 11.4942L18.6024 10.538C18.4285 11.2431 18.2547 11.9047 18.0808 12.5229C17.9166 13.1314 17.7186 13.7205 17.4868 14.2904C17.2647 14.8506 16.9749 15.4205 16.6175 16H13.6764ZM19.6166 16C18.9501 16 18.3851 15.9372 17.9215 15.8117C17.4675 15.6764 17.086 15.5219 16.7769 15.348C16.4678 15.1645 16.2022 14.9955 15.98 14.841L17.2115 13.4066C17.3468 13.4742 17.5061 13.5322 17.6896 13.5805C17.8732 13.6288 18.076 13.6674 18.2981 13.6964C18.5203 13.7157 18.7521 13.7254 18.9936 13.7254H19.6166V16ZM13.6764 13.7254H13.8213V16H13.6764C13.3867 16 13.2418 15.6233 13.2418 14.8699C13.2418 14.1069 13.3867 13.7254 13.6764 13.7254ZM15.3426 19.8973L13.8213 18.3471L15.2556 16.8113L16.7769 18.3471L15.3426 19.8973ZM17.8925 19.8973L16.3712 18.3471L17.82 16.8113L19.3413 18.3471L17.8925 19.8973ZM30.1082 16C29.4611 16 28.9298 15.942 28.5145 15.8261C28.1088 15.7102 27.766 15.5219 27.4859 15.2611C27.2154 14.9907 26.9643 14.6381 26.7325 14.2035L28.2827 13.4791C28.389 13.537 28.5049 13.5853 28.6304 13.624C28.7656 13.6529 28.9395 13.6771 29.152 13.6964C29.3741 13.7157 29.6542 13.7254 29.9923 13.7254H30.5428V16H30.1082ZM19.6188 13.7254H19.7637V16H19.6188C19.3291 16 19.1842 15.6233 19.1842 14.8699C19.1842 14.1069 19.3291 13.7254 19.6188 13.7254ZM19.6188 16V13.7254H19.952C20.831 13.7254 21.5699 13.7061 22.1687 13.6674C22.7676 13.6288 23.2747 13.5708 23.69 13.4936C24.1053 13.4066 24.4675 13.3004 24.7766 13.1748C25.0857 13.0493 25.3899 12.8995 25.6893 12.7257C25.7569 12.6871 25.8149 12.6532 25.8632 12.6243C25.9115 12.5953 25.955 12.5712 25.9936 12.5518C26.0419 12.5229 26.0805 12.5035 26.1095 12.4939C25.7521 12.3104 25.4285 12.1558 25.1388 12.0303C24.849 11.895 24.5738 11.7888 24.313 11.7115C24.0618 11.6246 23.8204 11.5618 23.5886 11.5232C23.3664 11.4845 23.1394 11.4652 22.9076 11.4652C22.6082 11.4652 22.3329 11.5473 22.0818 11.7115C21.8307 11.8757 21.5651 12.1607 21.285 12.5663L19.7927 11.7985C20.1211 11.1127 20.4736 10.5815 20.8503 10.2048C21.227 9.82807 21.6182 9.56728 22.0238 9.4224C22.4295 9.26786 22.8304 9.19059 23.2264 9.19059C23.7479 9.19059 24.226 9.26786 24.6607 9.4224C25.105 9.57694 25.5203 9.77012 25.9067 10.0019C26.293 10.2337 26.6697 10.4655 27.0367 10.6974C27.4038 10.9195 27.7708 11.1079 28.1378 11.2624C28.5049 11.4169 28.896 11.4894 29.3114 11.4797L29.2679 13.4501C29.0168 13.5177 28.7077 13.6191 28.3407 13.7543C27.9736 13.8799 27.5486 14.0683 27.0657 14.3194C26.6794 14.5222 26.2737 14.725 25.8487 14.9279C25.4237 15.1211 24.936 15.2997 24.3854 15.4639C23.8349 15.6281 23.1877 15.7585 22.444 15.8551C21.7003 15.9517 20.8213 16 19.8072 16H19.6188ZM19.6188 13.7254H19.7637V16H19.6188C19.3291 16 19.1842 15.6233 19.1842 14.8699C19.1842 14.1069 19.3291 13.7254 19.6188 13.7254ZM24.1681 19.8973L22.6323 18.3471L24.0956 16.8113L25.6169 18.3471L24.1681 19.8973ZM30.5415 16V13.7254H32.5553C32.594 13.5612 32.6278 13.339 32.6568 13.0589C32.6857 12.7788 32.7099 12.4987 32.7292 12.2186C32.7485 11.9288 32.7533 11.6874 32.7437 11.4942L35.4674 10.538C35.2936 11.2431 35.1197 11.9047 34.9459 12.5229C34.7817 13.1314 34.5837 13.7205 34.3519 14.2904C34.1297 14.8506 33.8399 15.4205 33.4826 16H30.5415ZM36.4816 16C35.8152 16 35.2501 15.9372 34.7865 15.8117C34.3325 15.6764 33.951 15.5219 33.6419 15.348C33.3329 15.1645 33.0672 14.9955 32.8451 14.841L34.0766 13.4066C34.2118 13.4742 34.3712 13.5322 34.5547 13.5805C34.7382 13.6288 34.941 13.6674 35.1632 13.6964C35.3853 13.7157 35.6172 13.7254 35.8586 13.7254H36.4816V16ZM30.5415 13.7254H30.6864V16H30.5415C30.2517 16 30.1068 15.6233 30.1068 14.8699C30.1068 14.1069 30.2517 13.7254 30.5415 13.7254ZM32.2076 19.8973L30.6864 18.3471L32.1207 16.8113L33.6419 18.3471L32.2076 19.8973ZM34.7575 19.8973L33.2363 18.3471L34.6851 16.8113L36.2063 18.3471L34.7575 19.8973ZM39.7872 13.7254H41.5257V16H39.7872V13.7254ZM36.4839 16V13.7254H37.8892V5.27881H40.2218V16H36.4839ZM36.4839 13.7254H36.6288V16H36.4839C36.1941 16 36.0492 15.6233 36.0492 14.8699C36.0492 14.1069 36.1941 13.7254 36.4839 13.7254ZM41.5207 13.7254H42.6798V16H41.5207V13.7254ZM41.5207 13.7254H41.6656V16H41.5207C41.231 16 41.0861 15.6233 41.0861 14.8699C41.0861 14.1069 41.231 13.7254 41.5207 13.7254ZM53.1703 16C52.5232 16 51.9919 15.942 51.5766 15.8261C51.171 15.7102 50.8281 15.5219 50.548 15.2611C50.2775 14.9907 50.0264 14.6381 49.7946 14.2035L51.3448 13.4791C51.4511 13.537 51.567 13.5853 51.6925 13.624C51.8277 13.6529 52.0016 13.6771 52.2141 13.6964C52.4362 13.7157 52.7163 13.7254 53.0544 13.7254H53.605V16H53.1703ZM42.6809 13.7254H42.8258V16H42.6809C42.3912 16 42.2463 15.6233 42.2463 14.8699C42.2463 14.1069 42.3912 13.7254 42.6809 13.7254ZM42.6809 16V13.7254H43.0142C43.8931 13.7254 44.632 13.7061 45.2308 13.6674C45.8297 13.6288 46.3368 13.5708 46.7521 13.4936C47.1674 13.4066 47.5296 13.3004 47.8387 13.1748C48.1478 13.0493 48.452 12.8995 48.7514 12.7257C48.8191 12.6871 48.877 12.6532 48.9253 12.6243C48.9736 12.5953 49.0171 12.5712 49.0557 12.5518C49.104 12.5229 49.1426 12.5035 49.1716 12.4939C48.8142 12.3104 48.4907 12.1558 48.2009 12.0303C47.9111 11.895 47.6359 11.7888 47.3751 11.7115C47.1239 11.6246 46.8825 11.5618 46.6507 11.5232C46.4285 11.4845 46.2015 11.4652 45.9697 11.4652C45.6703 11.4652 45.395 11.5473 45.1439 11.7115C44.8928 11.8757 44.6272 12.1607 44.3471 12.5663L42.8548 11.7985C43.1832 11.1127 43.5357 10.5815 43.9124 10.2048C44.2891 9.82807 44.6803 9.56728 45.086 9.4224C45.4916 9.26786 45.8925 9.19059 46.2885 9.19059C46.81 9.19059 47.2881 9.26786 47.7228 9.4224C48.1671 9.57694 48.5824 9.77012 48.9688 10.0019C49.3551 10.2337 49.7318 10.4655 50.0988 10.6974C50.4659 10.9195 50.8329 11.1079 51.1999 11.2624C51.567 11.4169 51.9581 11.4894 52.3735 11.4797L52.33 13.4501C52.0789 13.5177 51.7698 13.6191 51.4028 13.7543C51.0357 13.8799 50.6107 14.0683 50.1278 14.3194C49.7415 14.5222 49.3358 14.725 48.9108 14.9279C48.4858 15.1211 47.9981 15.2997 47.4475 15.4639C46.897 15.6281 46.2498 15.7585 45.5061 15.8551C44.7624 15.9517 43.8834 16 42.8693 16H42.6809ZM42.6809 13.7254H42.8258V16H42.6809C42.3912 16 42.2463 15.6233 42.2463 14.8699C42.2463 14.1069 42.3912 13.7254 42.6809 13.7254ZM46.3319 7.97359L44.7962 6.43786L46.2595 4.88763L47.7807 6.43786L46.3319 7.97359ZM53.6036 16V13.7254H55.0089V5.27881H57.3415V16H53.6036ZM53.6036 13.7254H53.7485V16H53.6036C53.3138 16 53.1689 15.6233 53.1689 14.8699C53.1689 14.1069 53.3138 13.7254 53.6036 13.7254ZM59.343 5.27881H61.6756V16H59.343V5.27881ZM72.0949 19.709C71.245 19.709 70.5302 19.593 69.9507 19.3612C69.3712 19.1391 68.9076 18.8348 68.5598 18.4485C68.2121 18.0718 67.961 17.6468 67.8065 17.1735C67.6519 16.7099 67.5747 16.2318 67.5747 15.7392C67.5747 15.3529 67.6326 14.9086 67.7485 14.4063C67.8741 13.8944 68.0431 13.3535 68.2556 12.7836L70.1825 13.3921C70.0569 13.7882 69.9604 14.1504 69.8927 14.4787C69.8348 14.7975 69.8058 15.0824 69.8058 15.3335C69.8058 15.6813 69.8638 15.9855 69.9797 16.2463C70.1052 16.5167 70.2791 16.7389 70.5012 16.9128C70.7331 17.0866 71.0132 17.217 71.3416 17.3039C71.67 17.3909 72.037 17.4343 72.4427 17.4343C72.7131 17.4343 72.9932 17.3957 73.283 17.3184C73.5727 17.2508 73.8383 17.1397 74.0798 16.9852C74.3309 16.8307 74.5338 16.6326 74.6883 16.3912C74.8428 16.1594 74.9201 15.8793 74.9201 15.5509C74.9201 15.348 74.9056 15.1211 74.8767 14.8699C74.8573 14.6188 74.7511 14.3146 74.5579 13.9572L76.0792 12.972C76.1758 13.0782 76.2965 13.2473 76.4414 13.4791C76.5862 13.7109 76.7166 13.9717 76.8325 14.2614C76.9485 14.5415 77.0064 14.8168 77.0064 15.0872C77.0064 16.0435 76.8084 16.8645 76.4124 17.5502C76.0164 18.2457 75.4513 18.7769 74.7173 19.1439C73.9929 19.5206 73.1188 19.709 72.0949 19.709ZM78.151 16C77.7067 16 77.2913 15.9324 76.905 15.7972C76.5283 15.6619 76.1854 15.4929 75.8763 15.2901C75.5769 15.0872 75.321 14.8748 75.1085 14.6526C74.896 14.4208 74.7366 14.218 74.6304 14.0441L73.79 12.6822L75.6155 10.48L76.5718 12.6098C76.707 12.9092 76.8229 13.141 76.9195 13.3052C77.0161 13.4598 77.1465 13.5708 77.3107 13.6384C77.4749 13.6964 77.7067 13.7254 78.0061 13.7254H78.2958V16H78.151ZM72.2108 11.1175L70.6751 9.58177L72.1384 8.03155L73.6597 9.58177L72.2108 11.1175ZM78.2928 13.7254H79.4518V16H78.2928V13.7254ZM78.2928 13.7254H78.4377V16H78.2928C78.003 16 77.8581 15.6233 77.8581 14.8699C77.8581 14.1069 78.003 13.7254 78.2928 13.7254ZM79.453 16V13.7254H81.5393C81.5103 13.735 81.4716 13.7495 81.4233 13.7688C81.3847 13.7882 81.3364 13.8075 81.2785 13.8268C81.2302 13.8364 81.1819 13.8461 81.1336 13.8558C80.9211 13.5757 80.7762 13.2907 80.6989 13.001C80.6217 12.7112 80.583 12.4166 80.583 12.1172C80.583 11.7212 80.6555 11.3397 80.8004 10.9726C80.9452 10.6056 81.1626 10.2724 81.4523 9.97295C81.7421 9.67353 82.0995 9.43689 82.5244 9.26303C82.9591 9.08918 83.4565 9.00225 84.0167 9.00225C84.5866 9.00225 85.084 9.08918 85.509 9.26303C85.9436 9.43689 86.3058 9.67353 86.5956 9.97295C86.8854 10.2724 87.1027 10.6056 87.2476 10.9726C87.4021 11.3397 87.4794 11.7212 87.4794 12.1172C87.4794 12.4263 87.4359 12.7257 87.349 13.0155C87.2717 13.2956 87.1268 13.5757 86.9143 13.8558C86.8274 13.8364 86.7791 13.8171 86.7695 13.7978C86.7598 13.7785 86.7115 13.7543 86.6246 13.7254H88.3197V16H87.9575C87.2717 16 86.7018 15.9952 86.2479 15.9855C85.7939 15.9662 85.4027 15.9324 85.0743 15.8841C84.7556 15.8358 84.4417 15.7537 84.1326 15.6378C83.9877 15.6861 83.8477 15.7344 83.7125 15.7827C83.5772 15.8213 83.413 15.8599 83.2199 15.8986C83.0364 15.9276 82.7901 15.9517 82.481 15.971C82.1816 15.9903 81.7855 16 81.293 16H79.453ZM84.0167 13.8413C84.2485 13.735 84.4417 13.6046 84.5962 13.4501C84.7508 13.2956 84.8667 13.1217 84.944 12.9285C85.0212 12.7353 85.0599 12.5325 85.0599 12.32C85.0599 12.1268 85.0164 11.953 84.9295 11.7985C84.8522 11.6439 84.7363 11.5183 84.5818 11.4218C84.4272 11.3252 84.2389 11.2769 84.0167 11.2769C83.8042 11.2769 83.6207 11.3252 83.4662 11.4218C83.3116 11.5183 83.1909 11.6487 83.104 11.8129C83.0267 11.9675 82.9881 12.1365 82.9881 12.32C82.9881 12.5325 83.0267 12.7353 83.104 12.9285C83.1812 13.112 83.2971 13.2811 83.4517 13.4356C83.6062 13.5901 83.7946 13.7254 84.0167 13.8413ZM79.453 13.7254H79.5978V16H79.453C79.1632 16 79.0183 15.6233 79.0183 14.8699C79.0183 14.1069 79.1632 13.7254 79.453 13.7254ZM82.7852 7.78525L81.264 6.24951L82.6983 4.69928L84.2195 6.24951L82.7852 7.78525ZM85.3351 7.78525L83.8139 6.24951L85.2627 4.69928L86.7839 6.24951L85.3351 7.78525ZM88.3241 13.7254H89.4831V16H88.3241V13.7254ZM88.3241 13.7254H88.469V16H88.3241C88.0343 16 87.8895 15.6233 87.8895 14.8699C87.8895 14.1069 88.0343 13.7254 88.3241 13.7254ZM89.4843 13.7254H90.6433V16H89.4843V13.7254ZM89.4843 13.7254H89.6292V16H89.4843C89.1945 16 89.0496 15.6233 89.0496 14.8699C89.0496 14.1069 89.1945 13.7254 89.4843 13.7254ZM90.6445 16V13.7254H93.4841C93.4069 13.3873 93.2571 13.0106 93.035 12.5953C92.8128 12.18 92.5327 11.7598 92.1947 11.3348L94.281 9.20508C94.5707 9.75563 94.8219 10.3593 95.0343 11.0161C95.2468 11.6729 95.3531 12.4118 95.3531 13.2328C95.3531 14.0441 95.1744 14.9665 94.817 16H90.6445ZM90.6445 13.7254H90.7893V16H90.6445C90.3547 16 90.2098 15.6233 90.2098 14.8699C90.2098 14.1069 90.3547 13.7254 90.6445 13.7254ZM92.0498 8.40824L90.5286 6.8725L91.9629 5.32227L93.4841 6.8725L92.0498 8.40824ZM94.5997 8.40824L93.0785 6.8725L94.5273 5.32227L96.0485 6.8725L94.5997 8.40824ZM97.1904 5.27881H99.5229V16H97.1904V5.27881ZM109.015 15.7827C108.31 15.7827 107.687 15.6813 107.146 15.4784C106.605 15.2756 106.18 14.981 105.871 14.5947C105.572 14.2083 105.422 13.7447 105.422 13.2038C105.422 12.7015 105.552 12.2476 105.813 11.8419C106.084 11.4362 106.455 11.0692 106.929 10.7408C107.412 10.4028 107.977 10.0889 108.624 9.79909C109.281 9.49967 109.991 9.20991 110.754 8.92981L111.101 11.2189C110.454 11.3735 109.913 11.5377 109.479 11.7115C109.054 11.8757 108.716 12.0447 108.464 12.2186C108.213 12.3828 108.03 12.5422 107.914 12.6967C107.808 12.8416 107.755 12.9672 107.755 13.0734C107.755 13.199 107.837 13.3052 108.001 13.3921C108.165 13.4694 108.474 13.508 108.928 13.508C109.025 13.508 109.165 13.5032 109.348 13.4936C109.532 13.4839 109.744 13.4646 109.986 13.4356C110.227 13.397 110.483 13.3438 110.754 13.2762L111.29 15.1887C110.903 15.3722 110.536 15.5171 110.189 15.6233C109.851 15.7296 109.459 15.7827 109.015 15.7827ZM112.55 16C111.932 16 111.435 15.9179 111.058 15.7537C110.691 15.5798 110.411 15.3625 110.218 15.1017C110.034 14.8313 109.908 14.5415 109.841 14.2325C109.783 13.9234 109.754 13.6336 109.754 13.3632V8.26336H112.086V12.7112C112.086 13.0879 112.183 13.3535 112.376 13.508C112.579 13.6529 112.903 13.7254 113.347 13.7254H113.825V16H112.55ZM107.928 7.45202L106.407 5.91628L107.841 4.36606L109.363 5.91628L107.928 7.45202ZM110.478 7.45202L108.957 5.91628L110.406 4.36606L111.927 5.91628L110.478 7.45202ZM113.82 13.7254H114.979V16H113.82V13.7254ZM113.82 13.7254H113.965V16H113.82C113.53 16 113.385 15.6233 113.385 14.8699C113.385 14.1069 113.53 13.7254 113.82 13.7254ZM114.98 13.7254H116.139V16H114.98V13.7254ZM114.98 13.7254H115.125V16H114.98C114.69 16 114.545 15.6233 114.545 14.8699C114.545 14.1069 114.69 13.7254 114.98 13.7254ZM117.067 8.21989L121.124 4.84416L122.66 6.66966L118.69 9.95846L119.052 9.10367C120.153 9.41274 121.003 9.89085 121.602 10.538C122.211 11.1851 122.597 11.9723 122.761 12.8995C122.935 13.8171 122.916 14.8506 122.703 16H116.14V13.7254H120.704C120.588 13.2811 120.375 12.8609 120.066 12.4649C119.757 12.0689 119.352 11.7308 118.849 11.4507C118.357 11.161 117.763 10.963 117.067 10.8567V8.21989ZM116.14 13.7254H116.285V16H116.14C115.85 16 115.705 15.6233 115.705 14.8699C115.705 14.1069 115.85 13.7254 116.14 13.7254ZM124.864 19.709C124.429 19.709 123.946 19.6124 123.415 19.4192C122.893 19.226 122.42 18.9507 121.995 18.5934L122.719 17.1301C123.106 17.246 123.429 17.3232 123.69 17.3619C123.951 17.4102 124.197 17.4343 124.429 17.4343C124.951 17.4343 125.409 17.3329 125.805 17.1301C126.211 16.9369 126.525 16.6713 126.747 16.3332C126.979 15.9952 127.095 15.6281 127.095 15.2321C127.095 14.9037 127.042 14.6285 126.935 14.4063C126.839 14.1745 126.708 13.9572 126.544 13.7543C126.39 13.5419 126.221 13.3004 126.037 13.0299L129.152 14.5367C129.152 14.6526 129.152 14.7685 129.152 14.8844C129.152 15.0003 129.152 15.1162 129.152 15.2321C129.152 15.5219 129.104 15.8599 129.007 16.2463C128.92 16.6326 128.775 17.0238 128.573 17.4198C128.37 17.8255 128.099 18.2022 127.761 18.5499C127.433 18.8976 127.027 19.1777 126.544 19.3902C126.071 19.6027 125.511 19.709 124.864 19.709ZM130.297 16C129.949 16 129.621 15.971 129.311 15.9131C129.012 15.8455 128.727 15.744 128.457 15.6088C128.196 15.4736 127.945 15.2997 127.703 15.0872C127.471 14.8748 127.24 14.6188 127.008 14.3194L125.124 11.8999L126.979 9.62524L128.804 12.8126C128.94 13.0444 129.065 13.2279 129.181 13.3632C129.297 13.4984 129.437 13.595 129.601 13.6529C129.775 13.7012 130.007 13.7254 130.297 13.7254H130.442V16H130.297ZM130.444 13.7254H131.603V16H130.444V13.7254ZM130.444 13.7254H130.589V16H130.444C130.155 16 130.01 15.6233 130.01 14.8699C130.01 14.1069 130.155 13.7254 130.444 13.7254ZM131.604 13.7254H132.763V16H131.604V13.7254ZM131.604 13.7254H131.749V16H131.604C131.315 16 131.17 15.6233 131.17 14.8699C131.17 14.1069 131.315 13.7254 131.604 13.7254ZM142.53 16C141.863 16 141.298 15.9372 140.835 15.8117C140.381 15.6764 139.999 15.5219 139.69 15.348C139.381 15.1645 139.115 14.9955 138.893 14.841L140.183 13.4501C140.356 13.5274 140.593 13.595 140.892 13.6529C141.202 13.7012 141.54 13.7254 141.907 13.7254H143.689C143.573 13.2907 143.404 12.8706 143.182 12.4649C142.969 12.0496 142.723 11.6632 142.443 11.3059L144.529 9.19059C144.751 9.59626 144.954 10.0357 145.137 10.509C145.321 10.9726 145.451 11.4797 145.529 12.0303C145.616 12.5712 145.625 13.17 145.558 13.8268C145.49 14.4836 145.316 15.208 145.036 16H142.53ZM132.765 16V13.7254H134.155C134.184 13.5225 134.204 13.3149 134.213 13.1024C134.233 12.8899 134.242 12.6629 134.242 12.4214C134.242 12.18 134.228 11.9192 134.199 11.6391L136.937 10.6974C136.802 11.3735 136.672 11.9482 136.546 12.4214C136.42 12.8947 136.28 13.3149 136.126 13.6819C135.981 14.0489 135.802 14.4111 135.59 14.7685C135.387 15.1259 135.131 15.5364 134.822 16H132.765ZM137.256 16C136.532 16 135.918 15.9372 135.416 15.8117C134.914 15.6764 134.513 15.5267 134.213 15.3625C133.924 15.1887 133.721 15.0486 133.605 14.9424L134.46 13.2473C134.701 13.4018 135.001 13.5225 135.358 13.6095C135.715 13.6867 136.107 13.7254 136.532 13.7254H138.285C138.314 13.5805 138.333 13.4018 138.343 13.1893C138.362 12.9672 138.372 12.7257 138.372 12.4649C138.372 12.1945 138.357 11.9192 138.328 11.6391L141.095 10.6974C140.95 11.3735 140.815 11.9482 140.69 12.4214C140.564 12.8947 140.424 13.3149 140.269 13.6819C140.115 14.0489 139.931 14.4111 139.719 14.7685C139.516 15.1259 139.265 15.5364 138.966 16H137.256ZM132.765 13.7254H132.91V16H132.765C132.475 16 132.33 15.6233 132.33 14.8699C132.33 14.1069 132.475 13.7254 132.765 13.7254ZM139.864 7.81423L138.314 6.27849L139.777 4.72826L141.298 6.27849L139.864 7.81423ZM138.618 10.2337L137.097 8.68351L138.531 7.14777L140.052 8.68351L138.618 10.2337ZM141.168 10.2337L139.646 8.68351L141.095 7.14777L142.617 8.68351L141.168 10.2337ZM7.81765 33.7827C7.11256 33.7827 6.48957 33.6813 5.94868 33.4784C5.40779 33.2756 4.98281 32.981 4.67373 32.5947C4.37431 32.2083 4.2246 31.7447 4.2246 31.2038C4.2246 30.7015 4.35499 30.2476 4.61578 29.8419C4.88622 29.4362 5.25808 29.0692 5.73136 28.7408C6.2143 28.4028 6.77933 28.0889 7.42647 27.7991C8.08326 27.4997 8.79318 27.2099 9.55622 26.9298L9.90393 29.2189C9.2568 29.3735 8.71591 29.5377 8.28127 29.7115C7.85628 29.8757 7.51823 30.0447 7.2671 30.2186C7.01597 30.3828 6.83246 30.5422 6.71655 30.6967C6.61031 30.8416 6.55718 30.9672 6.55718 31.0734C6.55718 31.199 6.63928 31.3052 6.80348 31.3921C6.96768 31.4694 7.27676 31.508 7.73072 31.508C7.82731 31.508 7.96736 31.5032 8.15087 31.4936C8.33439 31.4839 8.54688 31.4646 8.78835 31.4356C9.02982 31.397 9.28578 31.3438 9.55622 31.2762L10.0923 33.1887C9.70593 33.3722 9.3389 33.5171 8.99118 33.6233C8.65313 33.7296 8.26195 33.7827 7.81765 33.7827ZM11.3527 34C10.7346 34 10.2372 33.9179 9.86047 33.7537C9.49344 33.5798 9.21333 33.3625 9.02016 33.1017C8.83664 32.8313 8.71108 32.5415 8.64347 32.2325C8.58552 31.9234 8.55654 31.6336 8.55654 31.3632V26.2634H10.8891V30.7112C10.8891 31.0879 10.9857 31.3535 11.1789 31.508C11.3817 31.6529 11.7053 31.7254 12.1496 31.7254H12.6277V34H11.3527ZM6.73104 25.452L5.20979 23.9163L6.64411 22.3661L8.16536 23.9163L6.73104 25.452ZM9.28095 25.452L7.7597 23.9163L9.2085 22.3661L10.7298 23.9163L9.28095 25.452ZM12.6224 34V31.7254H14.6362C14.6749 31.5612 14.7087 31.339 14.7376 31.0589C14.7666 30.7788 14.7908 30.4987 14.8101 30.2186C14.8294 29.9288 14.8342 29.6874 14.8246 29.4942L17.5483 28.538C17.3745 29.2431 17.2006 29.9047 17.0268 30.5229C16.8626 31.1314 16.6646 31.7205 16.4327 32.2904C16.2106 32.8506 15.9208 33.4205 15.5635 34H12.6224ZM18.5625 34C17.896 34 17.331 33.9372 16.8674 33.8117C16.4134 33.6764 16.0319 33.5219 15.7228 33.348C15.4137 33.1645 15.1481 32.9955 14.926 32.841L16.1575 31.4066C16.2927 31.4742 16.4521 31.5322 16.6356 31.5805C16.8191 31.6288 17.0219 31.6674 17.2441 31.6964C17.4662 31.7157 17.698 31.7254 17.9395 31.7254H18.5625V34ZM12.6224 31.7254H12.7673V34H12.6224C12.3326 34 12.1877 33.6233 12.1877 32.8699C12.1877 32.1069 12.3326 31.7254 12.6224 31.7254ZM14.2885 37.8973L12.7673 36.3471L14.2016 34.8113L15.7228 36.3471L14.2885 37.8973ZM16.8384 37.8973L15.3172 36.3471L16.766 34.8113L18.2872 36.3471L16.8384 37.8973ZM18.5648 34V31.7254H19.9701V23.2788H22.3027V34H18.5648ZM18.5648 31.7254H18.7096V34H18.5648C18.275 34 18.1301 33.6233 18.1301 32.8699C18.1301 32.1069 18.275 31.7254 18.5648 31.7254ZM27.0859 34C26.603 34 26.1876 33.9517 25.8399 33.8551C25.4922 33.7585 25.2025 33.6088 24.9706 33.406C24.7485 33.1935 24.5795 32.9231 24.4636 32.5947C24.3573 32.2663 24.3042 31.8702 24.3042 31.4066V23.2788H26.6368V30.5663C26.6368 30.7788 26.6513 30.9623 26.6802 31.1169C26.7092 31.2617 26.7623 31.3825 26.8396 31.4791C26.9169 31.566 27.0231 31.6288 27.1584 31.6674C27.3032 31.7061 27.4916 31.7254 27.7234 31.7254H28.2884V34H27.0859ZM28.2848 34V31.7254H28.3283C28.4442 31.7254 28.5504 31.7012 28.647 31.6529C28.7532 31.6046 28.8643 31.5225 28.9802 31.4066C29.0961 31.2907 29.2217 31.1314 29.3569 30.9285C29.5018 30.716 29.6708 30.4504 29.864 30.1317C30.1441 29.6681 30.4146 29.2769 30.6753 28.9581C30.9361 28.6297 31.1921 28.369 31.4432 28.1758C31.704 27.9826 31.9648 27.8426 32.2256 27.7556C32.4863 27.6687 32.752 27.6252 33.0224 27.6252C33.4667 27.6252 33.8675 27.7218 34.2249 27.915C34.5823 28.1082 34.9155 28.4173 35.2246 28.8422C35.5337 29.2576 35.8379 29.8178 36.1374 30.5229C36.3015 30.8802 36.4561 31.1458 36.601 31.3197C36.7555 31.4936 36.9245 31.6046 37.1081 31.6529C37.2916 31.7012 37.5089 31.7254 37.76 31.7254H37.9194V34H37.195C36.7797 34 36.4126 33.9324 36.0939 33.7972C35.7848 33.6619 35.5144 33.4833 35.2826 33.2611C35.0507 33.0293 34.8479 32.783 34.6741 32.5222C34.5099 32.2614 34.3698 32.0055 34.2539 31.7543C34.0704 31.368 33.9062 31.0348 33.7613 30.7547C33.6164 30.4746 33.4764 30.2621 33.3411 30.1172C33.2059 29.9627 33.061 29.8854 32.9065 29.8854C32.8196 29.8854 32.7037 29.9385 32.5588 30.0447C32.4139 30.1413 32.2449 30.3055 32.0517 30.5373C31.8682 30.7692 31.6509 31.0879 31.3997 31.4936C31.1486 31.9089 30.9265 32.2614 30.7333 32.5512C30.5401 32.841 30.3566 33.0824 30.1827 33.2756C30.0089 33.4591 29.835 33.604 29.6612 33.7102C29.4873 33.8165 29.299 33.8938 29.0961 33.942C28.8933 33.9807 28.6567 34 28.3862 34H28.2848ZM35.978 33.348C35.6399 33.7344 35.2487 34 34.8044 34.1449C34.3698 34.2898 33.9158 34.3477 33.4426 34.3187C32.9789 34.2898 32.525 34.198 32.0807 34.0435C31.646 33.8889 31.25 33.6957 30.8927 33.4639C30.5449 33.2321 30.2697 32.9907 30.0668 32.7395L31.2404 31.3632C31.3659 31.4694 31.5591 31.5901 31.8199 31.7254C32.0903 31.8606 32.4043 31.9862 32.7616 32.1021C33.1287 32.2083 33.5198 32.2807 33.9352 32.3194C34.3505 32.3484 34.7706 32.3146 35.1956 32.218L35.978 33.348ZM28.2848 31.7254H28.4297V34H28.2848C27.995 34 27.8502 33.6233 27.8502 32.8699C27.8502 32.1069 27.995 31.7254 28.2848 31.7254ZM37.92 34V31.7254H39.3253V23.2788H41.6579V34H37.92ZM37.92 31.7254H38.0648V34H37.92C37.6302 34 37.4853 33.6233 37.4853 32.8699C37.4853 32.1069 37.6302 31.7254 37.92 31.7254ZM43.6594 23.2788H45.992V34H43.6594V23.2788ZM55.4841 33.7827C54.779 33.7827 54.156 33.6813 53.6151 33.4784C53.0742 33.2756 52.6492 32.981 52.3401 32.5947C52.0407 32.2083 51.891 31.7447 51.891 31.2038C51.891 30.7015 52.0214 30.2476 52.2822 29.8419C52.5526 29.4362 52.9245 29.0692 53.3978 28.7408C53.8807 28.4028 54.4457 28.0889 55.0929 27.7991C55.7497 27.4997 56.4596 27.2099 57.2226 26.9298L57.5703 29.2189C56.9232 29.3735 56.3823 29.5377 55.9477 29.7115C55.5227 29.8757 55.1846 30.0447 54.9335 30.2186C54.6824 30.3828 54.4989 30.5422 54.383 30.6967C54.2767 30.8416 54.2236 30.9672 54.2236 31.0734C54.2236 31.199 54.3057 31.3052 54.4699 31.3921C54.6341 31.4694 54.9432 31.508 55.3971 31.508C55.4937 31.508 55.6338 31.5032 55.8173 31.4936C56.0008 31.4839 56.2133 31.4646 56.4548 31.4356C56.6962 31.397 56.9522 31.3438 57.2226 31.2762L57.7587 33.1887C57.3723 33.3722 57.0053 33.5171 56.6576 33.6233C56.3195 33.7296 55.9284 33.7827 55.4841 33.7827ZM59.0191 34C58.401 34 57.9036 33.9179 57.5269 33.7537C57.1598 33.5798 56.8797 33.3625 56.6866 33.1017C56.503 32.8313 56.3775 32.5415 56.3099 32.2325C56.2519 31.9234 56.2229 31.6336 56.2229 31.3632V26.2634H58.5555V30.7112C58.5555 31.0879 58.6521 31.3535 58.8453 31.508C59.0481 31.6529 59.3717 31.7254 59.816 31.7254H60.2941V34H59.0191ZM54.3974 25.452L52.8762 23.9163L54.3105 22.3661L55.8318 23.9163L54.3974 25.452ZM56.9474 25.452L55.4261 23.9163L56.8749 22.3661L58.3962 23.9163L56.9474 25.452ZM60.2888 34V31.7254H62.3026C62.3413 31.5612 62.3751 31.339 62.404 31.0589C62.433 30.7788 62.4572 30.4987 62.4765 30.2186C62.4958 29.9288 62.5006 29.6874 62.491 29.4942L65.2147 28.538C65.0409 29.2431 64.867 29.9047 64.6932 30.5229C64.529 31.1314 64.331 31.7205 64.0991 32.2904C63.877 32.8506 63.5872 33.4205 63.2299 34H60.2888ZM66.2289 34C65.5624 34 64.9974 33.9372 64.5338 33.8117C64.0798 33.6764 63.6983 33.5219 63.3892 33.348C63.0802 33.1645 62.8145 32.9955 62.5924 32.841L63.8239 31.4066C63.9591 31.4742 64.1185 31.5322 64.302 31.5805C64.4855 31.6288 64.6883 31.6674 64.9105 31.6964C65.1326 31.7157 65.3644 31.7254 65.6059 31.7254H66.2289V34ZM60.2888 31.7254H60.4337V34H60.2888C59.999 34 59.8541 33.6233 59.8541 32.8699C59.8541 32.1069 59.999 31.7254 60.2888 31.7254ZM61.9549 37.8973L60.4337 36.3471L61.868 34.8113L63.3892 36.3471L61.9549 37.8973ZM64.5048 37.8973L62.9836 36.3471L64.4324 34.8113L65.9536 36.3471L64.5048 37.8973ZM66.2312 34V31.7254H68.245C68.2837 31.5612 68.3175 31.339 68.3464 31.0589C68.3754 30.7788 68.3996 30.4987 68.4189 30.2186C68.4382 29.9288 68.443 29.6874 68.4334 29.4942L71.1571 28.538C70.9833 29.2431 70.8094 29.9047 70.6356 30.5229C70.4714 31.1314 70.2733 31.7205 70.0415 32.2904C69.8194 32.8506 69.5296 33.4205 69.1723 34H66.2312ZM72.1713 34C71.5048 34 70.9398 33.9372 70.4762 33.8117C70.0222 33.6764 69.6407 33.5219 69.3316 33.348C69.0225 33.1645 68.7569 32.9955 68.5348 32.841L69.7663 31.4066C69.9015 31.4742 70.0609 31.5322 70.2444 31.5805C70.4279 31.6288 70.6307 31.6674 70.8529 31.6964C71.075 31.7157 71.3068 31.7254 71.5483 31.7254H72.1713V34ZM66.2312 31.7254H66.3761V34H66.2312C65.9414 34 65.7965 33.6233 65.7965 32.8699C65.7965 32.1069 65.9414 31.7254 66.2312 31.7254ZM69.8532 27.6977L68.3175 26.1619L69.7808 24.6117L71.302 26.1619L69.8532 27.6977ZM72.1735 34V31.7254H74.2598C74.2309 31.735 74.1922 31.7495 74.1439 31.7688C74.1053 31.7882 74.057 31.8075 73.999 31.8268C73.9508 31.8364 73.9025 31.8461 73.8542 31.8558C73.6417 31.5757 73.4968 31.2907 73.4195 31.001C73.3423 30.7112 73.3036 30.4166 73.3036 30.1172C73.3036 29.7212 73.3761 29.3397 73.5209 28.9726C73.6658 28.6056 73.8831 28.2724 74.1729 27.973C74.4627 27.6735 74.82 27.4369 75.245 27.263C75.6797 27.0892 76.1771 27.0022 76.7373 27.0022C77.3072 27.0022 77.8046 27.0892 78.2296 27.263C78.6642 27.4369 79.0264 27.6735 79.3162 27.973C79.6059 28.2724 79.8233 28.6056 79.9681 28.9726C80.1227 29.3397 80.2 29.7212 80.2 30.1172C80.2 30.4263 80.1565 30.7257 80.0696 31.0155C79.9923 31.2956 79.8474 31.5757 79.6349 31.8558C79.548 31.8364 79.4997 31.8171 79.49 31.7978C79.4804 31.7785 79.4321 31.7543 79.3452 31.7254H81.0403V34H80.6781C79.9923 34 79.4224 33.9952 78.9685 33.9855C78.5145 33.9662 78.1233 33.9324 77.7949 33.8841C77.4762 33.8358 77.1623 33.7537 76.8532 33.6378C76.7083 33.6861 76.5683 33.7344 76.433 33.7827C76.2978 33.8213 76.1336 33.8599 75.9405 33.8986C75.7569 33.9276 75.5106 33.9517 75.2016 33.971C74.9021 33.9903 74.5061 34 74.0135 34H72.1735ZM76.7373 31.8413C76.9691 31.735 77.1623 31.6046 77.3168 31.4501C77.4714 31.2956 77.5873 31.1217 77.6645 30.9285C77.7418 30.7353 77.7804 30.5325 77.7804 30.32C77.7804 30.1268 77.737 29.953 77.65 29.7985C77.5728 29.6439 77.4569 29.5183 77.3023 29.4218C77.1478 29.3252 76.9594 29.2769 76.7373 29.2769C76.5248 29.2769 76.3413 29.3252 76.1867 29.4218C76.0322 29.5183 75.9115 29.6487 75.8245 29.8129C75.7473 29.9675 75.7086 30.1365 75.7086 30.32C75.7086 30.5325 75.7473 30.7353 75.8245 30.9285C75.9018 31.112 76.0177 31.2811 76.1723 31.4356C76.3268 31.5901 76.5151 31.7254 76.7373 31.8413ZM72.1735 31.7254H72.3184V34H72.1735C71.8838 34 71.7389 33.6233 71.7389 32.8699C71.7389 32.1069 71.8838 31.7254 72.1735 31.7254ZM75.5058 25.7852L73.9846 24.2495L75.4189 22.6993L76.9401 24.2495L75.5058 25.7852ZM78.0557 25.7852L76.5345 24.2495L77.9833 22.6993L79.5045 24.2495L78.0557 25.7852ZM81.0447 34V31.7254H83.3917C83.4304 31.5612 83.4642 31.339 83.4932 31.0589C83.5221 30.7788 83.5463 30.4987 83.5656 30.2186C83.5849 29.9288 83.5898 29.6874 83.5801 29.4942L86.3039 28.538C86.13 29.2431 85.9561 29.9047 85.7823 30.5229C85.6181 31.1314 85.4201 31.7205 85.1883 32.2904C84.9661 32.8506 84.6764 33.4205 84.319 34H81.0447ZM87.1297 34C86.4632 34 85.8982 33.9372 85.4346 33.8117C84.971 33.6764 84.5846 33.5219 84.2755 33.348C83.9761 33.1645 83.7153 32.9955 83.4932 32.841L84.6957 31.4066C84.8406 31.4742 85.0048 31.5322 85.1883 31.5805C85.3718 31.6288 85.5746 31.6674 85.7968 31.6964C86.0189 31.7157 86.2556 31.7254 86.5067 31.7254H87.4484V34H87.1297ZM81.0447 31.7254H81.1896V34H81.0447C80.7549 34 80.61 33.6233 80.61 32.8699C80.61 32.1069 80.7549 31.7254 81.0447 31.7254ZM83.7105 27.6977L82.1892 26.1619L83.6236 24.6117L85.1448 26.1619L83.7105 27.6977ZM86.2604 27.6977L84.7391 26.1619L86.188 24.6117L87.7092 26.1619L86.2604 27.6977ZM90.7573 31.7254H92.4958V34H90.7573V31.7254ZM87.454 34V31.7254H88.8593V23.2788H91.1919V34H87.454ZM87.454 31.7254H87.5988V34H87.454C87.1642 34 87.0193 33.6233 87.0193 32.8699C87.0193 32.1069 87.1642 31.7254 87.454 31.7254ZM92.4908 34V31.7254H93.8962V23.2788H96.2288V34H92.4908ZM92.4908 31.7254H92.6357V34H92.4908C92.2011 34 92.0562 33.6233 92.0562 32.8699C92.0562 32.1069 92.2011 31.7254 92.4908 31.7254ZM105.725 33.7827C105.02 33.7827 104.397 33.6813 103.857 33.4784C103.316 33.2756 102.891 32.981 102.582 32.5947C102.282 32.2083 102.132 31.7447 102.132 31.2038C102.132 30.7015 102.263 30.2476 102.524 29.8419C102.794 29.4362 103.166 29.0692 103.639 28.7408C104.122 28.4028 104.687 28.0889 105.334 27.7991C105.991 27.4997 106.701 27.2099 107.464 26.9298L107.812 29.2189C107.165 29.3735 106.624 29.5377 106.189 29.7115C105.764 29.8757 105.426 30.0447 105.175 30.2186C104.924 30.3828 104.74 30.5422 104.624 30.6967C104.518 30.8416 104.465 30.9672 104.465 31.0734C104.465 31.199 104.547 31.3052 104.711 31.3921C104.876 31.4694 105.185 31.508 105.639 31.508C105.735 31.508 105.875 31.5032 106.059 31.4936C106.242 31.4839 106.455 31.4646 106.696 31.4356C106.938 31.397 107.194 31.3438 107.464 31.2762L108 33.1887C107.614 33.3722 107.247 33.5171 106.899 33.6233C106.561 33.7296 106.17 33.7827 105.725 33.7827ZM109.261 34C108.642 34 108.145 33.9179 107.768 33.7537C107.401 33.5798 107.121 33.3625 106.928 33.1017C106.744 32.8313 106.619 32.5415 106.551 32.2325C106.493 31.9234 106.464 31.6336 106.464 31.3632V26.2634H108.797V30.7112C108.797 31.0879 108.894 31.3535 109.087 31.508C109.29 31.6529 109.613 31.7254 110.057 31.7254H110.536V34H109.261ZM104.639 25.452L103.118 23.9163L104.552 22.3661L106.073 23.9163L104.639 25.452ZM107.189 25.452L105.668 23.9163L107.116 22.3661L108.638 23.9163L107.189 25.452ZM110.53 34V31.7254H112.877C112.916 31.5612 112.95 31.339 112.979 31.0589C113.008 30.7788 113.032 30.4987 113.051 30.2186C113.07 29.9288 113.075 29.6874 113.066 29.4942L115.789 28.538C115.616 29.2431 115.442 29.9047 115.268 30.5229C115.104 31.1314 114.906 31.7205 114.674 32.2904C114.452 32.8506 114.162 33.4205 113.805 34H110.53ZM116.615 34C115.949 34 115.384 33.9372 114.92 33.8117C114.456 33.6764 114.07 33.5219 113.761 33.348C113.462 33.1645 113.201 32.9955 112.979 32.841L114.181 31.4066C114.326 31.4742 114.49 31.5322 114.674 31.5805C114.857 31.6288 115.06 31.6674 115.282 31.6964C115.504 31.7157 115.741 31.7254 115.992 31.7254H116.934V34H116.615ZM110.53 31.7254H110.675V34H110.53C110.24 34 110.096 33.6233 110.096 32.8699C110.096 32.1069 110.24 31.7254 110.53 31.7254ZM112.515 37.8973L110.994 36.3471L112.428 34.8113L113.949 36.3471L112.515 37.8973ZM115.065 37.8973L113.544 36.3471L114.993 34.8113L116.514 36.3471L115.065 37.8973ZM116.94 34V31.7254H119.489C119.412 31.3873 119.262 31.0106 119.04 30.5953C118.818 30.18 118.538 29.7598 118.2 29.3348L120.286 27.2051C120.576 27.7556 120.827 28.3593 121.04 29.0161C121.252 29.6729 121.358 30.4118 121.358 31.2328C121.368 32.0441 121.194 32.9665 120.837 34H116.94ZM116.94 31.7254H117.084V34H116.94C116.65 34 116.505 33.6233 116.505 32.8699C116.505 32.1069 116.65 31.7254 116.94 31.7254ZM119.402 37.8973L117.867 36.3471L119.33 34.8113L120.851 36.3471L119.402 37.8973ZM123.767 37.709C123.332 37.709 122.85 37.6124 122.318 37.4192C121.797 37.226 121.323 36.9507 120.898 36.5934L121.623 35.1301C122.009 35.246 122.333 35.3232 122.594 35.3619C122.854 35.4102 123.101 35.4343 123.332 35.4343C123.854 35.4343 124.313 35.3329 124.709 35.1301C125.115 34.9369 125.428 34.6713 125.651 34.3332C125.882 33.9952 125.998 33.6281 125.998 33.2321C125.998 32.9037 125.945 32.6285 125.839 32.4063C125.742 32.1745 125.612 31.9572 125.448 31.7543C125.293 31.5419 125.124 31.3004 124.941 31.0299L128.056 32.5367C128.056 32.6526 128.056 32.7685 128.056 32.8844C128.056 33.0003 128.056 33.1162 128.056 33.2321C128.056 33.5219 128.007 33.8599 127.911 34.2463C127.824 34.6326 127.679 35.0238 127.476 35.4198C127.273 35.8255 127.003 36.2022 126.665 36.5499C126.336 36.8976 125.931 37.1777 125.448 37.3902C124.974 37.6027 124.414 37.709 123.767 37.709ZM129.2 34C128.852 34 128.524 33.971 128.215 33.9131C127.916 33.8455 127.631 33.744 127.36 33.6088C127.099 33.4736 126.848 33.2997 126.607 33.0872C126.375 32.8748 126.143 32.6188 125.911 32.3194L124.028 29.8999L125.882 27.6252L127.708 30.8126C127.843 31.0444 127.969 31.2279 128.085 31.3632C128.2 31.4984 128.341 31.595 128.505 31.6529C128.679 31.7012 128.91 31.7254 129.2 31.7254H129.345V34H129.2ZM138.084 34C137.543 34 137.055 34 136.621 34C136.186 33.9903 135.78 33.9614 135.404 33.9131C135.037 33.8648 134.684 33.7875 134.346 33.6813C134.008 33.5654 133.665 33.4012 133.318 33.1887C132.979 32.9762 132.617 32.6961 132.231 32.3484L130.492 30.7692V27.944C130.821 27.7991 131.202 27.6735 131.637 27.5673C132.081 27.4514 132.53 27.3596 132.984 27.292C133.438 27.2244 133.844 27.1906 134.201 27.1906C134.829 27.1906 135.399 27.2727 135.911 27.4369C136.423 27.6011 136.828 27.8522 137.128 28.1903C137.437 28.5283 137.592 28.963 137.592 29.4942C137.592 29.7743 137.553 30.0496 137.476 30.32C137.398 30.5808 137.292 30.8368 137.157 31.0879C137.031 31.3294 136.886 31.5563 136.722 31.7688C136.78 31.7495 136.838 31.7399 136.896 31.7399C136.954 31.7302 137.007 31.7254 137.055 31.7254H138.446V34H138.084ZM129.348 34V31.7254H131.202C131.492 31.7254 131.729 31.7205 131.912 31.7109C132.105 31.6916 132.294 31.6674 132.477 31.6384C132.67 31.5998 132.912 31.5563 133.202 31.508L134.274 33.5364C133.781 33.6813 133.216 33.7972 132.579 33.8841C131.951 33.9614 131.309 34 130.652 34H129.348ZM134.201 31.624C134.404 31.4501 134.583 31.2762 134.737 31.1024C134.902 30.9285 135.027 30.7547 135.114 30.5808C135.211 30.407 135.259 30.2428 135.259 30.0882C135.259 30.0013 135.225 29.9095 135.158 29.8129C135.09 29.7067 134.979 29.6198 134.824 29.5522C134.67 29.4845 134.462 29.4507 134.201 29.4507C133.96 29.4507 133.66 29.4701 133.303 29.5087C132.946 29.5377 132.627 29.5908 132.347 29.6681L133.68 31.0734C133.786 31.17 133.878 31.2666 133.955 31.3632C134.042 31.4598 134.124 31.5467 134.201 31.624ZM129.348 31.7254H129.493V34H129.348C129.058 34 128.913 33.6233 128.913 32.8699C128.913 32.1069 129.058 31.7254 129.348 31.7254ZM138.445 34V31.7254H139.851V23.2788H142.183V34H138.445ZM138.445 31.7254H138.59V34H138.445C138.156 34 138.011 33.6233 138.011 32.8699C138.011 32.1069 138.156 31.7254 138.445 31.7254ZM144.185 23.2788H146.517V34H144.185V23.2788Z" fill="#3F5397"/>
<path d="M3.95012 52.1133L6.7342 44.9219H7.86428L10.6278 52.1133H9.44638L7.80263 47.7779C7.78209 47.73 7.74099 47.6135 7.67935 47.4286C7.62456 47.2437 7.5595 47.0382 7.48416 46.8122C7.40882 46.5862 7.34033 46.3807 7.27869 46.1958C7.21705 46.004 7.17596 45.8808 7.15541 45.826L7.3917 45.8157C7.35061 45.9321 7.29924 46.0794 7.2376 46.2575C7.18281 46.4355 7.12117 46.6239 7.05268 46.8225C6.99104 47.0211 6.9294 47.2095 6.86776 47.3875C6.80612 47.5587 6.75475 47.7026 6.71366 47.819L5.08019 52.1133H3.95012ZM5.18292 50.3257L5.59386 49.2573H8.86079L9.33337 50.3257H5.18292ZM12.2439 52.1133V45.3431H13.3021V52.1133H12.2439ZM11.1241 47.7471V46.7198H14.5555V47.7471H11.1241ZM19.4035 54.3734V50.8291H19.609C19.609 50.9935 19.5542 51.1579 19.4446 51.3222C19.335 51.4798 19.1878 51.627 19.0029 51.764C18.8179 51.901 18.6125 52.0105 18.3865 52.0927C18.1604 52.1749 17.9276 52.216 17.6879 52.216C17.2016 52.216 16.7667 52.0962 16.3832 51.8564C15.9996 51.6099 15.6948 51.2777 15.4688 50.8599C15.2497 50.4353 15.1401 49.9524 15.1401 49.4114C15.1401 48.8703 15.2497 48.3909 15.4688 47.9731C15.688 47.5485 15.9859 47.2163 16.3626 46.9766C16.7461 46.73 17.1776 46.6067 17.6571 46.6067C17.9242 46.6067 18.1776 46.6513 18.4173 46.7403C18.6638 46.8293 18.883 46.9458 19.0748 47.0896C19.2734 47.2334 19.4275 47.3944 19.5371 47.5724C19.6535 47.7437 19.7117 47.9183 19.7117 48.0964L19.4035 48.1169V46.7095H20.4617V54.3734H19.4035ZM17.8009 51.24C18.1228 51.24 18.407 51.1613 18.6536 51.0038C18.9001 50.8462 19.0919 50.6305 19.2289 50.3565C19.3727 50.0826 19.4446 49.7675 19.4446 49.4114C19.4446 49.0552 19.3727 48.7402 19.2289 48.4662C19.0919 48.1854 18.9001 47.9663 18.6536 47.8087C18.407 47.6512 18.1228 47.5724 17.8009 47.5724C17.479 47.5724 17.1948 47.6546 16.9482 47.819C16.7016 47.9765 16.5064 48.1957 16.3626 48.4765C16.2256 48.7505 16.1571 49.0621 16.1571 49.4114C16.1571 49.7607 16.2256 50.0757 16.3626 50.3565C16.5064 50.6305 16.7016 50.8462 16.9482 51.0038C17.1948 51.1613 17.479 51.24 17.8009 51.24ZM25.1349 52.1133V48.5998C25.1349 48.2984 25.0253 48.0553 24.8061 47.8704C24.5938 47.6786 24.3233 47.5827 23.9945 47.5827C23.6932 47.5827 23.4192 47.6444 23.1727 47.7676C22.9329 47.8909 22.7138 48.0793 22.5152 48.3327L21.8268 47.6444C22.1487 47.2951 22.4946 47.0348 22.8645 46.8636C23.2411 46.6924 23.6452 46.6067 24.0767 46.6067C24.4876 46.6067 24.8438 46.6752 25.1451 46.8122C25.4465 46.9492 25.6794 47.1512 25.8437 47.4183C26.0081 47.6786 26.0903 47.9971 26.0903 48.3738V52.1133H25.1349ZM23.5219 52.216C23.1727 52.216 22.861 52.1475 22.5871 52.0105C22.3131 51.8736 22.0939 51.6852 21.9296 51.4455C21.772 51.199 21.6933 50.9113 21.6933 50.5825C21.6933 50.2949 21.7447 50.0415 21.8474 49.8223C21.9501 49.6032 22.1008 49.4217 22.2994 49.2778C22.5049 49.134 22.7583 49.0244 23.0596 48.9491C23.3678 48.8737 23.7206 48.8361 24.1178 48.8361H25.6177L25.5253 49.6785H23.9843C23.7788 49.6785 23.5939 49.699 23.4295 49.7401C23.272 49.7744 23.135 49.8326 23.0186 49.9148C22.909 49.9901 22.8268 50.0826 22.772 50.1922C22.7172 50.2949 22.6898 50.4182 22.6898 50.562C22.6898 50.7127 22.7275 50.8462 22.8028 50.9627C22.8782 51.0722 22.9809 51.1579 23.111 51.2195C23.2411 51.2811 23.3918 51.312 23.563 51.312C23.8096 51.312 24.0425 51.2709 24.2616 51.1887C24.4876 51.0996 24.6863 50.9798 24.8575 50.8291C25.0356 50.6784 25.1725 50.5106 25.2684 50.3257L25.515 51.014C25.3712 51.2537 25.1931 51.4626 24.9808 51.6407C24.7685 51.8188 24.539 51.9592 24.2925 52.0619C24.0459 52.1646 23.7891 52.216 23.5219 52.216ZM27.4277 52.1133V46.7198H28.4858V47.8293L28.3009 47.9526C28.3694 47.7129 28.503 47.4937 28.7016 47.2951C28.9002 47.0896 29.1365 46.9252 29.4104 46.8019C29.6844 46.6718 29.9652 46.6067 30.2529 46.6067C30.6638 46.6067 31.0062 46.6889 31.2802 46.8533C31.5542 47.0108 31.7596 47.254 31.8966 47.5827C32.0336 47.9115 32.1021 48.3258 32.1021 48.8258V52.1133H31.0439V48.8977C31.0439 48.5895 31.0028 48.3361 30.9206 48.1375C30.8384 47.932 30.7117 47.7848 30.5405 47.6957C30.3693 47.5998 30.157 47.5587 29.9036 47.5724C29.6981 47.5724 29.5098 47.6067 29.3385 47.6752C29.1673 47.7368 29.0166 47.8259 28.8865 47.9423C28.7632 48.0587 28.6639 48.1957 28.5886 48.3532C28.5201 48.5039 28.4858 48.6683 28.4858 48.8463V52.1133H27.9619C27.8729 52.1133 27.7838 52.1133 27.6948 52.1133C27.6058 52.1133 27.5167 52.1133 27.4277 52.1133ZM39.8996 52.216C39.379 52.216 38.8928 52.1236 38.4407 51.9386C37.9887 51.7469 37.5915 51.4832 37.249 51.1476C36.9066 50.812 36.6395 50.4216 36.4477 49.9764C36.2628 49.5244 36.1703 49.0381 36.1703 48.5176C36.1703 48.0039 36.2628 47.5245 36.4477 47.0793C36.6395 46.6341 36.9032 46.2472 37.2388 45.9184C37.5812 45.5828 37.9784 45.3226 38.4305 45.1377C38.8825 44.9527 39.3688 44.8603 39.8893 44.8603C40.2523 44.8603 40.605 44.9116 40.9474 45.0144C41.2967 45.1171 41.6118 45.2609 41.8926 45.4459C42.1734 45.6308 42.4028 45.8431 42.5809 46.0828L41.8618 46.8328C41.5536 46.5383 41.2317 46.3157 40.8961 46.165C40.5673 46.0143 40.2317 45.939 39.8893 45.939C39.5194 45.939 39.177 46.004 38.8619 46.1342C38.5537 46.2643 38.2798 46.4458 38.0401 46.6787C37.8072 46.9115 37.6257 47.1855 37.4956 47.5005C37.3655 47.8087 37.3004 48.1478 37.3004 48.5176C37.3004 48.8737 37.3689 49.2128 37.5059 49.5347C37.6428 49.8497 37.8312 50.1271 38.0709 50.3668C38.3175 50.6065 38.5983 50.7949 38.9133 50.9318C39.2352 51.0688 39.5742 51.1373 39.9304 51.1373C40.1975 51.1373 40.4509 51.0996 40.6906 51.0243C40.9303 50.9421 41.1426 50.8291 41.3276 50.6853C41.5125 50.5415 41.6563 50.3771 41.759 50.1922C41.8618 50.0004 41.9131 49.7983 41.9131 49.586V49.3806L42.0672 49.5244H39.8687V48.4251H43.0535C43.0672 48.5005 43.0775 48.5758 43.0843 48.6512C43.0912 48.7196 43.0946 48.7881 43.0946 48.8566C43.1014 48.9183 43.1049 48.9799 43.1049 49.0415C43.1049 49.5141 43.0227 49.9456 42.8583 50.336C42.6939 50.7195 42.4645 51.0517 42.17 51.3325C41.8823 51.6133 41.5433 51.8325 41.1529 51.99C40.7694 52.1407 40.3516 52.216 39.8996 52.216ZM46.1727 52.216C45.7892 52.216 45.4536 52.127 45.166 51.9489C44.8851 51.7708 44.666 51.5208 44.5085 51.199C44.3578 50.8771 44.2824 50.4935 44.2824 50.0483V46.7198H45.3406V49.7607C45.3406 50.2333 45.4502 50.6065 45.6693 50.8805C45.8954 51.1544 46.207 51.2914 46.6042 51.2914C46.8028 51.2914 46.9843 51.2606 47.1487 51.199C47.3131 51.1305 47.4535 51.038 47.5699 50.9216C47.6932 50.8051 47.7891 50.6647 47.8576 50.5004C47.9261 50.336 47.9603 50.1579 47.9603 49.9661V46.7198H49.0185V52.1133H47.9603V50.9832L48.1452 50.8599C48.063 51.1133 47.9226 51.3428 47.724 51.5482C47.5323 51.7537 47.3028 51.9181 47.0357 52.0414C46.7686 52.1578 46.4809 52.216 46.1727 52.216ZM50.5232 52.1133V44.511H51.5814V52.1133H50.5232ZM53.6666 52.1133V46.1136C53.6666 45.8054 53.7351 45.5315 53.8721 45.2918C54.0091 45.052 54.1974 44.8637 54.4371 44.7267C54.6768 44.5897 54.9542 44.5213 55.2693 44.5213C55.4884 44.5213 55.6939 44.5623 55.8857 44.6445C56.0774 44.7267 56.2315 44.8363 56.348 44.9733L55.9884 45.7849C55.8994 45.7027 55.8001 45.6376 55.6905 45.5897C55.5877 45.5349 55.4884 45.5075 55.3925 45.5075C55.2487 45.5075 55.1254 45.5315 55.0227 45.5794C54.9268 45.6205 54.8549 45.689 54.807 45.7849C54.759 45.8739 54.735 45.9835 54.735 46.1136V52.1133H54.2008C54.1118 52.1133 54.0228 52.1133 53.9337 52.1133C53.8447 52.1133 53.7556 52.1133 53.6666 52.1133ZM52.8036 47.7882V46.8122H56.0089V47.7882H52.8036ZM59.5106 52.1133L62.2947 44.9219H63.4248L66.1883 52.1133H65.0069L63.3632 47.7779C63.3426 47.73 63.3015 47.6135 63.2399 47.4286C63.1851 47.2437 63.12 47.0382 63.0447 46.8122C62.9693 46.5862 62.9009 46.3807 62.8392 46.1958C62.7776 46.004 62.7365 45.8808 62.7159 45.826L62.9522 45.8157C62.9111 45.9321 62.8598 46.0794 62.7981 46.2575C62.7433 46.4355 62.6817 46.6239 62.6132 46.8225C62.5516 47.0211 62.4899 47.2095 62.4283 47.3875C62.3666 47.5587 62.3153 47.7026 62.2742 47.819L60.6407 52.1133H59.5106ZM60.7434 50.3257L61.1544 49.2573H64.4213L64.8939 50.3257H60.7434ZM67.1869 52.1133V46.7198H68.2553V48.4149L68.1526 48.0039C68.2279 47.7437 68.3546 47.5074 68.5327 47.2951C68.7176 47.0827 68.9265 46.915 69.1593 46.7917C69.3991 46.6684 69.6456 46.6067 69.899 46.6067C70.0155 46.6067 70.125 46.617 70.2278 46.6376C70.3374 46.6581 70.423 46.6821 70.4846 46.7095L70.2072 47.8601C70.125 47.8259 70.0326 47.7985 69.9298 47.7779C69.834 47.7505 69.7381 47.7368 69.6422 47.7368C69.4573 47.7368 69.2792 47.7745 69.108 47.8498C68.9436 47.9183 68.7964 48.0176 68.6662 48.1478C68.5429 48.271 68.4436 48.4183 68.3683 48.5895C68.293 48.7539 68.2553 48.9354 68.2553 49.134V52.1133H67.1869ZM74.2946 52.1133V48.5998C74.2946 48.2984 74.185 48.0553 73.9659 47.8704C73.7535 47.6786 73.483 47.5827 73.1543 47.5827C72.8529 47.5827 72.5789 47.6444 72.3324 47.7676C72.0927 47.8909 71.8735 48.0793 71.6749 48.3327L70.9866 47.6444C71.3085 47.2951 71.6543 47.0348 72.0242 46.8636C72.4009 46.6924 72.805 46.6067 73.2364 46.6067C73.6474 46.6067 74.0035 46.6752 74.3049 46.8122C74.6062 46.9492 74.8391 47.1512 75.0035 47.4183C75.1678 47.6786 75.25 47.9971 75.25 48.3738V52.1133H74.2946ZM72.6817 52.216C72.3324 52.216 72.0208 52.1475 71.7468 52.0105C71.4728 51.8736 71.2537 51.6852 71.0893 51.4455C70.9318 51.199 70.853 50.9113 70.853 50.5825C70.853 50.2949 70.9044 50.0415 71.0071 49.8223C71.1099 49.6032 71.2605 49.4217 71.4591 49.2778C71.6646 49.134 71.918 49.0244 72.2194 48.9491C72.5276 48.8737 72.8803 48.8361 73.2775 48.8361H74.7774L74.685 49.6785H73.144C72.9385 49.6785 72.7536 49.699 72.5892 49.7401C72.4317 49.7744 72.2947 49.8326 72.1783 49.9148C72.0687 49.9901 71.9865 50.0826 71.9317 50.1922C71.8769 50.2949 71.8495 50.4182 71.8495 50.562C71.8495 50.7127 71.8872 50.8462 71.9625 50.9627C72.0379 51.0722 72.1406 51.1579 72.2707 51.2195C72.4009 51.2811 72.5515 51.312 72.7228 51.312C72.9693 51.312 73.2022 51.2709 73.4214 51.1887C73.6474 51.0996 73.846 50.9798 74.0172 50.8291C74.1953 50.6784 74.3323 50.5106 74.4282 50.3257L74.6747 51.014C74.5309 51.2537 74.3528 51.4626 74.1405 51.6407C73.9282 51.8188 73.6987 51.9592 73.4522 52.0619C73.2056 52.1646 72.9488 52.216 72.6817 52.216ZM79.4229 52.216C79.19 52.216 78.9571 52.1783 78.7243 52.103C78.4982 52.0277 78.2894 51.9284 78.0976 51.8051C77.9127 51.675 77.7551 51.5345 77.625 51.3839C77.5017 51.2263 77.4195 51.0688 77.3785 50.9113L77.6456 50.7675V52.0825H76.5874V44.511H77.6456V47.9526L77.4812 47.8601C77.5154 47.7026 77.5908 47.5519 77.7072 47.4081C77.8236 47.2574 77.9709 47.1238 78.149 47.0074C78.3339 46.8841 78.5325 46.7882 78.7448 46.7198C78.9571 46.6444 79.1729 46.6067 79.392 46.6067C79.8783 46.6067 80.3098 46.7266 80.6865 46.9663C81.0632 47.206 81.3611 47.5382 81.5803 47.9628C81.7994 48.3806 81.909 48.86 81.909 49.4011C81.909 49.9422 81.7994 50.425 81.5803 50.8497C81.3679 51.2743 81.0734 51.6099 80.6968 51.8564C80.3201 52.0962 79.8954 52.216 79.4229 52.216ZM79.2482 51.2503C79.5633 51.2503 79.8441 51.1716 80.0906 51.014C80.3372 50.8497 80.5324 50.6305 80.6762 50.3565C80.82 50.0757 80.8919 49.7573 80.8919 49.4011C80.8919 49.0518 80.82 48.7402 80.6762 48.4662C80.5392 48.1854 80.3475 47.9663 80.1009 47.8087C79.8543 47.6512 79.5701 47.5724 79.2482 47.5724C78.9263 47.5724 78.6421 47.6512 78.3955 47.8087C78.149 47.9663 77.9538 48.1854 77.8099 48.4662C77.6661 48.7402 77.5942 49.0518 77.5942 49.4011C77.5942 49.7573 77.6661 50.0757 77.8099 50.3565C77.9538 50.6305 78.149 50.8497 78.3955 51.014C78.6421 51.1716 78.9263 51.2503 79.2482 51.2503ZM89.1225 52.216C88.6226 52.216 88.1637 52.127 87.7459 51.9489C87.3281 51.7708 86.9651 51.5174 86.6569 51.1887C86.3487 50.8531 86.109 50.4593 85.9378 50.0072C85.7734 49.5552 85.6912 49.0587 85.6912 48.5176C85.6912 48.0039 85.7803 47.5279 85.9583 47.0896C86.1433 46.6444 86.3967 46.254 86.7186 45.9184C87.0405 45.5828 87.4137 45.3226 87.8384 45.1377C88.263 44.9527 88.7219 44.8603 89.215 44.8603C89.5643 44.8603 89.9033 44.9151 90.2321 45.0246C90.5677 45.1274 90.869 45.2746 91.1361 45.4664C91.4101 45.6513 91.6327 45.8636 91.8039 46.1034L91.0642 46.8739C90.7697 46.5725 90.4683 46.3465 90.1601 46.1958C89.8519 46.0451 89.5369 45.9698 89.215 45.9698C88.8794 45.9698 88.5643 46.0349 88.2698 46.165C87.9822 46.2883 87.7288 46.4629 87.5096 46.6889C87.2973 46.915 87.1295 47.1855 87.0062 47.5005C86.8829 47.8087 86.8213 48.1478 86.8213 48.5176C86.8213 48.908 86.8795 49.2641 86.9959 49.586C87.1192 49.9011 87.2904 50.1716 87.5096 50.3976C87.7288 50.6236 87.989 50.7983 88.2904 50.9216C88.5986 51.038 88.9376 51.0962 89.3075 51.0962C89.5335 51.0962 89.7561 51.0654 89.9752 51.0038C90.1944 50.9421 90.3999 50.8531 90.5916 50.7366C90.7834 50.6202 90.958 50.4832 91.1156 50.3257L91.6703 51.2298C91.5128 51.4147 91.2971 51.5825 91.0231 51.7332C90.756 51.8838 90.4547 52.0037 90.1191 52.0927C89.7903 52.1749 89.4581 52.216 89.1225 52.216ZM95.335 52.216C94.8076 52.216 94.335 52.0962 93.9172 51.8564C93.5063 51.6099 93.181 51.2777 92.9413 50.8599C92.7015 50.4353 92.5817 49.9524 92.5817 49.4114C92.5817 48.8703 92.7015 48.3909 92.9413 47.9731C93.181 47.5485 93.5063 47.2163 93.9172 46.9766C94.335 46.73 94.8076 46.6067 95.335 46.6067C95.8555 46.6067 96.3212 46.73 96.7321 46.9766C97.1499 47.2163 97.4787 47.5485 97.7184 47.9731C97.9581 48.3909 98.0779 48.8703 98.0779 49.4114C98.0779 49.9524 97.9581 50.4353 97.7184 50.8599C97.4787 51.2777 97.1499 51.6099 96.7321 51.8564C96.3212 52.0962 95.8555 52.216 95.335 52.216ZM95.335 51.2503C95.6569 51.2503 95.9445 51.1716 96.1979 51.014C96.4513 50.8497 96.6499 50.6305 96.7938 50.3565C96.9376 50.0757 97.0061 49.7607 96.9992 49.4114C97.0061 49.0552 96.9376 48.7402 96.7938 48.4662C96.6499 48.1854 96.4513 47.9663 96.1979 47.8087C95.9445 47.6512 95.6569 47.5724 95.335 47.5724C95.0131 47.5724 94.722 47.6546 94.4617 47.819C94.2083 47.9765 94.0097 48.1957 93.8659 48.4765C93.722 48.7505 93.6535 49.0621 93.6604 49.4114C93.6535 49.7607 93.722 50.0757 93.8659 50.3565C94.0097 50.6305 94.2083 50.8497 94.4617 51.014C94.722 51.1716 95.0131 51.2503 95.335 51.2503ZM99.6625 52.2263C99.4364 52.2263 99.2618 52.1612 99.1385 52.0311C99.0152 51.8941 98.9536 51.7023 98.9536 51.4558C98.9536 51.2298 99.0187 51.0448 99.1488 50.901C99.2789 50.7572 99.4501 50.6853 99.6625 50.6853C99.8885 50.6853 100.063 50.7538 100.186 50.8907C100.31 51.0209 100.371 51.2092 100.371 51.4558C100.371 51.6818 100.306 51.8667 100.176 52.0105C100.046 52.1544 99.8748 52.2263 99.6625 52.2263ZM104.715 52.1133V44.9219H105.825V52.1133H104.715ZM105.208 49.0518V47.9834H108.917V49.0518H105.208ZM105.208 45.9903V44.9219H109.379V45.9903H105.208ZM110.803 52.1133V46.7198H111.861V52.1133H110.803ZM111.316 45.528C111.09 45.528 110.916 45.4698 110.792 45.3534C110.669 45.237 110.607 45.0726 110.607 44.8603C110.607 44.6617 110.669 44.5007 110.792 44.3774C110.923 44.2541 111.097 44.1925 111.316 44.1925C111.542 44.1925 111.717 44.2507 111.84 44.3672C111.964 44.4836 112.025 44.648 112.025 44.8603C112.025 45.0589 111.96 45.2198 111.83 45.3431C111.707 45.4664 111.535 45.528 111.316 45.528ZM113.487 52.1133V46.7198H114.545V47.8293L114.361 47.9526C114.429 47.7129 114.563 47.4937 114.761 47.2951C114.96 47.0896 115.196 46.9252 115.47 46.8019C115.744 46.6718 116.025 46.6067 116.312 46.6067C116.723 46.6067 117.066 46.6889 117.34 46.8533C117.614 47.0108 117.819 47.254 117.956 47.5827C118.093 47.9115 118.162 48.3258 118.162 48.8258V52.1133H117.104V48.8977C117.104 48.5895 117.062 48.3361 116.98 48.1375C116.898 47.932 116.771 47.7848 116.6 47.6957C116.429 47.5998 116.217 47.5587 115.963 47.5724C115.758 47.5724 115.569 47.6067 115.398 47.6752C115.227 47.7368 115.076 47.8259 114.946 47.9423C114.823 48.0587 114.724 48.1957 114.648 48.3532C114.58 48.5039 114.545 48.6683 114.545 48.8463V52.1133H114.022C113.932 52.1133 113.843 52.1133 113.754 52.1133C113.665 52.1133 113.576 52.1133 113.487 52.1133ZM122.792 52.1133V48.5998C122.792 48.2984 122.683 48.0553 122.463 47.8704C122.251 47.6786 121.981 47.5827 121.652 47.5827C121.35 47.5827 121.077 47.6444 120.83 47.7676C120.59 47.8909 120.371 48.0793 120.172 48.3327L119.484 47.6444C119.806 47.2951 120.152 47.0348 120.522 46.8636C120.898 46.6924 121.303 46.6067 121.734 46.6067C122.145 46.6067 122.501 46.6752 122.802 46.8122C123.104 46.9492 123.337 47.1512 123.501 47.4183C123.665 47.6786 123.748 47.9971 123.748 48.3738V52.1133H122.792ZM121.179 52.216C120.83 52.216 120.518 52.1475 120.244 52.0105C119.97 51.8736 119.751 51.6852 119.587 51.4455C119.429 51.199 119.351 50.9113 119.351 50.5825C119.351 50.2949 119.402 50.0415 119.505 49.8223C119.607 49.6032 119.758 49.4217 119.957 49.2778C120.162 49.134 120.416 49.0244 120.717 48.9491C121.025 48.8737 121.378 48.8361 121.775 48.8361H123.275L123.183 49.6785H121.642C121.436 49.6785 121.251 49.699 121.087 49.7401C120.929 49.7744 120.792 49.8326 120.676 49.9148C120.566 49.9901 120.484 50.0826 120.429 50.1922C120.375 50.2949 120.347 50.4182 120.347 50.562C120.347 50.7127 120.385 50.8462 120.46 50.9627C120.535 51.0722 120.638 51.1579 120.768 51.2195C120.898 51.2811 121.049 51.312 121.22 51.312C121.467 51.312 121.7 51.2709 121.919 51.1887C122.145 51.0996 122.344 50.9798 122.515 50.8291C122.693 50.6784 122.83 50.5106 122.926 50.3257L123.172 51.014C123.028 51.2537 122.85 51.4626 122.638 51.6407C122.426 51.8188 122.196 51.9592 121.95 52.0619C121.703 52.1646 121.446 52.216 121.179 52.216ZM125.085 52.1133V46.7198H126.143V47.8293L125.958 47.9526C126.027 47.7129 126.16 47.4937 126.359 47.2951C126.557 47.0896 126.794 46.9252 127.068 46.8019C127.342 46.6718 127.622 46.6067 127.91 46.6067C128.321 46.6067 128.664 46.6889 128.937 46.8533C129.211 47.0108 129.417 47.254 129.554 47.5827C129.691 47.9115 129.759 48.3258 129.759 48.8258V52.1133H128.701V48.8977C128.701 48.5895 128.66 48.3361 128.578 48.1375C128.496 47.932 128.369 47.7848 128.198 47.6957C128.027 47.5998 127.814 47.5587 127.561 47.5724C127.355 47.5724 127.167 47.6067 126.996 47.6752C126.825 47.7368 126.674 47.8259 126.544 47.9423C126.421 48.0587 126.321 48.1957 126.246 48.3532C126.177 48.5039 126.143 48.6683 126.143 48.8463V52.1133H125.619C125.53 52.1133 125.441 52.1133 125.352 52.1133C125.263 52.1133 125.174 52.1133 125.085 52.1133ZM133.486 52.216C132.986 52.216 132.537 52.0927 132.14 51.8462C131.75 51.5996 131.438 51.264 131.205 50.8394C130.979 50.4147 130.866 49.9387 130.866 49.4114C130.866 48.884 130.979 48.408 131.205 47.9834C131.438 47.5587 131.75 47.2232 132.14 46.9766C132.537 46.73 132.986 46.6067 133.486 46.6067C133.965 46.6067 134.4 46.7061 134.791 46.9047C135.188 47.0964 135.489 47.3601 135.695 47.6957L135.109 48.4149C134.999 48.2573 134.859 48.1135 134.688 47.9834C134.517 47.8533 134.335 47.7505 134.143 47.6752C133.952 47.5998 133.767 47.5622 133.589 47.5622C133.26 47.5622 132.965 47.6444 132.705 47.8087C132.452 47.9663 132.25 48.1854 132.099 48.4662C131.948 48.747 131.873 49.0621 131.873 49.4114C131.873 49.7607 131.952 50.0757 132.109 50.3565C132.267 50.6305 132.476 50.8497 132.736 51.014C132.996 51.1784 133.284 51.2606 133.599 51.2606C133.784 51.2606 133.962 51.2298 134.133 51.1681C134.311 51.1065 134.482 51.014 134.647 50.8907C134.811 50.7675 134.965 50.6168 135.109 50.4387L135.695 51.1579C135.475 51.4661 135.16 51.7195 134.749 51.9181C134.345 52.1167 133.924 52.216 133.486 52.216ZM136.867 52.1133V46.7198H137.925V52.1133H136.867ZM137.381 45.528C137.155 45.528 136.98 45.4698 136.857 45.3534C136.734 45.237 136.672 45.0726 136.672 44.8603C136.672 44.6617 136.734 44.5007 136.857 44.3774C136.987 44.2541 137.162 44.1925 137.381 44.1925C137.607 44.1925 137.782 44.2507 137.905 44.3672C138.028 44.4836 138.09 44.648 138.09 44.8603C138.09 45.0589 138.025 45.2198 137.895 45.3431C137.771 45.4664 137.6 45.528 137.381 45.528ZM142.747 52.1133V48.5998C142.747 48.2984 142.637 48.0553 142.418 47.8704C142.206 47.6786 141.935 47.5827 141.607 47.5827C141.305 47.5827 141.031 47.6444 140.785 47.7676C140.545 47.8909 140.326 48.0793 140.127 48.3327L139.439 47.6444C139.761 47.2951 140.107 47.0348 140.477 46.8636C140.853 46.6924 141.257 46.6067 141.689 46.6067C142.1 46.6067 142.456 46.6752 142.757 46.8122C143.059 46.9492 143.291 47.1512 143.456 47.4183C143.62 47.6786 143.702 47.9971 143.702 48.3738V52.1133H142.747ZM141.134 52.216C140.785 52.216 140.473 52.1475 140.199 52.0105C139.925 51.8736 139.706 51.6852 139.542 51.4455C139.384 51.199 139.305 50.9113 139.305 50.5825C139.305 50.2949 139.357 50.0415 139.46 49.8223C139.562 49.6032 139.713 49.4217 139.912 49.2778C140.117 49.134 140.37 49.0244 140.672 48.9491C140.98 48.8737 141.333 48.8361 141.73 48.8361H143.23L143.137 49.6785H141.596C141.391 49.6785 141.206 49.699 141.042 49.7401C140.884 49.7744 140.747 49.8326 140.631 49.9148C140.521 49.9901 140.439 50.0826 140.384 50.1922C140.329 50.2949 140.302 50.4182 140.302 50.562C140.302 50.7127 140.34 50.8462 140.415 50.9627C140.49 51.0722 140.593 51.1579 140.723 51.2195C140.853 51.2811 141.004 51.312 141.175 51.312C141.422 51.312 141.655 51.2709 141.874 51.1887C142.1 51.0996 142.298 50.9798 142.47 50.8291C142.648 50.6784 142.785 50.5106 142.881 50.3257L143.127 51.014C142.983 51.2537 142.805 51.4626 142.593 51.6407C142.381 51.8188 142.151 51.9592 141.905 52.0619C141.658 52.1646 141.401 52.216 141.134 52.216ZM145.06 52.1133V44.511H146.119V52.1133H145.06ZM43.2272 65.1133V58.9903H41.2136V57.9219H46.4119V58.9903H44.3367V65.1133H43.2272ZM49.0066 65.216C48.4518 65.216 47.9587 65.0996 47.5272 64.8667C47.1026 64.627 46.767 64.3017 46.5204 63.8907C46.2807 63.4798 46.1609 63.0072 46.1609 62.473C46.1609 62.0484 46.2294 61.6614 46.3663 61.3121C46.5033 60.9628 46.6917 60.6615 46.9314 60.4081C47.1779 60.1478 47.469 59.9492 47.8046 59.8122C48.1471 59.6684 48.5169 59.5965 48.9141 59.5965C49.2634 59.5965 49.5888 59.665 49.8901 59.8019C50.1915 59.9321 50.4517 60.1136 50.6709 60.3464C50.8969 60.5793 51.0681 60.8567 51.1846 61.1786C51.3078 61.4936 51.366 61.8395 51.3592 62.2162L51.3489 62.6682H46.9416L46.7054 61.8258H50.4346L50.2805 62.0004V61.7539C50.2599 61.5279 50.1846 61.3258 50.0545 61.1478C49.9244 60.9697 49.76 60.8293 49.5614 60.7265C49.3627 60.6238 49.147 60.5724 48.9141 60.5724C48.5443 60.5724 48.2327 60.6444 47.9793 60.7882C47.7258 60.9252 47.5341 61.1306 47.4039 61.4046C47.2738 61.6717 47.2088 62.0039 47.2088 62.4011C47.2088 62.7778 47.2875 63.1065 47.445 63.3874C47.6026 63.6613 47.8252 63.8736 48.1128 64.0243C48.4005 64.175 48.7326 64.2503 49.1093 64.2503C49.3764 64.2503 49.623 64.2058 49.849 64.1168C50.0819 64.0277 50.3319 63.8668 50.599 63.6339L51.1332 64.3839C50.9688 64.5482 50.7668 64.6921 50.5271 64.8154C50.2942 64.9386 50.0442 65.0379 49.7771 65.1133C49.5168 65.1818 49.26 65.216 49.0066 65.216ZM54.8001 65.216C54.3002 65.216 53.8516 65.0927 53.4543 64.8462C53.0639 64.5996 52.7523 64.264 52.5194 63.8394C52.2934 63.4147 52.1804 62.9387 52.1804 62.4114C52.1804 61.884 52.2934 61.408 52.5194 60.9834C52.7523 60.5587 53.0639 60.2232 53.4543 59.9766C53.8516 59.73 54.3002 59.6067 54.8001 59.6067C55.2796 59.6067 55.7145 59.7061 56.1049 59.9047C56.5021 60.0964 56.8034 60.3601 57.0089 60.6957L56.4233 61.4149C56.3138 61.2573 56.1733 61.1135 56.0021 60.9834C55.8309 60.8533 55.6494 60.7505 55.4576 60.6752C55.2659 60.5998 55.0809 60.5622 54.9029 60.5622C54.5741 60.5622 54.2796 60.6444 54.0194 60.8087C53.766 60.9663 53.5639 61.1854 53.4132 61.4662C53.2626 61.747 53.1872 62.0621 53.1872 62.4114C53.1872 62.7607 53.266 63.0757 53.4235 63.3565C53.581 63.6305 53.7899 63.8497 54.0502 64.014C54.3104 64.1784 54.5981 64.2606 54.9131 64.2606C55.0981 64.2606 55.2761 64.2298 55.4474 64.1681C55.6254 64.1065 55.7967 64.014 55.961 63.8907C56.1254 63.7675 56.2795 63.6168 56.4233 63.4387L57.0089 64.1579C56.7898 64.4661 56.4747 64.7195 56.0638 64.9181C55.6597 65.1167 55.2385 65.216 54.8001 65.216ZM58.007 65.1133V57.511H59.0652V60.8293L58.8803 60.9526C58.9488 60.7129 59.0823 60.4937 59.2809 60.2951C59.4796 60.0896 59.7158 59.9252 59.9898 59.8019C60.2638 59.6718 60.5446 59.6067 60.8322 59.6067C61.2432 59.6067 61.5856 59.6889 61.8596 59.8533C62.1335 60.0108 62.339 60.254 62.476 60.5827C62.6129 60.9115 62.6814 61.3258 62.6814 61.8258V65.1133H61.6233V61.8977C61.6233 61.5895 61.5822 61.3361 61.5 61.1375C61.4178 60.932 61.2911 60.7848 61.1199 60.6957C60.9487 60.5998 60.7363 60.5587 60.4829 60.5724C60.2775 60.5724 60.0891 60.6067 59.9179 60.6752C59.7467 60.7368 59.596 60.8259 59.4659 60.9423C59.3426 61.0587 59.2433 61.1957 59.1679 61.3532C59.0994 61.5039 59.0652 61.6683 59.0652 61.8463V65.1133H58.5413C58.4522 65.1133 58.3632 65.1133 58.2741 65.1133C58.1851 65.1133 58.0961 65.1133 58.007 65.1133ZM64.1169 65.1133V59.7198H65.175V60.8293L64.9901 60.9526C65.0586 60.7129 65.1922 60.4937 65.3908 60.2951C65.5894 60.0896 65.8257 59.9252 66.0997 59.8019C66.3736 59.6718 66.6544 59.6067 66.9421 59.6067C67.353 59.6067 67.6954 59.6889 67.9694 59.8533C68.2434 60.0108 68.4488 60.254 68.5858 60.5827C68.7228 60.9115 68.7913 61.3258 68.7913 61.8258V65.1133H67.7331V61.8977C67.7331 61.5895 67.692 61.3361 67.6098 61.1375C67.5277 60.932 67.4009 60.7848 67.2297 60.6957C67.0585 60.5998 66.8462 60.5587 66.5928 60.5724C66.3873 60.5724 66.199 60.6067 66.0277 60.6752C65.8565 60.7368 65.7058 60.8259 65.5757 60.9423C65.4524 61.0587 65.3531 61.1957 65.2778 61.3532C65.2093 61.5039 65.175 61.6683 65.175 61.8463V65.1133H64.6511C64.5621 65.1133 64.473 65.1133 64.384 65.1133C64.295 65.1133 64.2059 65.1133 64.1169 65.1133ZM72.6513 65.216C72.1239 65.216 71.6513 65.0962 71.2335 64.8564C70.8226 64.6099 70.4973 64.2777 70.2576 63.8599C70.0179 63.4353 69.898 62.9524 69.898 62.4114C69.898 61.8703 70.0179 61.3909 70.2576 60.9731C70.4973 60.5485 70.8226 60.2163 71.2335 59.9766C71.6513 59.73 72.1239 59.6067 72.6513 59.6067C73.1718 59.6067 73.6375 59.73 74.0484 59.9766C74.4662 60.2163 74.795 60.5485 75.0347 60.9731C75.2744 61.3909 75.3943 61.8703 75.3943 62.4114C75.3943 62.9524 75.2744 63.4353 75.0347 63.8599C74.795 64.2777 74.4662 64.6099 74.0484 64.8564C73.6375 65.0962 73.1718 65.216 72.6513 65.216ZM72.6513 64.2503C72.9732 64.2503 73.2608 64.1716 73.5142 64.014C73.7676 63.8497 73.9663 63.6305 74.1101 63.3565C74.2539 63.0757 74.3224 62.7607 74.3155 62.4114C74.3224 62.0552 74.2539 61.7402 74.1101 61.4662C73.9663 61.1854 73.7676 60.9663 73.5142 60.8087C73.2608 60.6512 72.9732 60.5724 72.6513 60.5724C72.3294 60.5724 72.0383 60.6546 71.778 60.819C71.5246 60.9765 71.326 61.1957 71.1822 61.4765C71.0383 61.7505 70.9699 62.0621 70.9767 62.4114C70.9699 62.7607 71.0383 63.0757 71.1822 63.3565C71.326 63.6305 71.5246 63.8497 71.778 64.014C72.0383 64.1716 72.3294 64.2503 72.6513 64.2503ZM76.5678 65.1133V57.511H77.626V65.1133H76.5678ZM81.4498 65.216C80.9225 65.216 80.4499 65.0962 80.0321 64.8564C79.6212 64.6099 79.2959 64.2777 79.0561 63.8599C78.8164 63.4353 78.6966 62.9524 78.6966 62.4114C78.6966 61.8703 78.8164 61.3909 79.0561 60.9731C79.2959 60.5485 79.6212 60.2163 80.0321 59.9766C80.4499 59.73 80.9225 59.6067 81.4498 59.6067C81.9704 59.6067 82.4361 59.73 82.847 59.9766C83.2648 60.2163 83.5936 60.5485 83.8333 60.9731C84.073 61.3909 84.1928 61.8703 84.1928 62.4114C84.1928 62.9524 84.073 63.4353 83.8333 63.8599C83.5936 64.2777 83.2648 64.6099 82.847 64.8564C82.4361 65.0962 81.9704 65.216 81.4498 65.216ZM81.4498 64.2503C81.7717 64.2503 82.0594 64.1716 82.3128 64.014C82.5662 63.8497 82.7648 63.6305 82.9087 63.3565C83.0525 63.0757 83.121 62.7607 83.1141 62.4114C83.121 62.0552 83.0525 61.7402 82.9087 61.4662C82.7648 61.1854 82.5662 60.9663 82.3128 60.8087C82.0594 60.6512 81.7717 60.5724 81.4498 60.5724C81.1279 60.5724 80.8369 60.6546 80.5766 60.819C80.3232 60.9765 80.1246 61.1957 79.9808 61.4765C79.8369 61.7505 79.7684 62.0621 79.7753 62.4114C79.7684 62.7607 79.8369 63.0757 79.9808 63.3565C80.1246 63.6305 80.3232 63.8497 80.5766 64.014C80.8369 64.1716 81.1279 64.2503 81.4498 64.2503ZM87.7601 67.4762C87.3766 67.4762 86.993 67.4145 86.6095 67.2912C86.2328 67.1748 85.928 67.0207 85.6952 66.8289L86.0856 66.0071C86.291 66.1646 86.5444 66.2913 86.8458 66.3872C87.154 66.4831 87.4588 66.531 87.7601 66.531C88.1368 66.531 88.4519 66.4694 88.7053 66.3461C88.9587 66.2228 89.1504 66.0413 89.2806 65.8016C89.4107 65.5619 89.4758 65.264 89.4758 64.9078V63.8702L89.5888 63.9421C89.5545 64.1544 89.4415 64.3599 89.2498 64.5585C89.0648 64.7503 88.832 64.9078 88.5512 65.0311C88.2704 65.1544 87.9827 65.216 87.6882 65.216C87.1745 65.216 86.7157 65.0962 86.3116 64.8564C85.9143 64.6099 85.5993 64.2777 85.3664 63.8599C85.1336 63.4353 85.0171 62.9524 85.0171 62.4114C85.0171 61.8703 85.1301 61.3909 85.3561 60.9731C85.589 60.5485 85.9041 60.2163 86.3013 59.9766C86.7054 59.73 87.1574 59.6067 87.6574 59.6067C87.8628 59.6067 88.0615 59.6341 88.2532 59.6889C88.445 59.7369 88.6231 59.8088 88.7875 59.9047C88.9518 59.9937 89.0991 60.093 89.2292 60.2026C89.3593 60.3122 89.4655 60.4286 89.5477 60.5519C89.6299 60.6752 89.6812 60.7916 89.7018 60.9012L89.4758 60.9834V59.7198H90.5339V64.7845C90.5339 65.216 90.4689 65.5961 90.3387 65.9249C90.2155 66.2605 90.034 66.5413 89.7942 66.7673C89.5545 67.0002 89.2635 67.1748 88.921 67.2912C88.5786 67.4145 88.1916 67.4762 87.7601 67.4762ZM87.8012 64.24C88.1368 64.24 88.4347 64.1613 88.695 64.0038C88.9553 63.8462 89.1573 63.6305 89.3011 63.3565C89.4449 63.0826 89.5169 62.7675 89.5169 62.4114C89.5169 62.0552 89.4415 61.7402 89.2908 61.4662C89.147 61.1854 88.945 60.9663 88.6847 60.8087C88.4313 60.6512 88.1368 60.5724 87.8012 60.5724C87.4725 60.5724 87.178 60.6546 86.9177 60.819C86.6643 60.9765 86.4622 61.1957 86.3116 61.4765C86.1677 61.7505 86.0958 62.0621 86.0958 62.4114C86.0958 62.7607 86.1677 63.0757 86.3116 63.3565C86.4622 63.6305 86.6643 63.8462 86.9177 64.0038C87.178 64.1613 87.4725 64.24 87.8012 64.24ZM92.9216 67.4762L94.0106 64.9592L94.0209 65.8016L91.3292 59.7198H92.562L94.2469 63.6853C94.2811 63.7538 94.3222 63.8599 94.3702 64.0038C94.4181 64.1407 94.4592 64.2777 94.4934 64.4147L94.2263 64.4763C94.2811 64.3325 94.3325 64.1887 94.3804 64.0448C94.4352 63.901 94.4866 63.7572 94.5345 63.6134L95.942 59.7198H97.1953L94.9763 65.1133L94.0619 67.4762H92.9216ZM104.051 65.216C103.551 65.216 103.092 65.127 102.674 64.9489C102.257 64.7708 101.894 64.5174 101.585 64.1887C101.277 63.8531 101.038 63.4593 100.866 63.0072C100.702 62.5552 100.62 62.0587 100.62 61.5176C100.62 61.0039 100.709 60.5279 100.887 60.0896C101.072 59.6444 101.325 59.254 101.647 58.9184C101.969 58.5828 102.342 58.3226 102.767 58.1377C103.192 57.9527 103.65 57.8603 104.144 57.8603C104.493 57.8603 104.832 57.9151 105.161 58.0246C105.496 58.1274 105.798 58.2746 106.065 58.4664C106.339 58.6513 106.561 58.8636 106.732 59.1034L105.993 59.8739C105.698 59.5725 105.397 59.3465 105.089 59.1958C104.78 59.0451 104.465 58.9698 104.144 58.9698C103.808 58.9698 103.493 59.0349 103.198 59.165C102.911 59.2883 102.657 59.4629 102.438 59.6889C102.226 59.915 102.058 60.1855 101.935 60.5005C101.811 60.8087 101.75 61.1478 101.75 61.5176C101.75 61.908 101.808 62.2641 101.924 62.586C102.048 62.9011 102.219 63.1716 102.438 63.3976C102.657 63.6236 102.918 63.7983 103.219 63.9216C103.527 64.038 103.866 64.0962 104.236 64.0962C104.462 64.0962 104.685 64.0654 104.904 64.0038C105.123 63.9421 105.328 63.8531 105.52 63.7366C105.712 63.6202 105.887 63.4832 106.044 63.3257L106.599 64.2298C106.441 64.4147 106.226 64.5825 105.952 64.7332C105.685 64.8838 105.383 65.0037 105.048 65.0927C104.719 65.1749 104.387 65.216 104.051 65.216ZM110.263 65.216C109.736 65.216 109.264 65.0962 108.846 64.8564C108.435 64.6099 108.109 64.2777 107.87 63.8599C107.63 63.4353 107.51 62.9524 107.51 62.4114C107.51 61.8703 107.63 61.3909 107.87 60.9731C108.109 60.5485 108.435 60.2163 108.846 59.9766C109.264 59.73 109.736 59.6067 110.263 59.6067C110.784 59.6067 111.25 59.73 111.661 59.9766C112.078 60.2163 112.407 60.5485 112.647 60.9731C112.887 61.3909 113.006 61.8703 113.006 62.4114C113.006 62.9524 112.887 63.4353 112.647 63.8599C112.407 64.2777 112.078 64.6099 111.661 64.8564C111.25 65.0962 110.784 65.216 110.263 65.216ZM110.263 64.2503C110.585 64.2503 110.873 64.1716 111.126 64.014C111.38 63.8497 111.578 63.6305 111.722 63.3565C111.866 63.0757 111.935 62.7607 111.928 62.4114C111.935 62.0552 111.866 61.7402 111.722 61.4662C111.578 61.1854 111.38 60.9663 111.126 60.8087C110.873 60.6512 110.585 60.5724 110.263 60.5724C109.942 60.5724 109.65 60.6546 109.39 60.819C109.137 60.9765 108.938 61.1957 108.794 61.4765C108.651 61.7505 108.582 62.0621 108.589 62.4114C108.582 62.7607 108.651 63.0757 108.794 63.3565C108.938 63.6305 109.137 63.8497 109.39 64.014C109.65 64.1716 109.942 64.2503 110.263 64.2503ZM114.139 65.1133V59.7198H115.207V60.8704L115.012 60.9937C115.067 60.8156 115.153 60.6444 115.269 60.48C115.392 60.3156 115.54 60.1718 115.711 60.0485C115.889 59.9184 116.077 59.8156 116.276 59.7403C116.481 59.665 116.69 59.6273 116.902 59.6273C117.211 59.6273 117.481 59.6787 117.714 59.7814C117.947 59.8841 118.139 60.0382 118.289 60.2437C118.44 60.4492 118.55 60.706 118.618 61.0142L118.454 60.9731L118.526 60.7985C118.601 60.6409 118.704 60.4937 118.834 60.3567C118.971 60.2129 119.125 60.0862 119.296 59.9766C119.467 59.867 119.649 59.7814 119.841 59.7198C120.032 59.6581 120.221 59.6273 120.406 59.6273C120.81 59.6273 121.142 59.7095 121.402 59.8739C121.669 60.0382 121.868 60.2882 121.998 60.6238C122.135 60.9594 122.204 61.3772 122.204 61.8772V65.1133H121.135V61.9388C121.135 61.4799 121.046 61.1443 120.868 60.932C120.697 60.7129 120.426 60.6033 120.056 60.6033C119.865 60.6033 119.683 60.6375 119.512 60.706C119.348 60.7676 119.204 60.8567 119.08 60.9731C118.957 61.0895 118.861 61.2265 118.793 61.384C118.724 61.5347 118.69 61.7025 118.69 61.8874V65.1133H117.622V61.9183C117.622 61.4936 117.529 61.1683 117.344 60.9423C117.166 60.7163 116.906 60.6033 116.563 60.6033C116.372 60.6033 116.194 60.6375 116.029 60.706C115.865 60.7676 115.721 60.8567 115.598 60.9731C115.474 61.0827 115.379 61.2162 115.31 61.3738C115.242 61.5244 115.207 61.6888 115.207 61.8669V65.1133H114.139ZM123.62 67.3734V59.7198H124.689V60.9526L124.524 60.8601C124.565 60.6546 124.682 60.4594 124.874 60.2745C125.065 60.0827 125.298 59.9286 125.572 59.8122C125.853 59.6889 126.141 59.6273 126.435 59.6273C126.921 59.6273 127.353 59.7472 127.73 59.9869C128.106 60.2266 128.404 60.5553 128.623 60.9731C128.843 61.3909 128.952 61.8703 128.952 62.4114C128.952 62.9456 128.843 63.425 128.623 63.8497C128.411 64.2674 128.117 64.5996 127.74 64.8462C127.363 65.0859 126.939 65.2057 126.466 65.2057C126.151 65.2057 125.846 65.1441 125.552 65.0208C125.257 64.8907 125.007 64.7263 124.802 64.5277C124.596 64.3291 124.469 64.1236 124.422 63.9113L124.689 63.7675V67.3734H123.62ZM126.291 64.2298C126.606 64.2298 126.887 64.151 127.134 63.9935C127.38 63.836 127.575 63.6202 127.719 63.3463C127.863 63.0723 127.935 62.7607 127.935 62.4114C127.935 62.0621 127.863 61.7539 127.719 61.4868C127.582 61.2128 127.391 60.9971 127.144 60.8396C126.897 60.682 126.613 60.6033 126.291 60.6033C125.969 60.6033 125.685 60.682 125.439 60.8396C125.192 60.9902 124.997 61.2025 124.853 61.4765C124.709 61.7505 124.637 62.0621 124.637 62.4114C124.637 62.7607 124.709 63.0723 124.853 63.3463C124.997 63.6202 125.192 63.836 125.439 63.9935C125.685 64.151 125.969 64.2298 126.291 64.2298ZM133.296 65.1133V61.5998C133.296 61.2984 133.187 61.0553 132.968 60.8704C132.755 60.6786 132.485 60.5827 132.156 60.5827C131.855 60.5827 131.581 60.6444 131.334 60.7676C131.094 60.8909 130.875 61.0793 130.677 61.3327L129.988 60.6444C130.31 60.2951 130.656 60.0348 131.026 59.8636C131.403 59.6924 131.807 59.6067 132.238 59.6067C132.649 59.6067 133.005 59.6752 133.307 59.8122C133.608 59.9492 133.841 60.1512 134.005 60.4183C134.17 60.6786 134.252 60.9971 134.252 61.3738V65.1133H133.296ZM131.683 65.216C131.334 65.216 131.022 65.1475 130.749 65.0105C130.475 64.8736 130.255 64.6852 130.091 64.4455C129.933 64.199 129.855 63.9113 129.855 63.5825C129.855 63.2949 129.906 63.0415 130.009 62.8223C130.112 62.6032 130.262 62.4217 130.461 62.2778C130.666 62.134 130.92 62.0244 131.221 61.9491C131.529 61.8737 131.882 61.8361 132.279 61.8361H133.779L133.687 62.6785H132.146C131.94 62.6785 131.755 62.699 131.591 62.7401C131.433 62.7744 131.296 62.8326 131.18 62.9148C131.07 62.9901 130.988 63.0826 130.933 63.1922C130.879 63.2949 130.851 63.4182 130.851 63.562C130.851 63.7127 130.889 63.8462 130.964 63.9627C131.04 64.0722 131.142 64.1579 131.272 64.2195C131.403 64.2811 131.553 64.312 131.724 64.312C131.971 64.312 132.204 64.2709 132.423 64.1887C132.649 64.0996 132.848 63.9798 133.019 63.8291C133.197 63.6784 133.334 63.5106 133.43 63.3257L133.676 64.014C133.533 64.2537 133.355 64.4626 133.142 64.6407C132.93 64.8188 132.7 64.9592 132.454 65.0619C132.207 65.1646 131.95 65.216 131.683 65.216ZM135.589 65.1133V59.7198H136.647V60.8293L136.462 60.9526C136.531 60.7129 136.664 60.4937 136.863 60.2951C137.062 60.0896 137.298 59.9252 137.572 59.8019C137.846 59.6718 138.127 59.6067 138.414 59.6067C138.825 59.6067 139.168 59.6889 139.442 59.8533C139.716 60.0108 139.921 60.254 140.058 60.5827C140.195 60.9115 140.263 61.3258 140.263 61.8258V65.1133H139.205V61.8977C139.205 61.5895 139.164 61.3361 139.082 61.1375C139 60.932 138.873 60.7848 138.702 60.6957C138.531 60.5998 138.318 60.5587 138.065 60.5724C137.86 60.5724 137.671 60.6067 137.5 60.6752C137.329 60.7368 137.178 60.8259 137.048 60.9423C136.925 61.0587 136.825 61.1957 136.75 61.3532C136.682 61.5039 136.647 61.6683 136.647 61.8463V65.1133H136.123C136.034 65.1133 135.945 65.1133 135.856 65.1133C135.767 65.1133 135.678 65.1133 135.589 65.1133ZM142.553 67.4762L143.642 64.9592L143.652 65.8016L140.96 59.7198H142.193L143.878 63.6853C143.912 63.7538 143.953 63.8599 144.001 64.0038C144.049 64.1407 144.09 64.2777 144.125 64.4147L143.858 64.4763C143.912 64.3325 143.964 64.1887 144.012 64.0448C144.066 63.901 144.118 63.7572 144.166 63.6134L145.573 59.7198H146.827L144.608 65.1133L143.693 67.4762H142.553Z" fill="#435363"/>
</svg>